<svg width="77" height="32" viewBox="0 0 77 32" fill="none" xmlns="http://www.w3.org/2000/svg">
          <path d="M5.87027 1.1792L0.833984 17.5766H3.7928L5.21555 12.7917H9.30753L10.7681 17.5766H13.7898L8.75354 1.1792H5.87027ZM8.60245 10.0775H5.9584L7.05379 6.46779C7.12934 6.21595 7.20488 5.97811 7.26784 5.72627C7.34338 5.97811 7.40633 6.22994 7.49447 6.48178L8.60245 10.0775Z" fill="white"></path>
          <path d="M18.7756 10.1195C17.4159 9.51786 17.2648 9.23804 17.2648 8.80432C17.2648 8.25867 17.6803 7.9089 18.3476 7.9089C19.1534 7.9089 19.7703 8.25867 20.0725 8.46854L20.6517 8.87428L21.4197 6.27195L21.0798 6.02011C20.4124 5.53043 19.4052 5.25061 18.3853 5.25061C16.1064 5.25061 14.457 6.84558 14.457 9.05616C14.457 11.0848 16.0686 12.1622 17.4284 12.7078C18.7756 13.2674 18.889 13.6592 18.889 14.1349C18.889 15.0303 18.0328 15.1702 17.5418 15.1702C16.7611 15.1702 15.9176 14.7925 15.4391 14.4847L14.8599 14.1069L14.1045 16.7652L14.4696 17.003C15.3006 17.5487 16.396 17.8565 17.504 17.8565C20.0095 17.8565 21.6967 16.2895 21.6967 13.967C21.6967 11.6025 20.0221 10.6371 18.7756 10.1195Z" fill="white"></path>
          <path d="M26.1417 2.64832L23.3214 3.5997V5.47449H21.8105V8.17475H23.334V13.5333C23.334 15.0303 23.611 16.0936 24.165 16.8072C24.7064 17.4788 25.5374 17.8425 26.4817 17.8425C27.3379 17.8425 27.9548 17.6467 28.2444 17.5347L28.6221 17.3808L28.471 14.6666L27.8289 14.8904C27.6274 14.9464 27.4134 15.0024 26.9476 15.0024C26.6076 15.0024 26.1417 15.0024 26.1417 13.4773V8.17475H28.6977V5.47449H26.1543L26.1417 2.64832Z" fill="white"></path>
          <path d="M35.5593 5.36254L35.043 5.29258C34.892 5.2646 34.7409 5.25061 34.5394 5.25061C33.6455 5.25061 32.8271 5.65635 32.1976 6.36989L32.1724 5.47447H29.5283L29.5661 6.10406C29.6165 7.02747 29.6542 8.10477 29.6542 9.47589V17.5907H32.5123V11.1688C32.5123 10.861 32.5375 10.5672 32.5627 10.3433C32.7767 9.08414 33.4818 8.30064 34.4261 8.30064C34.6527 8.30064 34.7912 8.30064 34.9171 8.32863L35.5593 8.48253V5.36254Z" fill="white"></path>
          <path d="M40.7714 5.25061C37.586 5.25061 35.3574 7.86692 35.3574 11.6305C35.3574 15.2821 37.5104 17.8425 40.5952 17.8425C43.214 17.8425 46.0218 15.8418 46.0218 11.4486C46.0469 7.79697 43.8813 5.25061 40.7714 5.25061ZM43.1511 11.5046C43.1511 13.6172 42.1186 15.1562 40.7085 15.1562C39.2983 15.1562 38.2785 13.6312 38.2785 11.5605C38.2785 10.2174 38.8073 7.93688 40.7588 7.93688C42.6474 7.92289 43.1511 10.2594 43.1511 11.5046Z" fill="white"></path>
          <path d="M55.4151 2.48035C54.4707 1.54295 53.0606 1.06726 51.2224 1.06726C49.9885 1.06726 48.8175 1.1652 47.7473 1.37506L47.3066 1.45901V17.5906H50.1395V11.5885C50.4291 11.6165 50.7313 11.6305 51.0209 11.6305C52.9347 11.6305 54.5589 10.9729 55.5913 9.78364C56.3971 8.87423 56.8 7.64302 56.8 6.118C56.7874 4.64895 56.309 3.36178 55.4151 2.48035ZM53.9545 6.21594C53.9545 8.51046 52.1415 8.84625 51.0587 8.84625C50.6935 8.84625 50.3914 8.83226 50.127 8.79028V3.86546C50.404 3.82348 50.7817 3.80949 51.2601 3.80949C52.494 3.82348 53.9545 4.24321 53.9545 6.21594Z" fill="white"></path>
          <path d="M65.4872 14.3727V10.2874C65.4872 7.02746 63.9637 5.25061 61.2189 5.25061C59.9473 5.25061 58.6127 5.64236 57.6809 6.28594L57.3284 6.53778L58.0964 9.05616L58.6882 8.60845C59.28 8.16073 60.1361 7.89491 60.9797 7.89491C61.5463 7.88092 61.9744 8.03482 62.2514 8.34262C62.478 8.59446 62.6165 8.97221 62.6669 9.4479C60.4383 9.51786 58.8015 10.1195 57.8194 11.2108C57.127 11.9663 56.7744 12.9457 56.7744 14.1069C56.7744 15.9537 57.9831 17.8425 60.3124 17.8425C61.3071 17.8425 62.2388 17.4927 62.969 16.8631L63.0446 17.5767H65.7516L65.6635 16.8911C65.525 16.2335 65.4872 15.3801 65.4872 14.3727ZM60.7279 15.1842C60.2998 15.1842 59.5947 15.0163 59.5947 13.883C59.5947 13.4493 59.7081 13.1135 59.9599 12.8337C60.2998 12.47 61.0301 12.0502 62.6921 12.0083V13.3094C62.6921 13.4074 62.6795 13.5752 62.6417 13.7571C62.4276 14.4147 61.8107 15.1842 60.7279 15.1842Z" fill="white"></path>
          <path d="M73.3438 5.47432L71.2789 12.2879C71.2285 12.4558 71.1782 12.6377 71.1278 12.8056C71.0774 12.6377 71.0271 12.4698 70.9641 12.3159L68.7104 5.47432H65.5879L69.491 16.3453L69.5036 16.3733C69.5666 16.5132 69.5917 16.5971 69.5917 16.6251C69.5666 16.6811 69.5288 16.793 69.5036 16.863C69.1637 17.6745 68.66 18.416 68.1564 18.8637L68.1438 18.8777C67.5772 19.4093 66.9855 19.6612 66.7588 19.7311L66.2552 19.913L66.9855 22.6273L67.4513 22.5293C67.7409 22.4734 68.7482 22.2075 69.9065 21.1302C71.2915 19.7731 72.2106 17.5905 73.4193 14.0508L76.3781 5.46033L73.3438 5.47432Z" fill="white"></path>
          <path d="M11.2721 5.69823C13.1104 3.61357 16.2329 2.36838 19.6198 2.36838C20.9418 2.36838 22.226 2.55026 23.4347 2.92802L23.5355 2.956L25.7137 2.22847L24.7316 1.82273C22.8807 1.03923 20.7403 0.619507 18.5495 0.619507C15.3641 0.619507 12.4053 1.47296 10.1767 3.02595L9.9375 3.19384L10.8566 6.17392L11.2721 5.69823Z" fill="#FF0000"></path>
          <path d="M64.7444 29.8188C64.7444 30.7282 64.077 31.4837 63.2461 31.4837H46.9915C46.1731 31.4837 45.4932 30.7422 45.4932 29.8188V21.9978C45.4932 21.0884 46.1731 20.3329 46.9915 20.3329H63.2461C64.0645 20.3329 64.7444 21.0884 64.7444 21.9978V29.8188Z" fill="#FF0000"></path>
          <path d="M49.9631 23.9144C49.4847 23.9144 49.0943 24.1102 48.8299 24.488C48.5529 24.8657 48.4144 25.3834 48.4144 26.055C48.4144 26.7545 48.5529 27.2722 48.8173 27.6499C49.0818 28.0137 49.4595 28.1816 49.9631 28.1816C50.1771 28.1816 50.3912 28.1676 50.5926 28.0977C50.8067 28.0557 51.0081 27.9997 51.2222 27.9158V28.7273C50.8193 28.8951 50.366 28.9791 49.8498 28.9791C49.0943 28.9791 48.5152 28.7273 48.1249 28.2236C47.722 27.7199 47.5205 26.9924 47.5205 26.055C47.5205 25.4534 47.6212 24.9357 47.8101 24.502C48.0115 24.0543 48.2885 23.7185 48.6663 23.4806C49.0314 23.2428 49.4721 23.1309 49.9505 23.1309C50.4793 23.1309 50.9578 23.2568 51.411 23.4946L51.1089 24.2781C50.9452 24.1802 50.7563 24.1102 50.5675 24.0403C50.3786 23.9563 50.1771 23.9144 49.9631 23.9144Z" fill="white"></path>
          <path d="M54.6848 28.9092L54.5211 28.3076H54.4959C54.3196 28.5594 54.1308 28.7413 53.9293 28.8392C53.753 28.9371 53.5012 28.9931 53.2116 28.9931C52.8339 28.9931 52.5317 28.8812 52.3177 28.6433C52.1037 28.4055 52.0029 28.0977 52.0029 27.678C52.0029 27.2302 52.154 26.8945 52.4436 26.6706C52.7332 26.4467 53.1865 26.3208 53.7908 26.3068L54.4707 26.2789V26.041C54.4707 25.7612 54.4203 25.5653 54.2944 25.4254C54.1811 25.2855 54.0049 25.2155 53.753 25.2155C53.5516 25.2155 53.3627 25.2435 53.1865 25.3135C52.9976 25.3834 52.8339 25.4534 52.6576 25.5513L52.3932 24.8937C52.6073 24.7678 52.8339 24.6699 53.0857 24.6139C53.3375 24.544 53.5768 24.516 53.8034 24.516C54.2944 24.516 54.6722 24.6419 54.924 24.8798C55.1758 25.1176 55.3017 25.4814 55.3017 25.999V28.8952H54.6848V28.9092ZM53.4509 28.2796C53.7404 28.2796 53.9923 28.1816 54.1685 27.9997C54.3448 27.8179 54.4455 27.552 54.4455 27.2163V26.8525L53.9545 26.8805C53.5642 26.8945 53.2746 26.9784 53.0983 27.1043C52.922 27.2302 52.8465 27.4261 52.8465 27.6919C52.8465 27.8878 52.8969 28.0277 52.9976 28.1397C53.0983 28.2516 53.2494 28.2796 53.4509 28.2796Z" fill="white"></path>
          <path d="M58.2729 24.516C58.4365 24.516 58.575 24.53 58.6883 24.558L58.6128 25.4114C58.4995 25.3834 58.3736 25.3694 58.2477 25.3694C57.9203 25.3694 57.6559 25.4814 57.4419 25.7332C57.2404 25.9711 57.1397 26.2789 57.1397 26.6566V28.9092H56.3213V24.5999H56.9634L57.0767 25.3555H57.1145C57.253 25.1036 57.4041 24.8937 57.6181 24.7398C57.807 24.5859 58.0462 24.516 58.2729 24.516Z" fill="white"></path>
          <path d="M60.7156 28.9931C60.2372 28.9931 59.8595 28.7972 59.5825 28.4054C59.3055 28.0137 59.167 27.468 59.167 26.7685C59.167 26.055 59.3055 25.5093 59.5825 25.1176C59.8469 24.7258 60.2246 24.516 60.7156 24.516C61.2193 24.516 61.6096 24.7258 61.874 25.1455H61.9118C61.874 24.8238 61.8614 24.5999 61.8614 24.404V22.837H62.6798V28.9091H62.0377L61.8992 28.3495H61.8614C61.6222 28.7692 61.2193 28.9931 60.7156 28.9931ZM60.9423 28.2375C61.2822 28.2375 61.534 28.1396 61.6851 27.9297C61.8488 27.7199 61.9243 27.3701 61.9243 26.8944V26.7685C61.9243 26.2228 61.8362 25.8311 61.6851 25.6072C61.534 25.3834 61.2822 25.2715 60.9423 25.2715C60.6527 25.2715 60.4261 25.3974 60.2624 25.6632C60.1113 25.929 60.0357 26.2928 60.0357 26.7825C60.0357 27.2722 60.1113 27.6219 60.2624 27.8738C60.4009 28.1116 60.6275 28.2375 60.9423 28.2375Z" fill="white"></path>
        </svg>