<svg width="86" height="29" viewBox="0 0 86 29" fill="none" xmlns="http://www.w3.org/2000/svg">
          <path d="M44.2184 9.57007C44.1632 13.4714 47.6418 15.646 50.2645 16.934C52.8873 18.222 53.8535 19.118 53.8443 20.3033C53.8443 22.1233 51.7001 22.9259 49.7124 22.9539C47.2423 23.008 44.7998 22.42 42.6172 21.2459L41.3656 27.1819C43.8153 28.1462 46.4221 28.6338 49.0498 28.6192C56.3014 28.6192 61.0131 24.9792 61.0776 19.3513C61.0776 12.202 51.332 11.81 51.3964 8.61808C51.3964 7.68476 52.3167 6.61144 54.3229 6.35011C56.6592 6.12432 59.0122 6.54356 61.1328 7.56343L62.3475 1.82349C60.2885 1.03475 58.1067 0.626966 55.9057 0.619507C49.059 0.619507 44.2552 4.2968 44.2184 9.57007ZM74.0164 1.11417C73.3882 1.1092 72.773 1.29498 72.2498 1.6476C71.7267 2.00022 71.3195 2.50355 71.0808 3.09281L60.7187 28.1899H67.9611L69.4059 24.1486H78.268L79.1054 28.1899H85.492L79.9152 1.11417H74.0164ZM75.0287 8.43142L77.1269 18.5953H71.3937L75.0287 8.43142ZM35.43 1.11417L29.7151 28.1805H36.6171L42.3319 1.11417H35.43V1.11417ZM25.2059 1.11417L18.0187 19.5473L15.1106 3.86747C14.9881 3.09841 14.5993 2.39881 14.0141 1.89422C13.4289 1.38963 12.6855 1.11307 11.9173 1.11417H0.165647L0 1.89816C2.35682 2.36506 4.64737 3.12687 6.81912 4.16613C7.27406 4.39112 7.66346 4.73229 7.94904 5.15611C8.23463 5.57993 8.40657 6.07182 8.44797 6.58344L13.9695 28.1899H21.2672L32.4575 1.11417H25.2059Z" fill="#3A46FF"></path>
        </svg>