<svg width="97" height="20" viewBox="0 0 97 20" fill="none" xmlns="http://www.w3.org/2000/svg">
          <path fill-rule="evenodd" clip-rule="evenodd" d="M63.8365 14.9564C62.5386 14.9564 61.5817 14.2402 61.3077 12.9693C61.0513 14.2402 60.0852 14.9564 58.7965 14.9564C56.6649 14.9564 55.6133 13.3746 55.6133 11.2278V4.8175H57.6879V11.3667C57.6879 12.4023 58.0105 13.0968 58.9767 13.0968C59.8958 13.0968 60.2654 12.4023 60.2838 11.3667V4.8175H62.3492V11.3667C62.3492 12.4023 62.7288 13.0968 63.6572 13.0968C64.6233 13.0968 64.9451 12.4023 64.9451 11.3667V4.8175H67.0198V11.2278C67.0198 13.3746 65.9682 14.9564 63.8365 14.9564Z" fill="white"></path>
          <path fill-rule="evenodd" clip-rule="evenodd" d="M37.2904 7.34892C37.7546 6.61189 38.001 5.72556 38.001 4.8175H31.3128V6.6015H35.4428L31.8717 12.2634C31.4075 13.0014 31.1611 13.8877 31.1611 14.7958H37.8493V13.0118H33.7193L37.2904 7.34892Z" fill="white"></path>
          <path fill-rule="evenodd" clip-rule="evenodd" d="M94.9015 8.33258V10.8961C94.9015 11.0993 94.9015 11.3024 94.9015 11.5056C94.9015 11.911 94.9585 12.2634 95.0909 12.5308L95.1001 12.5629C95.1478 12.6489 95.1948 12.734 95.2618 12.7982C95.2995 12.8407 95.3372 12.8833 95.3841 12.9154C95.4034 12.9371 95.4319 12.9475 95.4604 12.9693L95.4696 12.9796L95.4981 13.0014C95.7537 13.1724 96.057 13.2253 96.3511 13.2253C96.5027 13.2253 96.6544 13.2036 96.8052 13.1724V14.9347C96.6544 14.9564 96.5027 14.9564 96.3511 14.9564C94.7121 14.9564 93.4427 14.037 93.0254 12.5733L93.0162 12.5525C92.95 12.2747 92.9115 11.9865 92.893 11.6766C92.893 11.6228 92.8838 11.5585 92.8838 11.5056V11.4942C92.8838 11.4309 92.8838 11.3667 92.8838 11.3024C92.8838 10.6183 92.8838 8.33258 92.8838 8.33258H91.6328V6.6015H92.8838V4.8175H94.9015V6.5911H96.8052V8.33258H94.9015Z" fill="white"></path>
          <path fill-rule="evenodd" clip-rule="evenodd" d="M40.938 10.0201C40.938 8.66326 41.6863 8.33254 42.3784 8.33254C43.089 8.33254 43.8372 8.66326 43.8372 10.0201H40.938ZM44.9935 7.67015C44.955 7.62669 44.9173 7.58417 44.8704 7.54165C44.6801 7.34888 44.4623 7.18919 44.226 7.05029C44.112 6.98604 43.9981 6.93218 43.8749 6.87926C43.8372 6.86792 43.7995 6.84714 43.7618 6.83674C43.3445 6.67611 42.8803 6.59106 42.3784 6.59106C42.246 6.59106 42.1128 6.60146 41.9896 6.61185C41.9142 6.62225 41.848 6.63359 41.7718 6.63359C41.4877 6.67611 41.2229 6.74036 40.9766 6.84714C40.8811 6.87926 40.7964 6.92178 40.7017 6.96431C40.6163 7.00683 40.5308 7.06069 40.4453 7.10321C40.199 7.25345 39.9719 7.43487 39.7826 7.64842C39.2329 8.24655 38.9111 9.07996 38.9111 10.074V10.7685V11.4621C38.9111 11.4942 38.9203 11.5159 38.9203 11.5481C38.9296 11.8363 38.9581 12.1141 39.015 12.3711V12.3919C39.3846 13.9623 40.6917 14.946 42.3977 14.946C43.7995 14.946 44.9365 14.2723 45.4954 13.1506V13.1402C45.5809 12.9692 45.6471 12.7982 45.7041 12.6168H43.5909C43.4208 12.8946 43.1744 13.0647 42.9088 13.1402C42.7479 13.1932 42.5678 13.2036 42.3977 13.2036C42.1036 13.2036 41.791 13.1506 41.5447 12.9796L41.5162 12.9579C41.3076 12.8303 41.1659 12.6168 41.0713 12.3598C41.052 12.2955 41.0235 12.2208 41.0143 12.1566C41.0042 12.1141 40.995 12.0612 40.9858 12.0073C40.9573 11.8684 40.9481 11.6974 40.9481 11.5263V11.4838H45.8742V11.4621V10.7685V10.074C45.8649 9.10169 45.5424 8.27868 44.9935 7.67015Z" fill="white"></path>
          <path fill-rule="evenodd" clip-rule="evenodd" d="M72.9505 12.2105C72.9413 12.3172 72.9128 12.4136 72.8659 12.4987C72.6757 12.8511 72.1838 13.2357 71.4163 13.2357C70.8859 13.2357 70.4217 12.8936 70.4217 12.2634C70.4217 11.6331 70.8473 11.2381 71.5964 11.2381H72.9505V11.7512C72.9606 11.9005 72.9698 12.0498 72.9505 12.2105ZM74.9405 9.9559C74.9405 9.8274 74.9313 9.71023 74.9213 9.58172C74.912 9.49668 74.9028 9.41163 74.8928 9.32565C74.8836 9.28313 74.8743 9.24061 74.8743 9.19714C74.8743 9.15462 74.8551 9.1121 74.8551 9.07997V9.05824C74.4948 7.51992 73.2161 6.54761 71.5395 6.54761C70.6488 6.54761 69.872 6.81502 69.2846 7.30637C69.0953 7.46701 68.9243 7.64843 68.7727 7.85159L70.2985 8.95146C70.4686 8.59901 70.7342 8.40719 71.0375 8.32121C71.0752 8.31081 71.1222 8.30042 71.1607 8.28908C71.2839 8.26829 71.4071 8.25695 71.5395 8.25695C71.6811 8.25695 71.8327 8.26829 71.9752 8.31081C72.0129 8.32121 72.0414 8.33255 72.0791 8.34294C72.1838 8.37507 72.2785 8.42798 72.3732 8.49224L72.4017 8.51397L72.4109 8.52436C72.4302 8.53476 72.4486 8.55649 72.4679 8.56688C72.6002 8.66326 72.6949 8.79177 72.7611 8.94107C72.7804 8.9732 72.7896 8.99493 72.7988 9.02611C72.8089 9.05824 72.8181 9.07997 72.8273 9.1121C72.8466 9.17635 72.8751 9.24061 72.8843 9.31525C72.8944 9.35777 72.9036 9.41163 72.9128 9.45416C72.922 9.48628 72.922 9.5288 72.9321 9.56093V9.57132C72.9413 9.64597 72.9505 9.71023 72.9505 9.79621C72.9505 9.83873 72.9505 9.88126 72.9505 9.92378V9.9663H71.0845C69.6441 9.9663 68.4316 10.6721 68.4316 12.4136C68.4316 14.0587 69.7011 14.9564 70.999 14.9564C71.7096 14.9564 72.4679 14.7211 72.9505 14.1334V14.8071L74.9405 14.8061V10.0948C74.9498 10.0419 74.9498 9.99842 74.9405 9.9559Z" fill="white"></path>
          <path fill-rule="evenodd" clip-rule="evenodd" d="M25.3539 10.0201C25.3539 8.66326 26.1022 8.33254 26.7943 8.33254C27.5048 8.33254 28.2531 8.66326 28.2531 10.0201H25.3539ZM29.4086 7.67015C29.3709 7.62669 29.3332 7.58417 29.2854 7.54165C29.096 7.34888 28.8782 7.18919 28.641 7.05029C28.5279 6.98604 28.414 6.93218 28.2908 6.87926C28.2531 6.86792 28.2145 6.84714 28.1768 6.83674C27.7604 6.67611 27.2962 6.59106 26.7943 6.59106C26.6611 6.59106 26.5287 6.60146 26.4055 6.61185C26.3292 6.62225 26.263 6.63359 26.1876 6.63359C25.9036 6.67611 25.638 6.74036 25.3916 6.84714C25.2969 6.87926 25.2115 6.92178 25.1168 6.96431C25.0313 7.00683 24.9467 7.06069 24.8612 7.10321C24.6149 7.25345 24.3878 7.43487 24.1984 7.64842C23.6488 8.24655 23.3262 9.07996 23.3262 10.074V10.7685V11.4621C23.3262 11.4942 23.3362 11.5159 23.3362 11.5481C23.3454 11.8363 23.3739 12.1141 23.4309 12.3711V12.3919C23.8004 13.9623 25.1076 14.946 26.8127 14.946C28.2154 14.946 29.3516 14.2723 29.9105 13.1506V13.1402C29.9297 13.0968 29.9582 13.0439 29.9775 13.0013C30.0336 12.8728 30.0814 12.7443 30.1191 12.6168H28.0067C27.8358 12.8946 27.5895 13.0647 27.3247 13.1402C27.163 13.1932 26.9836 13.2036 26.8127 13.2036C26.5194 13.2036 26.2069 13.1506 25.9606 12.9796L25.9321 12.9579C25.7234 12.8303 25.581 12.6168 25.4863 12.3598C25.4679 12.2955 25.4394 12.2208 25.4201 12.1566C25.4109 12.1141 25.4008 12.0612 25.3916 12.0073C25.3631 11.8684 25.3539 11.6974 25.3539 11.5263V11.4838H30.28V11.4621V10.7685V10.074C30.28 9.10169 29.9582 8.27868 29.4086 7.67015Z" fill="white"></path>
          <path fill-rule="evenodd" clip-rule="evenodd" d="M49.1617 10.0201C49.1617 8.66326 49.9108 8.33254 50.602 8.33254C51.3126 8.33254 52.0608 8.66326 52.0608 10.0201H49.1617ZM53.2172 7.67015C53.1794 7.62669 53.1409 7.58417 53.094 7.54165C52.9046 7.34888 52.6868 7.18919 52.4496 7.05029C52.3357 6.98604 52.2226 6.93218 52.0994 6.87926C52.0608 6.86792 52.0231 6.84714 51.9854 6.83674C51.5681 6.67611 51.1039 6.59106 50.602 6.59106C50.4696 6.59106 50.3373 6.60146 50.2141 6.61185C50.1378 6.62225 50.0716 6.63359 49.9954 6.63359C49.7113 6.67611 49.4466 6.74036 49.2002 6.84714C49.1055 6.87926 49.0201 6.92178 48.9254 6.96431C48.8399 7.00683 48.7544 7.06069 48.6698 7.10321C48.4235 7.25345 48.2048 7.43487 48.0062 7.64842C47.4565 8.24655 47.1348 9.07996 47.1348 10.074V10.7685V11.4621C47.1348 11.4942 47.144 11.5159 47.144 11.5481C47.1532 11.8363 47.1817 12.1141 47.2387 12.3711V12.3919C47.6082 13.9623 48.9162 14.946 50.6213 14.946C52.0231 14.946 53.1602 14.2723 53.7191 13.1506V13.1402C53.8045 12.9692 53.8707 12.7982 53.9277 12.6168H51.8053C51.6352 12.8946 51.3888 13.0647 51.1232 13.1402C50.9623 13.1932 50.7822 13.2036 50.6113 13.2036C50.318 13.2036 50.0054 13.1506 49.7591 12.9796L49.7306 12.9579C49.522 12.8303 49.3804 12.6168 49.2848 12.3598C49.2664 12.2955 49.2379 12.2208 49.2186 12.1566C49.2094 12.1141 49.2002 12.0612 49.1902 12.0073C49.1617 11.8684 49.1525 11.6974 49.1525 11.5263V11.4838H54.0794V11.4621V10.7685V10.074C54.0886 9.10169 53.766 8.27868 53.2172 7.67015Z" fill="white"></path>
          <path fill-rule="evenodd" clip-rule="evenodd" d="M85.7787 10.0201C85.7787 8.66326 86.527 8.33254 87.2182 8.33254C87.9288 8.33254 88.6771 8.66326 88.6771 10.0201H85.7787ZM89.8334 7.67015C89.7957 7.62669 89.7571 7.58417 89.7102 7.54165C89.5208 7.34888 89.303 7.18919 89.0658 7.05029C88.9519 6.98604 88.8388 6.93218 88.7156 6.87926C88.677 6.86792 88.6393 6.84714 88.6016 6.83674C88.1852 6.67611 87.7202 6.59106 87.2182 6.59106C87.0859 6.59106 86.9535 6.60146 86.8303 6.61185C86.754 6.62225 86.6879 6.63359 86.6124 6.63359C86.3275 6.67611 86.0628 6.74036 85.8164 6.84714C85.7217 6.87926 85.6363 6.92178 85.5416 6.96431C85.4561 7.00683 85.3707 7.06069 85.286 7.10321C85.0397 7.25345 84.8118 7.43487 84.6224 7.64842C84.0727 8.24655 83.751 9.07996 83.751 10.074V10.7685V11.4621C83.751 11.4942 83.7602 11.5159 83.7602 11.5481C83.7702 11.8363 83.7987 12.1141 83.8549 12.3711V12.3919C84.2244 13.9623 85.5324 14.946 87.2375 14.946C88.6393 14.946 89.7764 14.2723 90.3353 13.1506V13.1402C90.4207 12.9692 90.4869 12.7982 90.5439 12.6168H88.4307C88.2606 12.8946 88.0143 13.0647 87.7487 13.1402C87.5878 13.1932 87.4076 13.2036 87.2375 13.2036C86.9434 13.2036 86.6309 13.1506 86.3845 12.9796L86.356 12.9579C86.1482 12.8303 86.0058 12.6168 85.9111 12.3598C85.8918 12.2955 85.8633 12.2208 85.8541 12.1566C85.8449 12.1141 85.8349 12.0612 85.8256 12.0073C85.7972 11.8684 85.7879 11.6974 85.7879 11.5263V11.4838H90.714V11.4621V10.7685V10.074C90.7048 9.10169 90.383 8.27868 89.8334 7.67015Z" fill="white"></path>
          <path fill-rule="evenodd" clip-rule="evenodd" d="M77.4599 14.7958H78.6162V4.8175H76.5977V13.8348C76.5977 14.3687 76.9772 14.7958 77.4599 14.7958Z" fill="white"></path>
          <path fill-rule="evenodd" clip-rule="evenodd" d="M80.9657 14.7958H82.1212V4.8175H80.1035V13.8348C80.1035 14.3687 80.4915 14.7958 80.9657 14.7958Z" fill="white"></path>
          <path fill-rule="evenodd" clip-rule="evenodd" d="M6.43457 12.424C6.43457 13.1289 6.93648 13.6958 7.56156 13.6958H16.5616V11.1635H7.56156C6.93648 11.1531 6.43457 11.7191 6.43457 12.424Z" fill="#03C5D3"></path>
          <path fill-rule="evenodd" clip-rule="evenodd" d="M16.5526 6.078H7.55263C6.92755 6.078 6.4248 6.64401 6.4248 7.34891C6.4248 8.05476 6.92755 8.62076 7.55263 8.62076H16.5526V6.078Z" fill="#03C5D3"></path>
          <path fill-rule="evenodd" clip-rule="evenodd" d="M3.56381 5.20205C3.40209 5.53277 3.32668 5.90695 3.32668 6.28114C3.31746 7.24211 3.84786 7.96875 4.54919 8.4601C5.06953 8.84468 5.57228 9.29352 5.57228 10.0202C5.57228 10.7468 5.06953 11.1956 4.54919 11.5802C3.85707 12.0716 3.32668 12.7982 3.32668 13.7592C3.32668 14.1334 3.40293 14.5075 3.56381 14.8383C4.06571 15.907 5.11729 16.2169 6.11189 16.2169H17.67V20.0202H5.93174C5.77086 20.0202 5.60998 20.0202 5.43905 20.0202C4.0565 20.0305 2.60691 19.6781 1.49836 18.6954C0.86322 18.1398 0.370529 17.4027 0.0956939 16.5372C-0.547821 14.5822 -0.159869 12.6697 1.17576 11.2485C1.30899 11.0992 1.4506 10.9603 1.57377 10.7997C1.707 10.6296 1.82933 10.4369 1.88631 10.2129C1.90558 10.1487 1.9148 10.1052 1.9148 10.0202C1.9148 9.93511 1.90558 9.89165 1.88631 9.82834C1.83017 9.60345 1.707 9.41163 1.57377 9.2406C1.4506 9.07997 1.30899 8.94106 1.17576 8.79177C-0.159869 7.37062 -0.547821 5.44773 0.0956939 3.5031C0.380583 2.64795 0.86322 1.90053 1.50757 1.34492C2.61613 0.372606 4.06571 0.00881477 5.4491 0.0201537C5.60998 0.0201537 5.77086 0.0201537 5.9418 0.0201537H17.6792V3.82342H6.12111C5.11729 3.82342 4.06571 4.13335 3.56381 5.20205Z" fill="#03C5D3"></path>
        </svg>