<svg width="97" height="19" viewBox="0 0 97 19" fill="none" xmlns="http://www.w3.org/2000/svg">
          <path fill-rule="evenodd" clip-rule="evenodd" d="M42.5373 12.6976V8.73983C42.5373 7.24611 41.6915 6.24073 40.3323 6.22816C39.5434 6.17071 38.789 6.60069 38.3629 7.35204C37.976 6.62313 37.2656 6.19136 36.512 6.22816C35.8568 6.19225 35.2337 6.54952 34.8733 7.16712V6.37538H33.6543V12.6976H34.8853V9.19584C34.8853 8.098 35.4235 7.51811 36.2573 7.51811C37.0902 7.51811 37.4763 8.11146 37.4763 9.18238V12.6976H38.7009V9.19584C38.7009 8.098 39.2623 7.51811 40.072 7.51811C40.8826 7.51811 41.3031 8.11146 41.3031 9.18238V12.6976H42.5373ZM60.7549 6.38076H58.763V4.46514H57.532V6.38076H56.3947V7.6366H57.532V10.5154C57.532 11.9822 58.035 12.8556 59.4775 12.8556C60.0157 12.8574 60.5435 12.6887 61.0016 12.3673L60.65 11.1905C60.3224 11.4104 59.9516 11.5334 59.5712 11.5468C58.9625 11.5468 58.7606 11.1249 58.7606 10.4912V7.6366H60.7533L60.7549 6.38076ZM71.1548 6.22277C70.5493 6.20302 69.9823 6.5585 69.6779 7.14916V6.38076H68.4701V12.6976H69.6899V9.15635C69.6899 8.10069 70.088 7.53157 70.8865 7.53157C71.1468 7.52708 71.4063 7.58004 71.649 7.68956L72.0238 6.39423C71.7451 6.28202 71.4512 6.22367 71.1548 6.22277ZM55.432 6.88166C54.7416 6.42026 53.9479 6.19046 53.1454 6.22277C51.727 6.22277 50.8043 6.99028 50.8043 8.24342C50.8043 9.27484 51.4835 9.90859 52.7377 10.1061L53.3112 10.1985C53.9792 10.3045 54.2971 10.5019 54.2971 10.8583C54.2971 11.3458 53.8526 11.6258 53.0189 11.6258C52.3469 11.6501 51.6869 11.4176 51.1463 10.9669L50.5921 12.0352C51.3017 12.5953 52.1531 12.8826 53.0189 12.8556C54.6367 12.8556 55.5754 11.9957 55.5754 10.7946C55.5754 9.68417 54.8353 9.10428 53.6187 8.9059L53.0445 8.81344C52.5183 8.73444 52.0946 8.61595 52.0946 8.19315C52.0946 7.73175 52.4919 7.45437 53.1622 7.45437C53.7757 7.46514 54.3764 7.65096 54.9082 7.99566L55.432 6.88166ZM88.091 6.22277C87.4847 6.20302 86.9177 6.5585 86.6133 7.14916V6.38076H85.4055V12.6976H86.6253V9.15635C86.6253 8.10069 87.0234 7.53157 87.8211 7.53157C88.0822 7.52708 88.3417 7.58004 88.5844 7.68956L88.9592 6.39423C88.6805 6.28202 88.3865 6.22367 88.091 6.22277ZM72.3866 9.53965C72.3866 11.4544 73.5704 12.8556 75.3757 12.8556C76.1077 12.896 76.8261 12.6276 77.3908 12.1007L76.8061 10.9903C76.3848 11.352 75.8698 11.5504 75.3404 11.5576C74.3665 11.5576 73.6529 10.7497 73.6529 9.53696C73.6529 8.32331 74.3689 7.52798 75.3404 7.51541C75.8698 7.5217 76.3848 7.72098 76.8061 8.08274L77.3908 6.97143C76.8261 6.44539 76.1077 6.17699 75.3757 6.21739C73.5704 6.21739 72.3866 7.61775 72.3866 9.53337V9.53965ZM83.8045 9.53965V6.37268H82.5847V7.14109C82.1634 6.52708 81.5035 6.18148 80.8155 6.21469C79.2449 6.21469 78.0067 7.60249 78.0067 9.53067C78.0067 11.4598 79.2377 12.8475 80.8155 12.8475C81.5035 12.8808 82.1634 12.5352 82.5847 11.9212V12.6869H83.8045V9.53965ZM79.2681 9.53965C79.2681 8.42834 79.912 7.51811 80.9676 7.51811C81.9768 7.51811 82.6552 8.39153 82.6552 9.53965C82.6552 10.6869 81.9768 11.5603 80.9676 11.5603C79.912 11.5603 79.2681 10.6474 79.2681 9.53965ZM64.5545 6.22277C62.9158 6.22277 61.7641 7.57017 61.7641 9.53965C61.7641 11.5468 62.9606 12.8556 64.6362 12.8556C65.4731 12.8888 66.2909 12.5729 66.9348 11.9687L66.3381 10.9508C65.8728 11.3709 65.2953 11.6025 64.6994 11.6106C63.9129 11.6106 63.1985 11.2012 63.0231 10.0639H67.1847C67.1967 9.89243 67.2087 9.72098 67.2087 9.53696C67.2087 7.56837 66.1179 6.22008 64.5473 6.22008L64.5545 6.22277ZM64.5312 7.45168C65.3169 7.45168 65.8207 8.00554 65.9497 8.98489H63.0447C63.1729 8.07197 63.6646 7.45168 64.5336 7.45168H64.5312ZM95.1126 9.53965V3.84216H93.8936V7.14647C93.4716 6.53247 92.8116 6.18687 92.1236 6.22008C90.553 6.22008 89.3148 7.60787 89.3148 9.53696C89.3148 11.4651 90.5458 12.8529 92.1236 12.8529C92.8116 12.8861 93.4716 12.5405 93.8936 11.9265V12.6923H95.1126V9.53965ZM96.5383 12.1142C96.5871 12.1142 96.6344 12.1249 96.6792 12.1456C96.7217 12.1662 96.7601 12.1958 96.7938 12.2335C96.8258 12.2695 96.8522 12.3116 96.8707 12.3592C96.9091 12.4589 96.9091 12.5711 96.8707 12.6716C96.8522 12.7183 96.8258 12.7614 96.7938 12.7973C96.7601 12.835 96.7217 12.8637 96.6792 12.8844C96.6344 12.9059 96.5871 12.9167 96.5383 12.9158C96.3925 12.9185 96.2596 12.8215 96.2019 12.6716C96.1634 12.5711 96.1634 12.4589 96.2019 12.3592C96.2379 12.2632 96.3068 12.186 96.3933 12.1456C96.4406 12.1231 96.4918 12.1133 96.5431 12.1142H96.5383ZM96.5383 12.8269C96.5759 12.8269 96.612 12.8188 96.6464 12.8027C96.6784 12.7874 96.7081 12.765 96.7329 12.7371C96.841 12.6142 96.841 12.4158 96.7329 12.2937C96.7081 12.2659 96.6784 12.2434 96.6464 12.2282C96.612 12.212 96.5759 12.203 96.5383 12.2039C96.5006 12.203 96.463 12.2111 96.4285 12.2282C96.2868 12.2955 96.2211 12.4804 96.282 12.6402C96.2948 12.6761 96.3148 12.7084 96.3396 12.7371C96.3653 12.765 96.3957 12.7874 96.4285 12.8027C96.4646 12.8197 96.5038 12.8278 96.5431 12.8269H96.5383ZM96.5599 12.326C96.5943 12.3224 96.6296 12.3341 96.6584 12.3565C96.6816 12.3781 96.6945 12.4104 96.6929 12.4445C96.6937 12.4732 96.684 12.501 96.6648 12.5199C96.6432 12.5423 96.616 12.5549 96.5879 12.5576L96.6953 12.6976H96.6112L96.5102 12.5576H96.4774V12.6976H96.4077V12.3278L96.5599 12.326ZM96.4774 12.3942V12.4939H96.5599C96.5743 12.4993 96.5895 12.4993 96.604 12.4939C96.6144 12.4858 96.6216 12.4714 96.62 12.4571C96.6216 12.4427 96.6144 12.4283 96.604 12.4203C96.5895 12.4158 96.5743 12.4158 96.5599 12.4203L96.4774 12.3942ZM90.5811 9.53965C90.5811 8.42834 91.225 7.51811 92.2806 7.51811C93.2898 7.51811 93.9681 8.39153 93.9681 9.53965C93.9681 10.6869 93.2898 11.5603 92.2806 11.5603C91.225 11.5603 90.5811 10.6474 90.5811 9.53965ZM49.4075 9.53965V6.37268H48.1877V7.14109C47.7656 6.53247 47.1097 6.19046 46.4249 6.22277C44.8543 6.22277 43.6161 7.61056 43.6161 9.53965C43.6161 11.4678 44.8479 12.8556 46.4249 12.8556C47.1129 12.8879 47.7729 12.5432 48.1949 11.9292V12.6949H49.4139L49.4075 9.53965ZM44.8711 9.53965C44.8711 8.42834 45.5143 7.51811 46.5699 7.51811C47.579 7.51811 48.2574 8.39153 48.2574 9.53965C48.2574 10.6869 47.579 11.5603 46.5699 11.5603C45.5143 11.5603 44.8711 10.6501 44.8711 9.53965Z" fill="white"></path>
          <path fill-rule="evenodd" clip-rule="evenodd" d="M18.092 2.02979H10.7188V16.966H18.092V2.02979Z" fill="#FF5F00"></path>
          <path fill-rule="evenodd" clip-rule="evenodd" d="M11.1865 9.50109C11.1849 6.58727 12.3719 3.83413 14.4054 2.03431C10.746 -1.20717 5.44878 -0.490828 2.57269 3.63395C-0.3026 7.75783 0.332527 13.7291 3.99191 16.9706C7.04741 19.6779 11.3491 19.6779 14.4054 16.9706C12.3711 15.1716 11.1841 12.4167 11.1865 9.50109Z" fill="#EB001B"></path>
          <path fill-rule="evenodd" clip-rule="evenodd" d="M28.0401 9.50194C28.0401 14.7479 24.2678 19.001 19.6128 19.0001C17.7243 19.0001 15.8902 18.2847 14.4053 16.9687C18.0647 13.7273 18.6998 7.75598 15.8237 3.6312C15.4096 3.03695 14.9331 2.50014 14.4053 2.03246C18.0639 -1.20991 23.3611 -0.494471 26.238 3.62851C27.4058 5.30355 28.0409 7.37178 28.0401 9.50194Z" fill="#F79E1B"></path>
          <path fill-rule="evenodd" clip-rule="evenodd" d="M27.2308 15.3834V15.0773H27.3413V15.0162H27.0674V15.08H27.1771V15.3861L27.2308 15.3834ZM27.7722 15.3834V15.0135H27.6993L27.6008 15.2775L27.5031 15.0135H27.4158V15.3834H27.4646V15.106L27.5559 15.3466H27.62L27.7113 15.106V15.3861L27.7722 15.3834Z" fill="#F79E1B"></path>
        </svg>