<svg width="33" height="32" viewBox="0 0 33 32" fill="none" xmlns="http://www.w3.org/2000/svg">
            <circle cx="16.5" cy="16" r="15.5" fill="black" stroke="white"></circle>
            <path fill-rule="evenodd" clip-rule="evenodd" d="M11.516 5.64598C11.5624 5.59942 11.6176 5.56247 11.6784 5.53727C11.7391 5.51206 11.8042 5.49908 11.87 5.49908C11.9358 5.49908 12.0009 5.51206 12.0616 5.53727C12.1224 5.56247 12.1776 5.59942 12.224 5.64598L13.329 6.75198C14.1858 6.25773 15.1579 5.99833 16.147 5.99998H16.853C17.8429 5.99824 18.8157 6.258 19.673 6.75298L20.78 5.64598C20.8739 5.55222 21.0012 5.49961 21.1339 5.4997C21.2665 5.49979 21.3937 5.55259 21.4875 5.64648C21.5813 5.74036 21.6339 5.86765 21.6338 6.00033C21.6337 6.13301 21.5809 6.26022 21.487 6.35398L20.503 7.33798C21.1296 7.86768 21.6329 8.52782 21.9778 9.27227C22.3228 10.0167 22.501 10.8275 22.5 11.648C22.4997 11.7414 22.4624 11.831 22.3963 11.8969C22.3301 11.9629 22.2404 12 22.147 12H10.853C10.7594 12 10.6696 11.9628 10.6034 11.8966C10.5372 11.8304 10.5 11.7406 10.5 11.647C10.5 9.91898 11.276 8.37198 12.5 7.33698L11.516 6.35398C11.4694 6.30753 11.4325 6.25236 11.4073 6.19161C11.3821 6.13087 11.3691 6.06575 11.3691 5.99998C11.3691 5.93421 11.3821 5.86909 11.4073 5.80834C11.4325 5.7476 11.4694 5.69242 11.516 5.64598ZM15 9.24998C15 9.44889 14.921 9.63966 14.7803 9.78031C14.6397 9.92096 14.4489 9.99998 14.25 9.99998C14.0511 9.99998 13.8603 9.92096 13.7197 9.78031C13.579 9.63966 13.5 9.44889 13.5 9.24998C13.5 9.05107 13.579 8.8603 13.7197 8.71965C13.8603 8.579 14.0511 8.49998 14.25 8.49998C14.4489 8.49998 14.6397 8.579 14.7803 8.71965C14.921 8.8603 15 9.05107 15 9.24998ZM18.724 9.99998C18.9229 9.99998 19.1137 9.92096 19.2543 9.78031C19.395 9.63966 19.474 9.44889 19.474 9.24998C19.474 9.05107 19.395 8.8603 19.2543 8.71965C19.1137 8.579 18.9229 8.49998 18.724 8.49998C18.5251 8.49998 18.3343 8.579 18.1937 8.71965C18.053 8.8603 17.974 9.05107 17.974 9.24998C17.974 9.44889 18.053 9.63966 18.1937 9.78031C18.3343 9.92096 18.5251 9.99998 18.724 9.99998Z" fill="white"></path>
            <path d="M8.5 12.947C8.23478 12.947 7.98043 13.0524 7.79289 13.2399C7.60536 13.4275 7.5 13.6818 7.5 13.947V19.947C7.5 20.2122 7.60536 20.4666 7.79289 20.6541C7.98043 20.8417 8.23478 20.947 8.5 20.947C8.76522 20.947 9.01957 20.8417 9.20711 20.6541C9.39464 20.4666 9.5 20.2122 9.5 19.947V13.947C9.5 13.6818 9.39464 13.4275 9.20711 13.2399C9.01957 13.0524 8.76522 12.947 8.5 12.947ZM11.5 12.947C11.2348 12.947 10.9804 13.0524 10.7929 13.2399C10.6054 13.4275 10.5 13.6818 10.5 13.947V22.947C10.5 23.2122 10.6054 23.4666 10.7929 23.6541C10.9804 23.8417 11.2348 23.947 11.5 23.947H21.5C21.7652 23.947 22.0196 23.8417 22.2071 23.6541C22.3946 23.4666 22.5 23.2122 22.5 22.947V13.947C22.5 13.6818 22.3946 13.4275 22.2071 13.2399C22.0196 13.0524 21.7652 12.947 21.5 12.947H11.5ZM23.71 13.947C23.71 13.6818 23.8154 13.4275 24.0029 13.2399C24.1904 13.0524 24.4448 12.947 24.71 12.947C24.9752 12.947 25.2296 13.0524 25.4171 13.2399C25.6046 13.4275 25.71 13.6818 25.71 13.947V19.947C25.71 20.2122 25.6046 20.4666 25.4171 20.6541C25.2296 20.8417 24.9752 20.947 24.71 20.947C24.4448 20.947 24.1904 20.8417 24.0029 20.6541C23.8154 20.4666 23.71 20.2122 23.71 19.947V13.947ZM12.293 25C12.2544 25 12.2163 25.0076 12.1806 25.0224C12.145 25.0372 12.1127 25.0589 12.0855 25.0862C12.0582 25.1135 12.0367 25.1459 12.022 25.1816C12.0073 25.2173 11.9999 25.2555 12 25.294V25.5C12 25.9642 12.1844 26.4093 12.5126 26.7375C12.8408 27.0656 13.2859 27.25 13.75 27.25C14.2141 27.25 14.6592 27.0656 14.9874 26.7375C15.3156 26.4093 15.5 25.9642 15.5 25.5V25.294C15.5001 25.2555 15.4927 25.2173 15.478 25.1816C15.4633 25.1459 15.4418 25.1135 15.4145 25.0862C15.3873 25.0589 15.355 25.0372 15.3194 25.0224C15.2837 25.0076 15.2456 25 15.207 25H12.293ZM17.5 25.294C17.5 25.131 17.631 25 17.793 25H20.706C20.869 25 21 25.131 21 25.294V25.5C21 25.9642 20.8156 26.4093 20.4874 26.7375C20.1592 27.0656 19.7141 27.25 19.25 27.25C18.7859 27.25 18.3408 27.0656 18.0126 26.7375C17.6844 26.4093 17.5 25.9642 17.5 25.5V25.294Z" fill="white"></path>
          </svg>