<svg xmlns="http://www.w3.org/2000/svg" width="40" height="40" viewBox="0 0 40 40" fill="none">
<path d="M30.0001 8.33329H31.6668V9.99996C31.6668 10.442 31.8424 10.8659 32.1549 11.1785C32.4675 11.491 32.8914 11.6666 33.3334 11.6666C33.7755 11.6666 34.1994 11.491 34.5119 11.1785C34.8245 10.8659 35.0001 10.442 35.0001 9.99996V8.33329H36.6668C37.1088 8.33329 37.5327 8.15769 37.8453 7.84513C38.1578 7.53257 38.3334 7.10865 38.3334 6.66662C38.3334 6.2246 38.1578 5.80067 37.8453 5.48811C37.5327 5.17555 37.1088 4.99996 36.6668 4.99996H35.0001V3.33329C35.0001 2.89126 34.8245 2.46734 34.5119 2.15478C34.1994 1.84222 33.7755 1.66662 33.3334 1.66662C32.8914 1.66662 32.4675 1.84222 32.1549 2.15478C31.8424 2.46734 31.6668 2.89126 31.6668 3.33329V4.99996H30.0001C29.5581 4.99996 29.1341 5.17555 28.8216 5.48811C28.509 5.80067 28.3334 6.2246 28.3334 6.66662C28.3334 7.10865 28.509 7.53257 28.8216 7.84513C29.1341 8.15769 29.5581 8.33329 30.0001 8.33329ZM11.6668 11.6666V28.3333C11.6668 28.7753 11.8424 29.1992 12.1549 29.5118C12.4675 29.8244 12.8914 30 13.3334 30C13.7754 30 14.1994 29.8244 14.5119 29.5118C14.8245 29.1992 15.0001 28.7753 15.0001 28.3333V11.6666C15.0001 11.2246 14.8245 10.8007 14.5119 10.4881C14.1994 10.1756 13.7754 9.99996 13.3334 9.99996C12.8914 9.99996 12.4675 10.1756 12.1549 10.4881C11.8424 10.8007 11.6668 11.2246 11.6668 11.6666ZM36.0001 15C35.7856 15.0437 35.5818 15.1293 35.4003 15.2518C35.2189 15.3743 35.0634 15.5313 34.9427 15.714C34.8219 15.8966 34.7384 16.1012 34.6968 16.3162C34.6551 16.5311 34.6563 16.7521 34.7001 16.9666C35.3508 20.127 34.9651 23.4129 33.6003 26.3367C32.2354 29.2604 29.9642 31.6662 27.1236 33.1967C24.2831 34.7273 21.0248 35.3012 17.8323 34.8331C14.6398 34.365 11.6833 32.8799 9.4017 30.5983C7.12012 28.3168 5.63506 25.3603 5.16698 22.1678C4.69889 18.9753 5.27273 15.7169 6.80331 12.8764C8.33389 10.0359 10.7396 7.76462 13.6634 6.39976C16.5871 5.03491 19.8731 4.64922 23.0334 5.29996C23.4754 5.38836 23.9345 5.29755 24.3096 5.0475C24.6846 4.79746 24.945 4.40865 25.0334 3.96662C25.1218 3.5246 25.031 3.06555 24.781 2.69048C24.5309 2.31541 24.1421 2.05503 23.7001 1.96662C22.4804 1.73937 21.2405 1.63884 20.0001 1.66662C16.3741 1.66662 12.8295 2.74185 9.81464 4.75635C6.79973 6.77084 4.4499 9.63411 3.0623 12.9841C1.67469 16.3341 1.31163 20.0203 2.01903 23.5766C2.72642 27.1329 4.4725 30.3996 7.03647 32.9636C9.60043 35.5275 12.8671 37.2736 16.4234 37.981C19.9798 38.6884 23.666 38.3254 27.016 36.9377C30.3659 35.5501 33.2292 33.2003 35.2437 30.1854C37.2582 27.1705 38.3334 23.6259 38.3334 20C38.337 18.7684 38.2141 17.5398 37.9668 16.3333C37.9268 16.1158 37.844 15.9084 37.7232 15.7232C37.6023 15.538 37.4458 15.3787 37.2627 15.2546C37.0797 15.1305 36.8738 15.0441 36.657 15.0004C36.4402 14.9567 36.2169 14.9565 36.0001 15ZM18.3334 15V16.6666C18.3408 17.9 18.8038 19.0872 19.6334 20C18.8038 20.9127 18.3408 22.0999 18.3334 23.3333V25C18.3334 26.326 18.8602 27.5978 19.7979 28.5355C20.7356 29.4732 22.0073 30 23.3334 30H25.0001C26.3262 30 27.5979 29.4732 28.5356 28.5355C29.4733 27.5978 30.0001 26.326 30.0001 25V23.3333C29.9927 22.0999 29.5297 20.9127 28.7001 20C29.5297 19.0872 29.9927 17.9 30.0001 16.6666V15C30.0001 13.6739 29.4733 12.4021 28.5356 11.4644C27.5979 10.5267 26.3262 9.99996 25.0001 9.99996H23.3334C22.0073 9.99996 20.7356 10.5267 19.7979 11.4644C18.8602 12.4021 18.3334 13.6739 18.3334 15ZM26.6668 25C26.6668 25.442 26.4912 25.8659 26.1786 26.1785C25.866 26.491 25.4421 26.6666 25.0001 26.6666H23.3334C22.8914 26.6666 22.4675 26.491 22.1549 26.1785C21.8424 25.8659 21.6668 25.442 21.6668 25V23.3333C21.6668 22.8913 21.8424 22.4673 22.1549 22.1548C22.4675 21.8422 22.8914 21.6666 23.3334 21.6666H25.0001C25.4421 21.6666 25.866 21.8422 26.1786 22.1548C26.4912 22.4673 26.6668 22.8913 26.6668 23.3333V25ZM26.6668 15V16.6666C26.6668 17.1087 26.4912 17.5326 26.1786 17.8451C25.866 18.1577 25.4421 18.3333 25.0001 18.3333H23.3334C22.8914 18.3333 22.4675 18.1577 22.1549 17.8451C21.8424 17.5326 21.6668 17.1087 21.6668 16.6666V15C21.6668 14.5579 21.8424 14.134 22.1549 13.8214C22.4675 13.5089 22.8914 13.3333 23.3334 13.3333H25.0001C25.4421 13.3333 25.866 13.5089 26.1786 13.8214C26.4912 14.134 26.6668 14.5579 26.6668 15Z" fill="#C4C9DA"/>
</svg>