<svg width="97" height="22" viewBox="0 0 97 22" fill="none" xmlns="http://www.w3.org/2000/svg">
          <path fill-rule="evenodd" clip-rule="evenodd" d="M20.5071 13.721C19.1679 19.6134 13.7258 23.2004 8.35197 21.7307C2.98004 20.261 -0.28975 14.2927 1.05039 8.40034C2.38958 2.50693 7.83165 -1.08005 13.2036 0.389664C18.5774 1.85938 21.8472 7.82763 20.5071 13.721Z" fill="#F7931A"></path>
          <path fill-rule="evenodd" clip-rule="evenodd" d="M15.2004 9.49269C15.4004 8.03026 14.3844 7.24239 12.995 6.71749L13.4461 4.73535L12.3448 4.43496L11.906 6.36409C11.6169 6.2851 11.3203 6.2113 11.0246 6.1375L11.4672 4.19382L10.3668 3.89343L9.9157 5.87557C9.67592 5.81529 9.44182 5.75708 9.21341 5.69472L9.21436 5.68848L7.69699 5.27168L7.40413 6.56158C7.40413 6.56158 8.22015 6.76634 8.20309 6.77985C8.64854 6.90146 8.73005 7.22472 8.71583 7.48145L8.20309 9.74007C8.23342 9.74839 8.27323 9.76086 8.31682 9.78061C8.27986 9.77022 8.241 9.75878 8.2012 9.74839L7.4809 12.9134C7.42687 13.061 7.2885 13.2844 6.97669 13.1992C6.98711 13.2169 6.17677 12.9799 6.17677 12.9799L5.63086 14.3623L7.06293 14.7531C7.32925 14.8269 7.58989 14.9038 7.84768 14.9755L7.39181 16.9806L8.49121 17.282L8.94235 15.2978C9.24279 15.3871 9.53375 15.4693 9.81903 15.5472L9.36979 17.5221L10.4701 17.8235L10.9251 15.8216C12.8016 16.2104 14.2129 16.0534 14.8071 14.1918C15.2857 12.693 14.7834 11.8293 13.7959 11.2649C14.5152 11.083 15.0564 10.5654 15.2004 9.49269ZM12.686 13.3593C12.3458 14.8581 10.0455 14.0484 9.29966 13.8457L9.90338 11.189C10.6502 11.3927 13.0424 11.7971 12.686 13.3593ZM13.0272 9.47191C12.7163 10.8356 10.8019 10.1423 10.1801 9.97186L10.7279 7.56252C11.3497 7.73195 13.3504 8.05 13.0272 9.47191Z" fill="white"></path>
          <path fill-rule="evenodd" clip-rule="evenodd" d="M30.142 6.71541C30.9552 6.71541 31.6584 6.87548 32.2489 7.18938C32.8422 7.5064 33.3322 7.93359 33.7245 8.46992C34.1122 9.01041 34.4003 9.64029 34.5861 10.3637C34.7718 11.0882 34.8638 11.8677 34.8638 12.7024C34.8638 13.984 34.6496 15.1938 34.2174 16.3361C33.7861 17.4784 33.1995 18.469 32.4536 19.3161C31.7077 20.1601 30.8282 20.8253 29.8131 21.318C28.8 21.8096 27.6977 22.056 26.5149 22.056C26.3614 22.056 26.0931 22.0518 25.7131 22.0424C25.333 22.0341 24.8961 21.9905 24.408 21.9188C23.9152 21.8439 23.3949 21.7317 22.8461 21.583C22.2964 21.4365 21.7751 21.2307 21.2842 20.9698L25.6761 0.732608L29.6093 0.0632324L28.037 7.24551C28.3735 7.0792 28.7128 6.95032 29.0511 6.85677C29.3895 6.76426 29.7534 6.71541 30.142 6.71541ZM26.8428 18.6332C27.4352 18.6332 27.9934 18.4742 28.5175 18.1603C29.0435 17.8453 29.4975 17.4213 29.8776 16.8932C30.2576 16.3631 30.5581 15.7645 30.7779 15.0972C30.9978 14.4288 31.1087 13.7324 31.1087 13.0069C31.1087 12.1172 30.9732 11.4218 30.7021 10.9198C30.432 10.4198 29.9316 10.1683 29.2046 10.1683C28.9658 10.1683 28.6597 10.2182 28.2787 10.3065C27.8967 10.4022 27.5555 10.5976 27.2494 10.8928L25.5747 18.5199C25.6761 18.5397 25.7652 18.5573 25.841 18.576C25.9159 18.5947 25.9984 18.6083 26.0799 18.6176C26.1671 18.628 26.2666 18.6332 26.386 18.6332C26.5073 18.6332 26.6571 18.6332 26.8428 18.6332Z" fill="white"></path>
          <path fill-rule="evenodd" clip-rule="evenodd" d="M38.9434 21.6683H35.1855L38.3587 7.02619H42.1412L38.9434 21.6683ZM40.7707 5.24258C40.2466 5.24258 39.7718 5.07108 39.3491 4.72807C38.9245 4.38715 38.7141 3.86225 38.7141 3.15442C38.7141 2.76568 38.7861 2.40085 38.9283 2.05577C39.0733 1.71173 39.2628 1.41654 39.5007 1.165C39.7386 0.915544 40.0125 0.715978 40.3253 0.565265C40.639 0.41767 40.9735 0.343872 41.329 0.343872C41.8531 0.343872 42.326 0.515374 42.7497 0.858376C43.1714 1.20346 43.3837 1.72732 43.3837 2.43203C43.3837 2.82181 43.3126 3.18768 43.1676 3.53172C43.0245 3.87576 42.835 4.17199 42.598 4.42353C42.362 4.67402 42.0853 4.87151 41.7735 5.02014C41.4588 5.17086 41.1261 5.24258 40.7707 5.24258Z" fill="white"></path>
          <path fill-rule="evenodd" clip-rule="evenodd" d="M45.4339 3.37793L49.369 2.70959L48.4033 7.02519H52.617L51.8569 10.4209H47.6678L46.5523 15.5431C46.449 15.9693 46.3912 16.3684 46.3741 16.7395C46.3561 17.1116 46.3987 17.4307 46.5002 17.6999C46.6016 17.9701 46.7826 18.178 47.0461 18.3245C47.3086 18.4753 47.683 18.5501 48.1758 18.5501C48.5805 18.5501 48.9757 18.5075 49.3577 18.4233C49.7368 18.3412 50.1216 18.2268 50.5111 18.0761L50.7907 21.2515C50.2836 21.4552 49.733 21.6309 49.1406 21.7785C48.5473 21.9282 47.845 22.0009 47.0337 22.0009C45.8661 22.0009 44.9619 21.8107 44.3165 21.4324C43.673 21.0509 43.2171 20.5302 42.9451 19.8701C42.6769 19.2143 42.5565 18.4565 42.5906 17.6032C42.6247 16.7488 42.7423 15.8497 42.9451 14.9028L45.4339 3.37793Z" fill="white"></path>
          <path fill-rule="evenodd" clip-rule="evenodd" d="M52.4521 15.8217C52.4521 14.5609 52.6389 13.3708 53.0104 12.2576C53.3819 11.1433 53.9164 10.1684 54.6112 9.33269C55.3021 8.50013 56.1456 7.84115 57.1379 7.35679C58.1245 6.87554 59.2306 6.63232 60.4484 6.63232C61.2114 6.63232 61.8928 6.71236 62.4918 6.87035C63.0936 7.03042 63.6377 7.23622 64.1296 7.49607L62.834 10.7276C62.4956 10.5769 62.144 10.4438 61.781 10.3232C61.418 10.2016 60.9735 10.1413 60.4484 10.1413C59.1945 10.1413 58.2032 10.6164 57.4658 11.5612C56.7304 12.506 56.3607 13.7793 56.3607 15.3758C56.3607 16.3227 56.5465 17.0877 56.9209 17.6729C57.2924 18.258 57.9795 18.5491 58.9756 18.5491C59.4675 18.5491 59.9423 18.493 60.3973 18.3828C60.856 18.2716 61.2607 18.1312 61.617 17.966L61.8976 21.2786C61.4227 21.4802 60.8986 21.6631 60.3233 21.8222C59.7471 21.977 59.0619 22.0571 58.2667 22.0571C57.2166 22.0571 56.3285 21.8887 55.6016 21.5571C54.8737 21.2203 54.2728 20.7734 53.7999 20.2059C53.3241 19.6384 52.9819 18.9752 52.7706 18.2144C52.5602 17.4546 52.4521 16.6553 52.4521 15.8217Z" fill="white"></path>
          <path fill-rule="evenodd" clip-rule="evenodd" d="M69.1424 22.0571C68.2458 22.0571 67.4667 21.9074 66.8061 21.6112C66.1465 21.3139 65.6015 20.8981 65.1703 20.3576C64.7372 19.8203 64.414 19.1852 64.1931 18.4514C63.9704 17.7186 63.8643 16.9068 63.8643 16.0181C63.8643 14.9018 64.0273 13.7876 64.358 12.6754C64.686 11.5612 65.1741 10.5602 65.8185 9.66946C66.4583 8.77869 67.2487 8.05007 68.1775 7.48152C69.1063 6.91712 70.1745 6.63232 71.3753 6.63232C72.2548 6.63232 73.0301 6.78304 73.7002 7.08031C74.3664 7.37654 74.9152 7.79542 75.3493 8.33279C75.7796 8.87224 76.1056 9.50627 76.3245 10.2401C76.5463 10.9708 76.6553 11.7846 76.6553 12.6754C76.6553 13.7876 76.4942 14.9018 76.1738 16.0171C75.8544 17.1272 75.3796 18.1312 74.7522 19.023C74.1267 19.9128 73.3438 20.6414 72.4046 21.2068C71.4663 21.7733 70.3782 22.0571 69.1424 22.0571ZM71.0199 10.1424C70.4635 10.1424 69.9707 10.3191 69.549 10.6704C69.1263 11.0248 68.7708 11.4697 68.4837 12.0071C68.1946 12.5465 67.9804 13.1359 67.8344 13.7751C67.6904 14.4154 67.6203 15.0224 67.6203 15.5982C67.6203 16.5274 67.7577 17.2498 68.0259 17.7716C68.2979 18.2892 68.787 18.5501 69.4987 18.5501C70.0579 18.5501 70.547 18.3745 70.9716 18.02C71.3914 17.6687 71.7478 17.2228 72.0359 16.6844C72.324 16.147 72.5401 15.5566 72.6861 14.9164C72.8282 14.2771 72.9003 13.668 72.9003 13.0933C72.9003 12.1661 72.7647 11.4416 72.4937 10.9209C72.2217 10.4033 71.7307 10.1424 71.0199 10.1424Z" fill="white"></path>
          <path fill-rule="evenodd" clip-rule="evenodd" d="M80.749 21.6683H76.9883L80.1614 7.02619H83.9458L80.749 21.6683ZM82.5744 5.24258C82.0503 5.24258 81.5755 5.07108 81.1537 4.72807C80.731 4.38715 80.5187 3.86225 80.5187 3.15442C80.5187 2.76568 80.5907 2.40085 80.7348 2.05577C80.8779 1.71173 81.0684 1.41654 81.3063 1.165C81.5423 0.915544 81.82 0.715978 82.1309 0.565265C82.4436 0.41767 82.7772 0.343872 83.1326 0.343872C83.6577 0.343872 84.1316 0.515374 84.5543 0.858376C84.977 1.20346 85.1912 1.72732 85.1912 2.43203C85.1912 2.82181 85.1154 3.18768 84.9732 3.53172C84.831 3.87576 84.6405 4.17199 84.4036 4.42353C84.1648 4.67402 83.8918 4.87151 83.579 5.02014C83.2644 5.17086 82.9317 5.24258 82.5744 5.24258Z" fill="white"></path>
          <path fill-rule="evenodd" clip-rule="evenodd" d="M86.6547 7.69254C86.939 7.60003 87.2574 7.4909 87.6043 7.37032C87.9521 7.25183 88.3407 7.13958 88.7739 7.03979C89.2032 6.93585 89.6875 6.8527 90.2201 6.78722C90.7528 6.7207 91.3584 6.68848 92.0332 6.68848C94.015 6.68848 95.3807 7.32147 96.1352 8.58331C96.8877 9.84618 97.0185 11.5726 96.5294 13.7616L94.8016 21.6673H91.0201L92.6948 13.9269C92.7971 13.4446 92.8767 12.9769 92.9364 12.5206C92.9962 12.0684 92.9924 11.6693 92.9222 11.3242C92.8559 10.9833 92.6986 10.7047 92.455 10.4885C92.2067 10.2755 91.8323 10.1684 91.3243 10.1684C90.8343 10.1684 90.3358 10.2256 89.8268 10.3378L87.3645 21.6673H83.5811L86.6547 7.69254Z" fill="white"></path>
        </svg>