<svg xmlns="http://www.w3.org/2000/svg" width="20" height="20" viewBox="0 0 20 20" fill="none">
<g clip-path="url(#clip0_49_2875)">
<path d="M9.08002 12.5887L7.22289 10.3154L5.43384 12.5263L7.29112 14.8241L9.08002 12.5887Z" fill="#3267F6"/>
<path d="M9.08002 12.5887L7.22289 10.3154L5.43384 12.5263L7.29112 14.8241L9.08002 12.5887Z" fill="#3267F6"/>
<path d="M9.08002 12.5887L7.22289 10.3154L5.43384 12.5263L7.29112 14.8241L9.08002 12.5887Z" fill="#3267F6"/>
<path d="M9.08002 12.5887L7.22289 10.3154L5.43384 12.5263L7.29112 14.8241L9.08002 12.5887Z" fill="#3267F6"/>
<path d="M9.08002 12.5887L7.22289 10.3154L5.43384 12.5263L7.29112 14.8241L9.08002 12.5887Z" fill="#3267F6"/>
<path d="M15.0304 3.05628C15.0304 2.80928 14.8294 2.60831 14.5824 2.60831H5.41962C5.17261 2.60831 4.97168 2.80928 4.97168 3.05628V3.97729H11.9531C12.7831 3.97729 13.4584 4.65257 13.4584 5.48264V17.5923H14.5824C14.8294 17.5923 15.0303 17.3914 15.0303 17.1444V15.7484C15.0292 15.7336 15.0281 15.7189 15.0281 15.7038C15.0281 15.6888 15.0292 15.674 15.0303 15.6592V3.05628H15.0304Z" fill="#3267F6"/>
<path d="M15.0304 3.05628C15.0304 2.80928 14.8294 2.60831 14.5824 2.60831H5.41962C5.17261 2.60831 4.97168 2.80928 4.97168 3.05628V3.97729H11.9531C12.7831 3.97729 13.4584 4.65257 13.4584 5.48264V17.5923H14.5824C14.8294 17.5923 15.0303 17.3914 15.0303 17.1444V15.7484C15.0292 15.7336 15.0281 15.7189 15.0281 15.7038C15.0281 15.6888 15.0292 15.674 15.0303 15.6592V3.05628H15.0304Z" fill="#3267F6"/>
<path d="M15.0304 3.05628C15.0304 2.80928 14.8294 2.60831 14.5824 2.60831H5.41962C5.17261 2.60831 4.97168 2.80928 4.97168 3.05628V3.97729H11.9531C12.7831 3.97729 13.4584 4.65257 13.4584 5.48264V17.5923H14.5824C14.8294 17.5923 15.0303 17.3914 15.0303 17.1444V15.7484C15.0292 15.7336 15.0281 15.7189 15.0281 15.7038C15.0281 15.6888 15.0292 15.674 15.0303 15.6592V3.05628H15.0304Z" fill="#3267F6"/>
<path d="M15.0304 3.05628C15.0304 2.80928 14.8294 2.60831 14.5824 2.60831H5.41962C5.17261 2.60831 4.97168 2.80928 4.97168 3.05628V3.97729H11.9531C12.7831 3.97729 13.4584 4.65257 13.4584 5.48264V17.5923H14.5824C14.8294 17.5923 15.0303 17.3914 15.0303 17.1444V15.7484C15.0292 15.7336 15.0281 15.7189 15.0281 15.7038C15.0281 15.6888 15.0292 15.674 15.0303 15.6592V3.05628H15.0304Z" fill="#3267F6"/>
<path d="M15.0304 3.05628C15.0304 2.80928 14.8294 2.60831 14.5824 2.60831H5.41962C5.17261 2.60831 4.97168 2.80928 4.97168 3.05628V3.97729H11.9531C12.7831 3.97729 13.4584 4.65257 13.4584 5.48264V17.5923H14.5824C14.8294 17.5923 15.0303 17.3914 15.0303 17.1444V15.7484C15.0292 15.7336 15.0281 15.7189 15.0281 15.7038C15.0281 15.6888 15.0292 15.674 15.0303 15.6592V3.05628H15.0304Z" fill="#3267F6"/>
<path d="M17.3246 15.1177C17.5716 15.1177 17.7726 14.9167 17.7726 14.6697V0.447938C17.7726 0.200972 17.5716 0 17.3246 0H8.16181C7.9148 0 7.71387 0.200972 7.71387 0.447938V1.436H14.5826C15.4761 1.436 16.2029 2.16286 16.2029 3.05628V15.1177H17.3246Z" fill="#3267F6"/>
<path d="M17.3246 15.1177C17.5716 15.1177 17.7726 14.9167 17.7726 14.6697V0.447938C17.7726 0.200972 17.5716 0 17.3246 0H8.16181C7.9148 0 7.71387 0.200972 7.71387 0.447938V1.436H14.5826C15.4761 1.436 16.2029 2.16286 16.2029 3.05628V15.1177H17.3246Z" fill="#3267F6"/>
<path d="M17.3246 15.1177C17.5716 15.1177 17.7726 14.9167 17.7726 14.6697V0.447938C17.7726 0.200972 17.5716 0 17.3246 0H8.16181C7.9148 0 7.71387 0.200972 7.71387 0.447938V1.436H14.5826C15.4761 1.436 16.2029 2.16286 16.2029 3.05628V15.1177H17.3246Z" fill="#3267F6"/>
<path d="M17.3246 15.1177C17.5716 15.1177 17.7726 14.9167 17.7726 14.6697V0.447938C17.7726 0.200972 17.5716 0 17.3246 0H8.16181C7.9148 0 7.71387 0.200972 7.71387 0.447938V1.436H14.5826C15.4761 1.436 16.2029 2.16286 16.2029 3.05628V15.1177H17.3246Z" fill="#3267F6"/>
<path d="M17.3246 15.1177C17.5716 15.1177 17.7726 14.9167 17.7726 14.6697V0.447938C17.7726 0.200972 17.5716 0 17.3246 0H8.16181C7.9148 0 7.71387 0.200972 7.71387 0.447938V1.436H14.5826C15.4761 1.436 16.2029 2.16286 16.2029 3.05628V15.1177H17.3246Z" fill="#3267F6"/>
<path d="M11.7798 20C12.0595 20 12.2863 19.7732 12.2863 19.4935V5.6561C12.2863 5.37639 12.0595 5.14963 11.7798 5.14963H2.73401C2.4543 5.14963 2.22754 5.37639 2.22754 5.6561V19.4936C2.22754 19.7733 2.4543 20 2.73401 20H11.7798V20ZM10.9572 18.0421C10.9572 18.4063 10.662 18.7015 10.2978 18.7015C9.93357 18.7015 9.63835 18.4063 9.63835 18.0421C9.63835 17.6779 9.93357 17.3826 10.2978 17.3826C10.662 17.3826 10.9572 17.6779 10.9572 18.0421ZM7.21941 8.80011H7.22078C7.3967 8.80011 7.56337 8.87912 7.67473 9.01542L10.2878 12.2141C10.4627 12.4281 10.4642 12.7353 10.2915 12.9511L7.75113 16.1257C7.64019 16.2643 7.47243 16.3452 7.29491 16.3456H7.29346C7.11644 16.3456 6.94892 16.2656 6.83759 16.1279L4.22417 12.8946C4.05036 12.6796 4.05043 12.3723 4.22437 12.1574L6.76514 9.01753C6.87612 8.88037 7.04298 8.8005 7.21941 8.80011ZM4.38732 6.5029C4.75151 6.5029 5.04674 6.79812 5.04674 7.16232C5.04674 7.52652 4.75151 7.82174 4.38732 7.82174C4.02312 7.82174 3.72789 7.52652 3.72789 7.16232C3.72789 6.79812 4.02312 6.5029 4.38732 6.5029Z" fill="#3267F6"/>
<path d="M11.7798 20C12.0595 20 12.2863 19.7732 12.2863 19.4935V5.6561C12.2863 5.37639 12.0595 5.14963 11.7798 5.14963H2.73401C2.4543 5.14963 2.22754 5.37639 2.22754 5.6561V19.4936C2.22754 19.7733 2.4543 20 2.73401 20H11.7798V20ZM10.9572 18.0421C10.9572 18.4063 10.662 18.7015 10.2978 18.7015C9.93357 18.7015 9.63835 18.4063 9.63835 18.0421C9.63835 17.6779 9.93357 17.3826 10.2978 17.3826C10.662 17.3826 10.9572 17.6779 10.9572 18.0421ZM7.21941 8.80011H7.22078C7.3967 8.80011 7.56337 8.87912 7.67473 9.01542L10.2878 12.2141C10.4627 12.4281 10.4642 12.7353 10.2915 12.9511L7.75113 16.1257C7.64019 16.2643 7.47243 16.3452 7.29491 16.3456H7.29346C7.11644 16.3456 6.94892 16.2656 6.83759 16.1279L4.22417 12.8946C4.05036 12.6796 4.05043 12.3723 4.22437 12.1574L6.76514 9.01753C6.87612 8.88037 7.04298 8.8005 7.21941 8.80011ZM4.38732 6.5029C4.75151 6.5029 5.04674 6.79812 5.04674 7.16232C5.04674 7.52652 4.75151 7.82174 4.38732 7.82174C4.02312 7.82174 3.72789 7.52652 3.72789 7.16232C3.72789 6.79812 4.02312 6.5029 4.38732 6.5029Z" fill="#3267F6"/>
<path d="M11.7798 20C12.0595 20 12.2863 19.7732 12.2863 19.4935V5.6561C12.2863 5.37639 12.0595 5.14963 11.7798 5.14963H2.73401C2.4543 5.14963 2.22754 5.37639 2.22754 5.6561V19.4936C2.22754 19.7733 2.4543 20 2.73401 20H11.7798V20ZM10.9572 18.0421C10.9572 18.4063 10.662 18.7015 10.2978 18.7015C9.93357 18.7015 9.63835 18.4063 9.63835 18.0421C9.63835 17.6779 9.93357 17.3826 10.2978 17.3826C10.662 17.3826 10.9572 17.6779 10.9572 18.0421ZM7.21941 8.80011H7.22078C7.3967 8.80011 7.56337 8.87912 7.67473 9.01542L10.2878 12.2141C10.4627 12.4281 10.4642 12.7353 10.2915 12.9511L7.75113 16.1257C7.64019 16.2643 7.47243 16.3452 7.29491 16.3456H7.29346C7.11644 16.3456 6.94892 16.2656 6.83759 16.1279L4.22417 12.8946C4.05036 12.6796 4.05043 12.3723 4.22437 12.1574L6.76514 9.01753C6.87612 8.88037 7.04298 8.8005 7.21941 8.80011ZM4.38732 6.5029C4.75151 6.5029 5.04674 6.79812 5.04674 7.16232C5.04674 7.52652 4.75151 7.82174 4.38732 7.82174C4.02312 7.82174 3.72789 7.52652 3.72789 7.16232C3.72789 6.79812 4.02312 6.5029 4.38732 6.5029Z" fill="#3267F6"/>
<path d="M11.7798 20C12.0595 20 12.2863 19.7732 12.2863 19.4935V5.6561C12.2863 5.37639 12.0595 5.14963 11.7798 5.14963H2.73401C2.4543 5.14963 2.22754 5.37639 2.22754 5.6561V19.4936C2.22754 19.7733 2.4543 20 2.73401 20H11.7798V20ZM10.9572 18.0421C10.9572 18.4063 10.662 18.7015 10.2978 18.7015C9.93357 18.7015 9.63835 18.4063 9.63835 18.0421C9.63835 17.6779 9.93357 17.3826 10.2978 17.3826C10.662 17.3826 10.9572 17.6779 10.9572 18.0421ZM7.21941 8.80011H7.22078C7.3967 8.80011 7.56337 8.87912 7.67473 9.01542L10.2878 12.2141C10.4627 12.4281 10.4642 12.7353 10.2915 12.9511L7.75113 16.1257C7.64019 16.2643 7.47243 16.3452 7.29491 16.3456H7.29346C7.11644 16.3456 6.94892 16.2656 6.83759 16.1279L4.22417 12.8946C4.05036 12.6796 4.05043 12.3723 4.22437 12.1574L6.76514 9.01753C6.87612 8.88037 7.04298 8.8005 7.21941 8.80011ZM4.38732 6.5029C4.75151 6.5029 5.04674 6.79812 5.04674 7.16232C5.04674 7.52652 4.75151 7.82174 4.38732 7.82174C4.02312 7.82174 3.72789 7.52652 3.72789 7.16232C3.72789 6.79812 4.02312 6.5029 4.38732 6.5029Z" fill="#3267F6"/>
<path d="M11.7798 20C12.0595 20 12.2863 19.7732 12.2863 19.4935V5.6561C12.2863 5.37639 12.0595 5.14963 11.7798 5.14963H2.73401C2.4543 5.14963 2.22754 5.37639 2.22754 5.6561V19.4936C2.22754 19.7733 2.4543 20 2.73401 20H11.7798V20ZM10.9572 18.0421C10.9572 18.4063 10.662 18.7015 10.2978 18.7015C9.93357 18.7015 9.63835 18.4063 9.63835 18.0421C9.63835 17.6779 9.93357 17.3826 10.2978 17.3826C10.662 17.3826 10.9572 17.6779 10.9572 18.0421ZM7.21941 8.80011H7.22078C7.3967 8.80011 7.56337 8.87912 7.67473 9.01542L10.2878 12.2141C10.4627 12.4281 10.4642 12.7353 10.2915 12.9511L7.75113 16.1257C7.64019 16.2643 7.47243 16.3452 7.29491 16.3456H7.29346C7.11644 16.3456 6.94892 16.2656 6.83759 16.1279L4.22417 12.8946C4.05036 12.6796 4.05043 12.3723 4.22437 12.1574L6.76514 9.01753C6.87612 8.88037 7.04298 8.8005 7.21941 8.80011ZM4.38732 6.5029C4.75151 6.5029 5.04674 6.79812 5.04674 7.16232C5.04674 7.52652 4.75151 7.82174 4.38732 7.82174C4.02312 7.82174 3.72789 7.52652 3.72789 7.16232C3.72789 6.79812 4.02312 6.5029 4.38732 6.5029Z" fill="#3267F6"/>
</g>
<defs>
<clipPath id="clip0_49_2875">
<rect width="20" height="20" fill="white"/>
</clipPath>
</defs>
</svg>