<svg xmlns="http://www.w3.org/2000/svg" width="20" height="20" viewBox="0 0 20 20" fill="none">
<g clip-path="url(#clip0_49_3150)">
<path d="M2.83273 6.26176L2.11953 4.67059C2.07105 4.56242 1.98449 4.4759 1.87633 4.42738L0.285195 3.71418C-0.0953906 3.54359 -0.0953906 3.00332 0.285195 2.83273L1.87637 2.11953C1.98453 2.07105 2.07105 1.98449 2.11957 1.87633L2.83273 0.285195C3.00332 -0.0953906 3.54359 -0.0953906 3.71418 0.285195L4.42738 1.87637C4.47586 1.98453 4.56242 2.07105 4.67059 2.11957L6.26176 2.83277C6.64234 3.00336 6.64234 3.54363 6.26176 3.71422L4.67059 4.42742C4.56242 4.4759 4.4759 4.56246 4.42738 4.67062L3.71418 6.2618C3.54363 6.6423 3.00332 6.6423 2.83273 6.26176Z" fill="#3267F6"/>
<path d="M2.83273 6.26176L2.11953 4.67059C2.07105 4.56242 1.98449 4.4759 1.87633 4.42738L0.285195 3.71418C-0.0953906 3.54359 -0.0953906 3.00332 0.285195 2.83273L1.87637 2.11953C1.98453 2.07105 2.07105 1.98449 2.11957 1.87633L2.83273 0.285195C3.00332 -0.0953906 3.54359 -0.0953906 3.71418 0.285195L4.42738 1.87637C4.47586 1.98453 4.56242 2.07105 4.67059 2.11957L6.26176 2.83277C6.64234 3.00336 6.64234 3.54363 6.26176 3.71422L4.67059 4.42742C4.56242 4.4759 4.4759 4.56246 4.42738 4.67062L3.71418 6.2618C3.54363 6.6423 3.00332 6.6423 2.83273 6.26176Z" fill="#3267F6"/>
<path d="M2.83273 6.26176L2.11953 4.67059C2.07105 4.56242 1.98449 4.4759 1.87633 4.42738L0.285195 3.71418C-0.0953906 3.54359 -0.0953906 3.00332 0.285195 2.83273L1.87637 2.11953C1.98453 2.07105 2.07105 1.98449 2.11957 1.87633L2.83273 0.285195C3.00332 -0.0953906 3.54359 -0.0953906 3.71418 0.285195L4.42738 1.87637C4.47586 1.98453 4.56242 2.07105 4.67059 2.11957L6.26176 2.83277C6.64234 3.00336 6.64234 3.54363 6.26176 3.71422L4.67059 4.42742C4.56242 4.4759 4.4759 4.56246 4.42738 4.67062L3.71418 6.2618C3.54363 6.6423 3.00332 6.6423 2.83273 6.26176Z" fill="#3267F6"/>
<path d="M2.83273 6.26176L2.11953 4.67059C2.07105 4.56242 1.98449 4.4759 1.87633 4.42738L0.285195 3.71418C-0.0953906 3.54359 -0.0953906 3.00332 0.285195 2.83273L1.87637 2.11953C1.98453 2.07105 2.07105 1.98449 2.11957 1.87633L2.83273 0.285195C3.00332 -0.0953906 3.54359 -0.0953906 3.71418 0.285195L4.42738 1.87637C4.47586 1.98453 4.56242 2.07105 4.67059 2.11957L6.26176 2.83277C6.64234 3.00336 6.64234 3.54363 6.26176 3.71422L4.67059 4.42742C4.56242 4.4759 4.4759 4.56246 4.42738 4.67062L3.71418 6.2618C3.54363 6.6423 3.00332 6.6423 2.83273 6.26176Z" fill="#3267F6"/>
<path d="M2.83273 6.26176L2.11953 4.67059C2.07105 4.56242 1.98449 4.4759 1.87633 4.42738L0.285195 3.71418C-0.0953906 3.54359 -0.0953906 3.00332 0.285195 2.83273L1.87637 2.11953C1.98453 2.07105 2.07105 1.98449 2.11957 1.87633L2.83273 0.285195C3.00332 -0.0953906 3.54359 -0.0953906 3.71418 0.285195L4.42738 1.87637C4.47586 1.98453 4.56242 2.07105 4.67059 2.11957L6.26176 2.83277C6.64234 3.00336 6.64234 3.54363 6.26176 3.71422L4.67059 4.42742C4.56242 4.4759 4.4759 4.56246 4.42738 4.67062L3.71418 6.2618C3.54363 6.6423 3.00332 6.6423 2.83273 6.26176Z" fill="#3267F6"/>
<path d="M16.2856 9.14329L15.5724 7.55212C15.5239 7.44395 15.4374 7.35743 15.3292 7.30895L13.7381 6.59575C13.3575 6.42516 13.3575 5.88489 13.7381 5.7143L15.3292 5.0011C15.4374 4.95262 15.5239 4.86606 15.5724 4.7579L16.2856 3.16673C16.4562 2.78614 16.9965 2.78614 17.1671 3.16673L17.8803 4.7579C17.9287 4.86606 18.0153 4.95259 18.1234 5.0011L19.7146 5.7143C20.0952 5.88489 20.0952 6.42516 19.7146 6.59575L18.1234 7.30895C18.0153 7.35743 17.9287 7.44399 17.8803 7.55212L17.1671 9.14329C16.9965 9.52387 16.4562 9.52387 16.2856 9.14329Z" fill="#3267F6"/>
<path d="M16.2856 9.14329L15.5724 7.55212C15.5239 7.44395 15.4374 7.35743 15.3292 7.30895L13.7381 6.59575C13.3575 6.42516 13.3575 5.88489 13.7381 5.7143L15.3292 5.0011C15.4374 4.95262 15.5239 4.86606 15.5724 4.7579L16.2856 3.16673C16.4562 2.78614 16.9965 2.78614 17.1671 3.16673L17.8803 4.7579C17.9287 4.86606 18.0153 4.95259 18.1234 5.0011L19.7146 5.7143C20.0952 5.88489 20.0952 6.42516 19.7146 6.59575L18.1234 7.30895C18.0153 7.35743 17.9287 7.44399 17.8803 7.55212L17.1671 9.14329C16.9965 9.52387 16.4562 9.52387 16.2856 9.14329Z" fill="#3267F6"/>
<path d="M16.2856 9.14329L15.5724 7.55212C15.5239 7.44395 15.4374 7.35743 15.3292 7.30895L13.7381 6.59575C13.3575 6.42516 13.3575 5.88489 13.7381 5.7143L15.3292 5.0011C15.4374 4.95262 15.5239 4.86606 15.5724 4.7579L16.2856 3.16673C16.4562 2.78614 16.9965 2.78614 17.1671 3.16673L17.8803 4.7579C17.9287 4.86606 18.0153 4.95259 18.1234 5.0011L19.7146 5.7143C20.0952 5.88489 20.0952 6.42516 19.7146 6.59575L18.1234 7.30895C18.0153 7.35743 17.9287 7.44399 17.8803 7.55212L17.1671 9.14329C16.9965 9.52387 16.4562 9.52387 16.2856 9.14329Z" fill="#3267F6"/>
<path d="M16.2856 9.14329L15.5724 7.55212C15.5239 7.44395 15.4374 7.35743 15.3292 7.30895L13.7381 6.59575C13.3575 6.42516 13.3575 5.88489 13.7381 5.7143L15.3292 5.0011C15.4374 4.95262 15.5239 4.86606 15.5724 4.7579L16.2856 3.16673C16.4562 2.78614 16.9965 2.78614 17.1671 3.16673L17.8803 4.7579C17.9287 4.86606 18.0153 4.95259 18.1234 5.0011L19.7146 5.7143C20.0952 5.88489 20.0952 6.42516 19.7146 6.59575L18.1234 7.30895C18.0153 7.35743 17.9287 7.44399 17.8803 7.55212L17.1671 9.14329C16.9965 9.52387 16.4562 9.52387 16.2856 9.14329Z" fill="#3267F6"/>
<path d="M16.2856 9.14329L15.5724 7.55212C15.5239 7.44395 15.4374 7.35743 15.3292 7.30895L13.7381 6.59575C13.3575 6.42516 13.3575 5.88489 13.7381 5.7143L15.3292 5.0011C15.4374 4.95262 15.5239 4.86606 15.5724 4.7579L16.2856 3.16673C16.4562 2.78614 16.9965 2.78614 17.1671 3.16673L17.8803 4.7579C17.9287 4.86606 18.0153 4.95259 18.1234 5.0011L19.7146 5.7143C20.0952 5.88489 20.0952 6.42516 19.7146 6.59575L18.1234 7.30895C18.0153 7.35743 17.9287 7.44399 17.8803 7.55212L17.1671 9.14329C16.9965 9.52387 16.4562 9.52387 16.2856 9.14329Z" fill="#3267F6"/>
<path d="M15.3922 12.0463H12.0682C11.8908 12.0463 11.7343 12.155 11.6832 12.3139L10.7918 15.0818C10.714 15.323 10.9073 15.5661 11.1768 15.5661H16.3094C16.5803 15.5661 16.7737 15.3208 16.6935 15.0789L15.7763 12.3111C15.7242 12.1536 15.5685 12.0463 15.3922 12.0463Z" fill="#3267F6"/>
<path d="M15.3922 12.0463H12.0682C11.8908 12.0463 11.7343 12.155 11.6832 12.3139L10.7918 15.0818C10.714 15.323 10.9073 15.5661 11.1768 15.5661H16.3094C16.5803 15.5661 16.7737 15.3208 16.6935 15.0789L15.7763 12.3111C15.7242 12.1536 15.5685 12.0463 15.3922 12.0463Z" fill="#3267F6"/>
<path d="M15.3922 12.0463H12.0682C11.8908 12.0463 11.7343 12.155 11.6832 12.3139L10.7918 15.0818C10.714 15.323 10.9073 15.5661 11.1768 15.5661H16.3094C16.5803 15.5661 16.7737 15.3208 16.6935 15.0789L15.7763 12.3111C15.7242 12.1536 15.5685 12.0463 15.3922 12.0463Z" fill="#3267F6"/>
<path d="M15.3922 12.0463H12.0682C11.8908 12.0463 11.7343 12.155 11.6832 12.3139L10.7918 15.0818C10.714 15.323 10.9073 15.5661 11.1768 15.5661H16.3094C16.5803 15.5661 16.7737 15.3208 16.6935 15.0789L15.7763 12.3111C15.7242 12.1536 15.5685 12.0463 15.3922 12.0463Z" fill="#3267F6"/>
<path d="M15.3922 12.0463H12.0682C11.8908 12.0463 11.7343 12.155 11.6832 12.3139L10.7918 15.0818C10.714 15.323 10.9073 15.5661 11.1768 15.5661H16.3094C16.5803 15.5661 16.7737 15.3208 16.6935 15.0789L15.7763 12.3111C15.7242 12.1536 15.5685 12.0463 15.3922 12.0463Z" fill="#3267F6"/>
<path d="M7.85606 12.0463H4.53188C4.35434 12.0463 4.19781 12.1552 4.14676 12.3141L3.25727 15.082C3.17973 15.3232 3.37293 15.5661 3.64238 15.5661H8.77793C9.04906 15.5661 9.2425 15.3204 9.16188 15.0784L8.24 12.3105C8.18766 12.1534 8.03207 12.0463 7.85606 12.0463Z" fill="#3267F6"/>
<path d="M7.85606 12.0463H4.53188C4.35434 12.0463 4.19781 12.1552 4.14676 12.3141L3.25727 15.082C3.17973 15.3232 3.37293 15.5661 3.64238 15.5661H8.77793C9.04906 15.5661 9.2425 15.3204 9.16188 15.0784L8.24 12.3105C8.18766 12.1534 8.03207 12.0463 7.85606 12.0463Z" fill="#3267F6"/>
<path d="M7.85606 12.0463H4.53188C4.35434 12.0463 4.19781 12.1552 4.14676 12.3141L3.25727 15.082C3.17973 15.3232 3.37293 15.5661 3.64238 15.5661H8.77793C9.04906 15.5661 9.2425 15.3204 9.16188 15.0784L8.24 12.3105C8.18766 12.1534 8.03207 12.0463 7.85606 12.0463Z" fill="#3267F6"/>
<path d="M7.85606 12.0463H4.53188C4.35434 12.0463 4.19781 12.1552 4.14676 12.3141L3.25727 15.082C3.17973 15.3232 3.37293 15.5661 3.64238 15.5661H8.77793C9.04906 15.5661 9.2425 15.3204 9.16188 15.0784L8.24 12.3105C8.18766 12.1534 8.03207 12.0463 7.85606 12.0463Z" fill="#3267F6"/>
<path d="M7.85606 12.0463H4.53188C4.35434 12.0463 4.19781 12.1552 4.14676 12.3141L3.25727 15.082C3.17973 15.3232 3.37293 15.5661 3.64238 15.5661H8.77793C9.04906 15.5661 9.2425 15.3204 9.16188 15.0784L8.24 12.3105C8.18766 12.1534 8.03207 12.0463 7.85606 12.0463Z" fill="#3267F6"/>
<path d="M7.91503 7.86062L7.02557 10.6285C6.94803 10.8697 7.14128 11.1126 7.41069 11.1126H12.5412C12.8121 11.1126 13.0055 10.8673 12.9253 10.6254L12.008 7.85754C11.9559 7.70015 11.8002 7.59285 11.6239 7.59285H8.30014C8.12261 7.59281 7.96612 7.70164 7.91503 7.86062Z" fill="#3267F6"/>
<path d="M7.91503 7.86062L7.02557 10.6285C6.94803 10.8697 7.14128 11.1126 7.41069 11.1126H12.5412C12.8121 11.1126 13.0055 10.8673 12.9253 10.6254L12.008 7.85754C11.9559 7.70015 11.8002 7.59285 11.6239 7.59285H8.30014C8.12261 7.59281 7.96612 7.70164 7.91503 7.86062Z" fill="#3267F6"/>
<path d="M7.91503 7.86062L7.02557 10.6285C6.94803 10.8697 7.14128 11.1126 7.41069 11.1126H12.5412C12.8121 11.1126 13.0055 10.8673 12.9253 10.6254L12.008 7.85754C11.9559 7.70015 11.8002 7.59285 11.6239 7.59285H8.30014C8.12261 7.59281 7.96612 7.70164 7.91503 7.86062Z" fill="#3267F6"/>
<path d="M7.91503 7.86062L7.02557 10.6285C6.94803 10.8697 7.14128 11.1126 7.41069 11.1126H12.5412C12.8121 11.1126 13.0055 10.8673 12.9253 10.6254L12.008 7.85754C11.9559 7.70015 11.8002 7.59285 11.6239 7.59285H8.30014C8.12261 7.59281 7.96612 7.70164 7.91503 7.86062Z" fill="#3267F6"/>
<path d="M7.91503 7.86062L7.02557 10.6285C6.94803 10.8697 7.14128 11.1126 7.41069 11.1126H12.5412C12.8121 11.1126 13.0055 10.8673 12.9253 10.6254L12.008 7.85754C11.9559 7.70015 11.8002 7.59285 11.6239 7.59285H8.30014C8.12261 7.59281 7.96612 7.70164 7.91503 7.86062Z" fill="#3267F6"/>
<path d="M18.6803 16.4802H15.3565C15.179 16.4802 15.0225 16.5891 14.9714 16.748L14.082 19.5159C14.0044 19.7571 14.1977 20 14.4671 20H19.5975C19.8684 20 20.0618 19.7547 19.9816 19.5128L19.0644 16.7449C19.0122 16.5875 18.8565 16.4802 18.6803 16.4802Z" fill="#3267F6"/>
<path d="M18.6803 16.4802H15.3565C15.179 16.4802 15.0225 16.5891 14.9714 16.748L14.082 19.5159C14.0044 19.7571 14.1977 20 14.4671 20H19.5975C19.8684 20 20.0618 19.7547 19.9816 19.5128L19.0644 16.7449C19.0122 16.5875 18.8565 16.4802 18.6803 16.4802Z" fill="#3267F6"/>
<path d="M18.6803 16.4802H15.3565C15.179 16.4802 15.0225 16.5891 14.9714 16.748L14.082 19.5159C14.0044 19.7571 14.1977 20 14.4671 20H19.5975C19.8684 20 20.0618 19.7547 19.9816 19.5128L19.0644 16.7449C19.0122 16.5875 18.8565 16.4802 18.6803 16.4802Z" fill="#3267F6"/>
<path d="M18.6803 16.4802H15.3565C15.179 16.4802 15.0225 16.5891 14.9714 16.748L14.082 19.5159C14.0044 19.7571 14.1977 20 14.4671 20H19.5975C19.8684 20 20.0618 19.7547 19.9816 19.5128L19.0644 16.7449C19.0122 16.5875 18.8565 16.4802 18.6803 16.4802Z" fill="#3267F6"/>
<path d="M18.6803 16.4802H15.3565C15.179 16.4802 15.0225 16.5891 14.9714 16.748L14.082 19.5159C14.0044 19.7571 14.1977 20 14.4671 20H19.5975C19.8684 20 20.0618 19.7547 19.9816 19.5128L19.0644 16.7449C19.0122 16.5875 18.8565 16.4802 18.6803 16.4802Z" fill="#3267F6"/>
<path d="M4.61559 16.4802H1.29184C1.1143 16.4802 0.957781 16.5891 0.906726 16.748L0.0172731 19.5159C-0.060266 19.7571 0.132976 20 0.40239 20H5.53282C5.80372 20 5.99712 19.7547 5.91692 19.5128L4.9997 16.7449C4.94755 16.5875 4.79184 16.4802 4.61559 16.4802Z" fill="#3267F6"/>
<path d="M4.61559 16.4802H1.29184C1.1143 16.4802 0.957781 16.5891 0.906726 16.748L0.0172731 19.5159C-0.060266 19.7571 0.132976 20 0.40239 20H5.53282C5.80372 20 5.99712 19.7547 5.91692 19.5128L4.9997 16.7449C4.94755 16.5875 4.79184 16.4802 4.61559 16.4802Z" fill="#3267F6"/>
<path d="M4.61559 16.4802H1.29184C1.1143 16.4802 0.957781 16.5891 0.906726 16.748L0.0172731 19.5159C-0.060266 19.7571 0.132976 20 0.40239 20H5.53282C5.80372 20 5.99712 19.7547 5.91692 19.5128L4.9997 16.7449C4.94755 16.5875 4.79184 16.4802 4.61559 16.4802Z" fill="#3267F6"/>
<path d="M4.61559 16.4802H1.29184C1.1143 16.4802 0.957781 16.5891 0.906726 16.748L0.0172731 19.5159C-0.060266 19.7571 0.132976 20 0.40239 20H5.53282C5.80372 20 5.99712 19.7547 5.91692 19.5128L4.9997 16.7449C4.94755 16.5875 4.79184 16.4802 4.61559 16.4802Z" fill="#3267F6"/>
<path d="M4.61559 16.4802H1.29184C1.1143 16.4802 0.957781 16.5891 0.906726 16.748L0.0172731 19.5159C-0.060266 19.7571 0.132976 20 0.40239 20H5.53282C5.80372 20 5.99712 19.7547 5.91692 19.5128L4.9997 16.7449C4.94755 16.5875 4.79184 16.4802 4.61559 16.4802Z" fill="#3267F6"/>
<path d="M11.6239 16.4802H8.29968C8.12237 16.4802 7.96597 16.5888 7.91472 16.7475L7.02061 19.5154C6.94264 19.7567 7.13589 20 7.40557 20H12.5412C12.8121 20 13.0055 19.7547 12.9253 19.5128L12.008 16.7449C11.9559 16.5875 11.8002 16.4802 11.6239 16.4802Z" fill="#3267F6"/>
<path d="M11.6239 16.4802H8.29968C8.12237 16.4802 7.96597 16.5888 7.91472 16.7475L7.02061 19.5154C6.94264 19.7567 7.13589 20 7.40557 20H12.5412C12.8121 20 13.0055 19.7547 12.9253 19.5128L12.008 16.7449C11.9559 16.5875 11.8002 16.4802 11.6239 16.4802Z" fill="#3267F6"/>
<path d="M11.6239 16.4802H8.29968C8.12237 16.4802 7.96597 16.5888 7.91472 16.7475L7.02061 19.5154C6.94264 19.7567 7.13589 20 7.40557 20H12.5412C12.8121 20 13.0055 19.7547 12.9253 19.5128L12.008 16.7449C11.9559 16.5875 11.8002 16.4802 11.6239 16.4802Z" fill="#3267F6"/>
<path d="M11.6239 16.4802H8.29968C8.12237 16.4802 7.96597 16.5888 7.91472 16.7475L7.02061 19.5154C6.94264 19.7567 7.13589 20 7.40557 20H12.5412C12.8121 20 13.0055 19.7547 12.9253 19.5128L12.008 16.7449C11.9559 16.5875 11.8002 16.4802 11.6239 16.4802Z" fill="#3267F6"/>
<path d="M11.6239 16.4802H8.29968C8.12237 16.4802 7.96597 16.5888 7.91472 16.7475L7.02061 19.5154C6.94264 19.7567 7.13589 20 7.40557 20H12.5412C12.8121 20 13.0055 19.7547 12.9253 19.5128L12.008 16.7449C11.9559 16.5875 11.8002 16.4802 11.6239 16.4802Z" fill="#3267F6"/>
</g>
<defs>
<clipPath id="clip0_49_3150">
<rect width="20" height="20" fill="white"/>
</clipPath>
</defs>
</svg>