<svg xmlns="http://www.w3.org/2000/svg" width="24" height="24" viewBox="0 0 24 24" fill="none">
<g clip-path="url(#clip0_23_1211)">
<path d="M12 0C8.51048 0 5.67188 2.88548 5.67188 6.375C5.67188 9.86452 8.51048 12.7031 12 12.7031C15.4895 12.7031 18.3281 9.86452 18.3281 6.375C18.3281 2.88548 15.4895 0 12 0ZM11.2969 5.67188H12.7031C13.8663 5.67188 14.8125 6.61809 14.8125 7.78125C14.8125 8.94441 13.8663 9.89062 12.7031 9.89062V11.2969H11.2969V9.89062C10.1337 9.89062 9.1875 8.94441 9.1875 7.78125H10.5938C10.5938 8.16919 10.9089 8.48438 11.2969 8.48438H12.7031C13.0911 8.48438 13.4062 8.16919 13.4062 7.78125C13.4062 7.39331 13.0911 7.07812 12.7031 7.07812H11.2969C10.1337 7.07812 9.1875 6.13191 9.1875 4.96875C9.1875 3.80559 10.1337 2.85938 11.2969 2.85938V1.45312H12.7031V2.85938C13.8663 2.85938 14.8125 3.80559 14.8125 4.96875H13.4062C13.4062 4.58081 13.0911 4.26562 12.7031 4.26562H11.2969C10.9089 4.26562 10.5938 4.58081 10.5938 4.96875C10.5938 5.35669 10.9089 5.67188 11.2969 5.67188Z" fill="#3267F6"/>
<path d="M12 0C8.51048 0 5.67188 2.88548 5.67188 6.375C5.67188 9.86452 8.51048 12.7031 12 12.7031C15.4895 12.7031 18.3281 9.86452 18.3281 6.375C18.3281 2.88548 15.4895 0 12 0ZM11.2969 5.67188H12.7031C13.8663 5.67188 14.8125 6.61809 14.8125 7.78125C14.8125 8.94441 13.8663 9.89062 12.7031 9.89062V11.2969H11.2969V9.89062C10.1337 9.89062 9.1875 8.94441 9.1875 7.78125H10.5938C10.5938 8.16919 10.9089 8.48438 11.2969 8.48438H12.7031C13.0911 8.48438 13.4062 8.16919 13.4062 7.78125C13.4062 7.39331 13.0911 7.07812 12.7031 7.07812H11.2969C10.1337 7.07812 9.1875 6.13191 9.1875 4.96875C9.1875 3.80559 10.1337 2.85938 11.2969 2.85938V1.45312H12.7031V2.85938C13.8663 2.85938 14.8125 3.80559 14.8125 4.96875H13.4062C13.4062 4.58081 13.0911 4.26562 12.7031 4.26562H11.2969C10.9089 4.26562 10.5938 4.58081 10.5938 4.96875C10.5938 5.35669 10.9089 5.67188 11.2969 5.67188Z" fill="#3267F6"/>
<path d="M12 0C8.51048 0 5.67188 2.88548 5.67188 6.375C5.67188 9.86452 8.51048 12.7031 12 12.7031C15.4895 12.7031 18.3281 9.86452 18.3281 6.375C18.3281 2.88548 15.4895 0 12 0ZM11.2969 5.67188H12.7031C13.8663 5.67188 14.8125 6.61809 14.8125 7.78125C14.8125 8.94441 13.8663 9.89062 12.7031 9.89062V11.2969H11.2969V9.89062C10.1337 9.89062 9.1875 8.94441 9.1875 7.78125H10.5938C10.5938 8.16919 10.9089 8.48438 11.2969 8.48438H12.7031C13.0911 8.48438 13.4062 8.16919 13.4062 7.78125C13.4062 7.39331 13.0911 7.07812 12.7031 7.07812H11.2969C10.1337 7.07812 9.1875 6.13191 9.1875 4.96875C9.1875 3.80559 10.1337 2.85938 11.2969 2.85938V1.45312H12.7031V2.85938C13.8663 2.85938 14.8125 3.80559 14.8125 4.96875H13.4062C13.4062 4.58081 13.0911 4.26562 12.7031 4.26562H11.2969C10.9089 4.26562 10.5938 4.58081 10.5938 4.96875C10.5938 5.35669 10.9089 5.67188 11.2969 5.67188Z" fill="#3267F6"/>
<path d="M12 0C8.51048 0 5.67188 2.88548 5.67188 6.375C5.67188 9.86452 8.51048 12.7031 12 12.7031C15.4895 12.7031 18.3281 9.86452 18.3281 6.375C18.3281 2.88548 15.4895 0 12 0ZM11.2969 5.67188H12.7031C13.8663 5.67188 14.8125 6.61809 14.8125 7.78125C14.8125 8.94441 13.8663 9.89062 12.7031 9.89062V11.2969H11.2969V9.89062C10.1337 9.89062 9.1875 8.94441 9.1875 7.78125H10.5938C10.5938 8.16919 10.9089 8.48438 11.2969 8.48438H12.7031C13.0911 8.48438 13.4062 8.16919 13.4062 7.78125C13.4062 7.39331 13.0911 7.07812 12.7031 7.07812H11.2969C10.1337 7.07812 9.1875 6.13191 9.1875 4.96875C9.1875 3.80559 10.1337 2.85938 11.2969 2.85938V1.45312H12.7031V2.85938C13.8663 2.85938 14.8125 3.80559 14.8125 4.96875H13.4062C13.4062 4.58081 13.0911 4.26562 12.7031 4.26562H11.2969C10.9089 4.26562 10.5938 4.58081 10.5938 4.96875C10.5938 5.35669 10.9089 5.67188 11.2969 5.67188Z" fill="#3267F6"/>
<path d="M12 0C8.51048 0 5.67188 2.88548 5.67188 6.375C5.67188 9.86452 8.51048 12.7031 12 12.7031C15.4895 12.7031 18.3281 9.86452 18.3281 6.375C18.3281 2.88548 15.4895 0 12 0ZM11.2969 5.67188H12.7031C13.8663 5.67188 14.8125 6.61809 14.8125 7.78125C14.8125 8.94441 13.8663 9.89062 12.7031 9.89062V11.2969H11.2969V9.89062C10.1337 9.89062 9.1875 8.94441 9.1875 7.78125H10.5938C10.5938 8.16919 10.9089 8.48438 11.2969 8.48438H12.7031C13.0911 8.48438 13.4062 8.16919 13.4062 7.78125C13.4062 7.39331 13.0911 7.07812 12.7031 7.07812H11.2969C10.1337 7.07812 9.1875 6.13191 9.1875 4.96875C9.1875 3.80559 10.1337 2.85938 11.2969 2.85938V1.45312H12.7031V2.85938C13.8663 2.85938 14.8125 3.80559 14.8125 4.96875H13.4062C13.4062 4.58081 13.0911 4.26562 12.7031 4.26562H11.2969C10.9089 4.26562 10.5938 4.58081 10.5938 4.96875C10.5938 5.35669 10.9089 5.67188 11.2969 5.67188Z" fill="#3267F6"/>
<path d="M19.239 13.6534L22.1639 18.0407L24 16.9226L21.1399 12.7031L19.239 13.6534Z" fill="#3267F6"/>
<path d="M19.239 13.6534L22.1639 18.0407L24 16.9226L21.1399 12.7031L19.239 13.6534Z" fill="#3267F6"/>
<path d="M19.239 13.6534L22.1639 18.0407L24 16.9226L21.1399 12.7031L19.239 13.6534Z" fill="#3267F6"/>
<path d="M19.239 13.6534L22.1639 18.0407L24 16.9226L21.1399 12.7031L19.239 13.6534Z" fill="#3267F6"/>
<path d="M19.239 13.6534L22.1639 18.0407L24 16.9226L21.1399 12.7031L19.239 13.6534Z" fill="#3267F6"/>
<path d="M10.027 17.0435L10.4354 17.6073C10.9314 18.208 11.9182 18.9876 13.698 18.3432C14.4767 18.063 15.3405 17.8358 16.2668 17.6676L19.3292 19.8119L20.9708 18.7862L17.8794 14.1489C16.8108 14.4189 14.7171 14.9803 12.7024 15.714C11.1297 16.288 10.2041 16.9463 10.027 17.0435Z" fill="#3267F6"/>
<path d="M10.027 17.0435L10.4354 17.6073C10.9314 18.208 11.9182 18.9876 13.698 18.3432C14.4767 18.063 15.3405 17.8358 16.2668 17.6676L19.3292 19.8119L20.9708 18.7862L17.8794 14.1489C16.8108 14.4189 14.7171 14.9803 12.7024 15.714C11.1297 16.288 10.2041 16.9463 10.027 17.0435Z" fill="#3267F6"/>
<path d="M10.027 17.0435L10.4354 17.6073C10.9314 18.208 11.9182 18.9876 13.698 18.3432C14.4767 18.063 15.3405 17.8358 16.2668 17.6676L19.3292 19.8119L20.9708 18.7862L17.8794 14.1489C16.8108 14.4189 14.7171 14.9803 12.7024 15.714C11.1297 16.288 10.2041 16.9463 10.027 17.0435Z" fill="#3267F6"/>
<path d="M10.027 17.0435L10.4354 17.6073C10.9314 18.208 11.9182 18.9876 13.698 18.3432C14.4767 18.063 15.3405 17.8358 16.2668 17.6676L19.3292 19.8119L20.9708 18.7862L17.8794 14.1489C16.8108 14.4189 14.7171 14.9803 12.7024 15.714C11.1297 16.288 10.2041 16.9463 10.027 17.0435Z" fill="#3267F6"/>
<path d="M10.027 17.0435L10.4354 17.6073C10.9314 18.208 11.9182 18.9876 13.698 18.3432C14.4767 18.063 15.3405 17.8358 16.2668 17.6676L19.3292 19.8119L20.9708 18.7862L17.8794 14.1489C16.8108 14.4189 14.7171 14.9803 12.7024 15.714C11.1297 16.288 10.2041 16.9463 10.027 17.0435Z" fill="#3267F6"/>
<path d="M0 16.9219L1.82091 17.993L4.71366 13.6539L2.8132 12.7031L0 16.9219Z" fill="#3267F6"/>
<path d="M0 16.9219L1.82091 17.993L4.71366 13.6539L2.8132 12.7031L0 16.9219Z" fill="#3267F6"/>
<path d="M0 16.9219L1.82091 17.993L4.71366 13.6539L2.8132 12.7031L0 16.9219Z" fill="#3267F6"/>
<path d="M0 16.9219L1.82091 17.993L4.71366 13.6539L2.8132 12.7031L0 16.9219Z" fill="#3267F6"/>
<path d="M0 16.9219L1.82091 17.993L4.71366 13.6539L2.8132 12.7031L0 16.9219Z" fill="#3267F6"/>
<path d="M12 24L17.7022 20.3893L15.9517 19.1638C15.3165 19.3011 14.7205 19.47 14.174 19.6664C12.2074 20.3794 10.494 19.8862 9.35094 18.5033L7.95224 16.5745C8.11677 16.4807 10.2241 15.2925 10.405 15.1971C8.76599 14.7111 7.04535 14.3385 6.08549 14.1314L3.03491 18.7071L12 24Z" fill="#3267F6"/>
<path d="M12 24L17.7022 20.3893L15.9517 19.1638C15.3165 19.3011 14.7205 19.47 14.174 19.6664C12.2074 20.3794 10.494 19.8862 9.35094 18.5033L7.95224 16.5745C8.11677 16.4807 10.2241 15.2925 10.405 15.1971C8.76599 14.7111 7.04535 14.3385 6.08549 14.1314L3.03491 18.7071L12 24Z" fill="#3267F6"/>
<path d="M12 24L17.7022 20.3893L15.9517 19.1638C15.3165 19.3011 14.7205 19.47 14.174 19.6664C12.2074 20.3794 10.494 19.8862 9.35094 18.5033L7.95224 16.5745C8.11677 16.4807 10.2241 15.2925 10.405 15.1971C8.76599 14.7111 7.04535 14.3385 6.08549 14.1314L3.03491 18.7071L12 24Z" fill="#3267F6"/>
<path d="M12 24L17.7022 20.3893L15.9517 19.1638C15.3165 19.3011 14.7205 19.47 14.174 19.6664C12.2074 20.3794 10.494 19.8862 9.35094 18.5033L7.95224 16.5745C8.11677 16.4807 10.2241 15.2925 10.405 15.1971C8.76599 14.7111 7.04535 14.3385 6.08549 14.1314L3.03491 18.7071L12 24Z" fill="#3267F6"/>
<path d="M12 24L17.7022 20.3893L15.9517 19.1638C15.3165 19.3011 14.7205 19.47 14.174 19.6664C12.2074 20.3794 10.494 19.8862 9.35094 18.5033L7.95224 16.5745C8.11677 16.4807 10.2241 15.2925 10.405 15.1971C8.76599 14.7111 7.04535 14.3385 6.08549 14.1314L3.03491 18.7071L12 24Z" fill="#3267F6"/>
</g>
<defs>
<clipPath id="clip0_23_1211">
<rect width="24" height="24" fill="white"/>
</clipPath>
</defs>
</svg>