<svg width="24" height="24" viewBox="0 0 24 24" fill="none" xmlns="http://www.w3.org/2000/svg">
  <path id="Vector" d="M16 11L12 15L8 11L9.4 9.6L11 11.15V7H13V11.15L14.6 9.6L16 11ZM10 20H14V19H10V20ZM7 23C6.45 23 5.97933 22.8043 5.588 22.413C5.19667 22.0217 5.00067 21.5507 5 21V3C5 2.45 5.196 1.97933 5.588 1.588C5.98 1.19667 6.45067 1.00067 7 1H17C17.55 1 18.021 1.196 18.413 1.588C18.805 1.98 19.0007 2.45067 19 3V21C19 21.55 18.8043 22.021 18.413 22.413C18.0217 22.805 17.5507 23.0007 17 23H7ZM7 16H17V6H7V16Z" fill="#3267F6"/>
</svg>
