<svg xmlns="http://www.w3.org/2000/svg" width="20" height="20" viewBox="0 0 20 20" fill="none">
<g clip-path="url(#clip0_49_2787)">
<path d="M19.4009 10.5858H14.7153C14.385 10.5858 14.1162 10.854 14.1162 11.1836V12.3447C14.1162 12.6743 14.3849 12.9425 14.7153 12.9425H19.4009C19.7313 12.9425 20.0001 12.6743 20.0001 12.3447V11.1836C20.0001 10.854 19.7313 10.5858 19.4009 10.5858Z" fill="#3267F6"/>
<path d="M19.4009 10.5858H14.7153C14.385 10.5858 14.1162 10.854 14.1162 11.1836V12.3447C14.1162 12.6743 14.3849 12.9425 14.7153 12.9425H19.4009C19.7313 12.9425 20.0001 12.6743 20.0001 12.3447V11.1836C20.0001 10.854 19.7313 10.5858 19.4009 10.5858Z" fill="#3267F6"/>
<path d="M19.4009 10.5858H14.7153C14.385 10.5858 14.1162 10.854 14.1162 11.1836V12.3447C14.1162 12.6743 14.3849 12.9425 14.7153 12.9425H19.4009C19.7313 12.9425 20.0001 12.6743 20.0001 12.3447V11.1836C20.0001 10.854 19.7313 10.5858 19.4009 10.5858Z" fill="#3267F6"/>
<path d="M19.4009 10.5858H14.7153C14.385 10.5858 14.1162 10.854 14.1162 11.1836V12.3447C14.1162 12.6743 14.3849 12.9425 14.7153 12.9425H19.4009C19.7313 12.9425 20.0001 12.6743 20.0001 12.3447V11.1836C20.0001 10.854 19.7313 10.5858 19.4009 10.5858Z" fill="#3267F6"/>
<path d="M19.4009 10.5858H14.7153C14.385 10.5858 14.1162 10.854 14.1162 11.1836V12.3447C14.1162 12.6743 14.3849 12.9425 14.7153 12.9425H19.4009C19.7313 12.9425 20.0001 12.6743 20.0001 12.3447V11.1836C20.0001 10.854 19.7313 10.5858 19.4009 10.5858Z" fill="#3267F6"/>
<path d="M19.4009 14.1141H14.7153C14.385 14.1141 14.1162 14.3822 14.1162 14.7119V15.873C14.1162 16.2026 14.3849 16.4707 14.7153 16.4707H19.4009C19.7313 16.4707 20.0001 16.2026 20.0001 15.873V14.7119C20.0001 14.3822 19.7313 14.1141 19.4009 14.1141Z" fill="#3267F6"/>
<path d="M19.4009 14.1141H14.7153C14.385 14.1141 14.1162 14.3822 14.1162 14.7119V15.873C14.1162 16.2026 14.3849 16.4707 14.7153 16.4707H19.4009C19.7313 16.4707 20.0001 16.2026 20.0001 15.873V14.7119C20.0001 14.3822 19.7313 14.1141 19.4009 14.1141Z" fill="#3267F6"/>
<path d="M19.4009 14.1141H14.7153C14.385 14.1141 14.1162 14.3822 14.1162 14.7119V15.873C14.1162 16.2026 14.3849 16.4707 14.7153 16.4707H19.4009C19.7313 16.4707 20.0001 16.2026 20.0001 15.873V14.7119C20.0001 14.3822 19.7313 14.1141 19.4009 14.1141Z" fill="#3267F6"/>
<path d="M19.4009 14.1141H14.7153C14.385 14.1141 14.1162 14.3822 14.1162 14.7119V15.873C14.1162 16.2026 14.3849 16.4707 14.7153 16.4707H19.4009C19.7313 16.4707 20.0001 16.2026 20.0001 15.873V14.7119C20.0001 14.3822 19.7313 14.1141 19.4009 14.1141Z" fill="#3267F6"/>
<path d="M19.4009 14.1141H14.7153C14.385 14.1141 14.1162 14.3822 14.1162 14.7119V15.873C14.1162 16.2026 14.3849 16.4707 14.7153 16.4707H19.4009C19.7313 16.4707 20.0001 16.2026 20.0001 15.873V14.7119C20.0001 14.3822 19.7313 14.1141 19.4009 14.1141Z" fill="#3267F6"/>
<path d="M19.4009 17.6424H14.7153C14.385 17.6424 14.1162 17.9105 14.1162 18.2401V19.4013C14.1162 19.7308 14.3849 19.9989 14.7153 19.9989H19.4009C19.7313 19.9989 20.0001 19.7308 20.0001 19.4013V18.2401C20.0001 17.9105 19.7313 17.6424 19.4009 17.6424Z" fill="#3267F6"/>
<path d="M19.4009 17.6424H14.7153C14.385 17.6424 14.1162 17.9105 14.1162 18.2401V19.4013C14.1162 19.7308 14.3849 19.9989 14.7153 19.9989H19.4009C19.7313 19.9989 20.0001 19.7308 20.0001 19.4013V18.2401C20.0001 17.9105 19.7313 17.6424 19.4009 17.6424Z" fill="#3267F6"/>
<path d="M19.4009 17.6424H14.7153C14.385 17.6424 14.1162 17.9105 14.1162 18.2401V19.4013C14.1162 19.7308 14.3849 19.9989 14.7153 19.9989H19.4009C19.7313 19.9989 20.0001 19.7308 20.0001 19.4013V18.2401C20.0001 17.9105 19.7313 17.6424 19.4009 17.6424Z" fill="#3267F6"/>
<path d="M19.4009 17.6424H14.7153C14.385 17.6424 14.1162 17.9105 14.1162 18.2401V19.4013C14.1162 19.7308 14.3849 19.9989 14.7153 19.9989H19.4009C19.7313 19.9989 20.0001 19.7308 20.0001 19.4013V18.2401C20.0001 17.9105 19.7313 17.6424 19.4009 17.6424Z" fill="#3267F6"/>
<path d="M19.4009 17.6424H14.7153C14.385 17.6424 14.1162 17.9105 14.1162 18.2401V19.4013C14.1162 19.7308 14.3849 19.9989 14.7153 19.9989H19.4009C19.7313 19.9989 20.0001 19.7308 20.0001 19.4013V18.2401C20.0001 17.9105 19.7313 17.6424 19.4009 17.6424Z" fill="#3267F6"/>
<path d="M12.3428 10.5858H7.65717C7.32684 10.5858 7.05811 10.854 7.05811 11.1836V12.3447C7.05811 12.6743 7.32684 12.9425 7.65717 12.9425H12.3428C12.6731 12.9425 12.9419 12.6743 12.9419 12.3447V11.1836C12.9419 10.854 12.6731 10.5858 12.3428 10.5858Z" fill="#3267F6"/>
<path d="M12.3428 10.5858H7.65717C7.32684 10.5858 7.05811 10.854 7.05811 11.1836V12.3447C7.05811 12.6743 7.32684 12.9425 7.65717 12.9425H12.3428C12.6731 12.9425 12.9419 12.6743 12.9419 12.3447V11.1836C12.9419 10.854 12.6731 10.5858 12.3428 10.5858Z" fill="#3267F6"/>
<path d="M12.3428 10.5858H7.65717C7.32684 10.5858 7.05811 10.854 7.05811 11.1836V12.3447C7.05811 12.6743 7.32684 12.9425 7.65717 12.9425H12.3428C12.6731 12.9425 12.9419 12.6743 12.9419 12.3447V11.1836C12.9419 10.854 12.6731 10.5858 12.3428 10.5858Z" fill="#3267F6"/>
<path d="M12.3428 10.5858H7.65717C7.32684 10.5858 7.05811 10.854 7.05811 11.1836V12.3447C7.05811 12.6743 7.32684 12.9425 7.65717 12.9425H12.3428C12.6731 12.9425 12.9419 12.6743 12.9419 12.3447V11.1836C12.9419 10.854 12.6731 10.5858 12.3428 10.5858Z" fill="#3267F6"/>
<path d="M12.3428 10.5858H7.65717C7.32684 10.5858 7.05811 10.854 7.05811 11.1836V12.3447C7.05811 12.6743 7.32684 12.9425 7.65717 12.9425H12.3428C12.6731 12.9425 12.9419 12.6743 12.9419 12.3447V11.1836C12.9419 10.854 12.6731 10.5858 12.3428 10.5858Z" fill="#3267F6"/>
<path d="M12.3428 7.0576H7.65717C7.32684 7.0576 7.05811 7.32575 7.05811 7.65534V8.81647C7.05811 9.14606 7.32684 9.41421 7.65717 9.41421H12.3428C12.6731 9.41421 12.9419 9.1461 12.9419 8.81647V7.65534C12.9419 7.32571 12.6731 7.0576 12.3428 7.0576Z" fill="#3267F6"/>
<path d="M12.3428 7.0576H7.65717C7.32684 7.0576 7.05811 7.32575 7.05811 7.65534V8.81647C7.05811 9.14606 7.32684 9.41421 7.65717 9.41421H12.3428C12.6731 9.41421 12.9419 9.1461 12.9419 8.81647V7.65534C12.9419 7.32571 12.6731 7.0576 12.3428 7.0576Z" fill="#3267F6"/>
<path d="M12.3428 7.0576H7.65717C7.32684 7.0576 7.05811 7.32575 7.05811 7.65534V8.81647C7.05811 9.14606 7.32684 9.41421 7.65717 9.41421H12.3428C12.6731 9.41421 12.9419 9.1461 12.9419 8.81647V7.65534C12.9419 7.32571 12.6731 7.0576 12.3428 7.0576Z" fill="#3267F6"/>
<path d="M12.3428 7.0576H7.65717C7.32684 7.0576 7.05811 7.32575 7.05811 7.65534V8.81647C7.05811 9.14606 7.32684 9.41421 7.65717 9.41421H12.3428C12.6731 9.41421 12.9419 9.1461 12.9419 8.81647V7.65534C12.9419 7.32571 12.6731 7.0576 12.3428 7.0576Z" fill="#3267F6"/>
<path d="M12.3428 7.0576H7.65717C7.32684 7.0576 7.05811 7.32575 7.05811 7.65534V8.81647C7.05811 9.14606 7.32684 9.41421 7.65717 9.41421H12.3428C12.6731 9.41421 12.9419 9.1461 12.9419 8.81647V7.65534C12.9419 7.32571 12.6731 7.0576 12.3428 7.0576Z" fill="#3267F6"/>
<path d="M12.3428 14.1141H7.65717C7.32684 14.1141 7.05811 14.3822 7.05811 14.7119V15.873C7.05811 16.2026 7.32684 16.4707 7.65717 16.4707H12.3428C12.6731 16.4707 12.9419 16.2026 12.9419 15.873V14.7119C12.9419 14.3822 12.6731 14.1141 12.3428 14.1141Z" fill="#3267F6"/>
<path d="M12.3428 14.1141H7.65717C7.32684 14.1141 7.05811 14.3822 7.05811 14.7119V15.873C7.05811 16.2026 7.32684 16.4707 7.65717 16.4707H12.3428C12.6731 16.4707 12.9419 16.2026 12.9419 15.873V14.7119C12.9419 14.3822 12.6731 14.1141 12.3428 14.1141Z" fill="#3267F6"/>
<path d="M12.3428 14.1141H7.65717C7.32684 14.1141 7.05811 14.3822 7.05811 14.7119V15.873C7.05811 16.2026 7.32684 16.4707 7.65717 16.4707H12.3428C12.6731 16.4707 12.9419 16.2026 12.9419 15.873V14.7119C12.9419 14.3822 12.6731 14.1141 12.3428 14.1141Z" fill="#3267F6"/>
<path d="M12.3428 14.1141H7.65717C7.32684 14.1141 7.05811 14.3822 7.05811 14.7119V15.873C7.05811 16.2026 7.32684 16.4707 7.65717 16.4707H12.3428C12.6731 16.4707 12.9419 16.2026 12.9419 15.873V14.7119C12.9419 14.3822 12.6731 14.1141 12.3428 14.1141Z" fill="#3267F6"/>
<path d="M12.3428 14.1141H7.65717C7.32684 14.1141 7.05811 14.3822 7.05811 14.7119V15.873C7.05811 16.2026 7.32684 16.4707 7.65717 16.4707H12.3428C12.6731 16.4707 12.9419 16.2026 12.9419 15.873V14.7119C12.9419 14.3822 12.6731 14.1141 12.3428 14.1141Z" fill="#3267F6"/>
<path d="M12.3428 17.6424H7.65717C7.32684 17.6424 7.05811 17.9105 7.05811 18.2401V19.4013C7.05811 19.7308 7.32684 19.9989 7.65717 19.9989H12.3428C12.6731 19.9989 12.9419 19.7308 12.9419 19.4013V18.2401C12.9419 17.9105 12.6731 17.6424 12.3428 17.6424Z" fill="#3267F6"/>
<path d="M12.3428 17.6424H7.65717C7.32684 17.6424 7.05811 17.9105 7.05811 18.2401V19.4013C7.05811 19.7308 7.32684 19.9989 7.65717 19.9989H12.3428C12.6731 19.9989 12.9419 19.7308 12.9419 19.4013V18.2401C12.9419 17.9105 12.6731 17.6424 12.3428 17.6424Z" fill="#3267F6"/>
<path d="M12.3428 17.6424H7.65717C7.32684 17.6424 7.05811 17.9105 7.05811 18.2401V19.4013C7.05811 19.7308 7.32684 19.9989 7.65717 19.9989H12.3428C12.6731 19.9989 12.9419 19.7308 12.9419 19.4013V18.2401C12.9419 17.9105 12.6731 17.6424 12.3428 17.6424Z" fill="#3267F6"/>
<path d="M12.3428 17.6424H7.65717C7.32684 17.6424 7.05811 17.9105 7.05811 18.2401V19.4013C7.05811 19.7308 7.32684 19.9989 7.65717 19.9989H12.3428C12.6731 19.9989 12.9419 19.7308 12.9419 19.4013V18.2401C12.9419 17.9105 12.6731 17.6424 12.3428 17.6424Z" fill="#3267F6"/>
<path d="M12.3428 17.6424H7.65717C7.32684 17.6424 7.05811 17.9105 7.05811 18.2401V19.4013C7.05811 19.7308 7.32684 19.9989 7.65717 19.9989H12.3428C12.6731 19.9989 12.9419 19.7308 12.9419 19.4013V18.2401C12.9419 17.9105 12.6731 17.6424 12.3428 17.6424Z" fill="#3267F6"/>
<path d="M5.2847 10.5858H0.599102C0.268733 10.5858 0 10.854 0 11.1836V12.3447C0 12.6743 0.268733 12.9425 0.599102 12.9425H5.28474C5.61507 12.9425 5.88384 12.6743 5.88384 12.3447V11.1836C5.8838 10.854 5.61503 10.5858 5.2847 10.5858Z" fill="#3267F6"/>
<path d="M5.2847 10.5858H0.599102C0.268733 10.5858 0 10.854 0 11.1836V12.3447C0 12.6743 0.268733 12.9425 0.599102 12.9425H5.28474C5.61507 12.9425 5.88384 12.6743 5.88384 12.3447V11.1836C5.8838 10.854 5.61503 10.5858 5.2847 10.5858Z" fill="#3267F6"/>
<path d="M5.2847 10.5858H0.599102C0.268733 10.5858 0 10.854 0 11.1836V12.3447C0 12.6743 0.268733 12.9425 0.599102 12.9425H5.28474C5.61507 12.9425 5.88384 12.6743 5.88384 12.3447V11.1836C5.8838 10.854 5.61503 10.5858 5.2847 10.5858Z" fill="#3267F6"/>
<path d="M5.2847 10.5858H0.599102C0.268733 10.5858 0 10.854 0 11.1836V12.3447C0 12.6743 0.268733 12.9425 0.599102 12.9425H5.28474C5.61507 12.9425 5.88384 12.6743 5.88384 12.3447V11.1836C5.8838 10.854 5.61503 10.5858 5.2847 10.5858Z" fill="#3267F6"/>
<path d="M5.2847 10.5858H0.599102C0.268733 10.5858 0 10.854 0 11.1836V12.3447C0 12.6743 0.268733 12.9425 0.599102 12.9425H5.28474C5.61507 12.9425 5.88384 12.6743 5.88384 12.3447V11.1836C5.8838 10.854 5.61503 10.5858 5.2847 10.5858Z" fill="#3267F6"/>
<path d="M5.2847 7.0576H0.599102C0.268733 7.0576 0 7.32571 0 7.6553V8.81643C0 9.14602 0.268733 9.41417 0.599102 9.41417H5.28474C5.61507 9.41417 5.88384 9.14606 5.88384 8.81643V7.6553C5.8838 7.32571 5.61503 7.0576 5.2847 7.0576Z" fill="#3267F6"/>
<path d="M5.2847 7.0576H0.599102C0.268733 7.0576 0 7.32571 0 7.6553V8.81643C0 9.14602 0.268733 9.41417 0.599102 9.41417H5.28474C5.61507 9.41417 5.88384 9.14606 5.88384 8.81643V7.6553C5.8838 7.32571 5.61503 7.0576 5.2847 7.0576Z" fill="#3267F6"/>
<path d="M5.2847 7.0576H0.599102C0.268733 7.0576 0 7.32571 0 7.6553V8.81643C0 9.14602 0.268733 9.41417 0.599102 9.41417H5.28474C5.61507 9.41417 5.88384 9.14606 5.88384 8.81643V7.6553C5.8838 7.32571 5.61503 7.0576 5.2847 7.0576Z" fill="#3267F6"/>
<path d="M5.2847 7.0576H0.599102C0.268733 7.0576 0 7.32571 0 7.6553V8.81643C0 9.14602 0.268733 9.41417 0.599102 9.41417H5.28474C5.61507 9.41417 5.88384 9.14606 5.88384 8.81643V7.6553C5.8838 7.32571 5.61503 7.0576 5.2847 7.0576Z" fill="#3267F6"/>
<path d="M5.2847 7.0576H0.599102C0.268733 7.0576 0 7.32571 0 7.6553V8.81643C0 9.14602 0.268733 9.41417 0.599102 9.41417H5.28474C5.61507 9.41417 5.88384 9.14606 5.88384 8.81643V7.6553C5.8838 7.32571 5.61503 7.0576 5.2847 7.0576Z" fill="#3267F6"/>
<path d="M5.2847 3.52931H0.599102C0.268733 3.52931 0 3.79746 0 4.12705V5.28818C0 5.61777 0.268733 5.88592 0.599102 5.88592H5.28474C5.61507 5.88592 5.88384 5.61777 5.88384 5.28818V4.12705C5.8838 3.79746 5.61503 3.52931 5.2847 3.52931Z" fill="#3267F6"/>
<path d="M5.2847 3.52931H0.599102C0.268733 3.52931 0 3.79746 0 4.12705V5.28818C0 5.61777 0.268733 5.88592 0.599102 5.88592H5.28474C5.61507 5.88592 5.88384 5.61777 5.88384 5.28818V4.12705C5.8838 3.79746 5.61503 3.52931 5.2847 3.52931Z" fill="#3267F6"/>
<path d="M5.2847 3.52931H0.599102C0.268733 3.52931 0 3.79746 0 4.12705V5.28818C0 5.61777 0.268733 5.88592 0.599102 5.88592H5.28474C5.61507 5.88592 5.88384 5.61777 5.88384 5.28818V4.12705C5.8838 3.79746 5.61503 3.52931 5.2847 3.52931Z" fill="#3267F6"/>
<path d="M5.2847 3.52931H0.599102C0.268733 3.52931 0 3.79746 0 4.12705V5.28818C0 5.61777 0.268733 5.88592 0.599102 5.88592H5.28474C5.61507 5.88592 5.88384 5.61777 5.88384 5.28818V4.12705C5.8838 3.79746 5.61503 3.52931 5.2847 3.52931Z" fill="#3267F6"/>
<path d="M5.2847 3.52931H0.599102C0.268733 3.52931 0 3.79746 0 4.12705V5.28818C0 5.61777 0.268733 5.88592 0.599102 5.88592H5.28474C5.61507 5.88592 5.88384 5.61777 5.88384 5.28818V4.12705C5.8838 3.79746 5.61503 3.52931 5.2847 3.52931Z" fill="#3267F6"/>
<path d="M5.2847 0.00102234H0.599102C0.268733 0.00102234 0 0.269169 0 0.598757V1.75989C0 2.08948 0.268733 2.35763 0.599102 2.35763H5.28474C5.61507 2.35763 5.88384 2.08948 5.88384 1.75989V0.598757C5.8838 0.269169 5.61503 0.00102234 5.2847 0.00102234Z" fill="#3267F6"/>
<path d="M5.2847 0.00102234H0.599102C0.268733 0.00102234 0 0.269169 0 0.598757V1.75989C0 2.08948 0.268733 2.35763 0.599102 2.35763H5.28474C5.61507 2.35763 5.88384 2.08948 5.88384 1.75989V0.598757C5.8838 0.269169 5.61503 0.00102234 5.2847 0.00102234Z" fill="#3267F6"/>
<path d="M5.2847 0.00102234H0.599102C0.268733 0.00102234 0 0.269169 0 0.598757V1.75989C0 2.08948 0.268733 2.35763 0.599102 2.35763H5.28474C5.61507 2.35763 5.88384 2.08948 5.88384 1.75989V0.598757C5.8838 0.269169 5.61503 0.00102234 5.2847 0.00102234Z" fill="#3267F6"/>
<path d="M5.2847 0.00102234H0.599102C0.268733 0.00102234 0 0.269169 0 0.598757V1.75989C0 2.08948 0.268733 2.35763 0.599102 2.35763H5.28474C5.61507 2.35763 5.88384 2.08948 5.88384 1.75989V0.598757C5.8838 0.269169 5.61503 0.00102234 5.2847 0.00102234Z" fill="#3267F6"/>
<path d="M5.2847 0.00102234H0.599102C0.268733 0.00102234 0 0.269169 0 0.598757V1.75989C0 2.08948 0.268733 2.35763 0.599102 2.35763H5.28474C5.61507 2.35763 5.88384 2.08948 5.88384 1.75989V0.598757C5.8838 0.269169 5.61503 0.00102234 5.2847 0.00102234Z" fill="#3267F6"/>
<path d="M5.2847 14.1141H0.599102C0.268733 14.1141 0 14.3822 0 14.7118V15.873C0 16.2026 0.268733 16.4707 0.599102 16.4707H5.28474C5.61507 16.4707 5.88384 16.2026 5.88384 15.873V14.7118C5.8838 14.3822 5.61503 14.1141 5.2847 14.1141Z" fill="#3267F6"/>
<path d="M5.2847 14.1141H0.599102C0.268733 14.1141 0 14.3822 0 14.7118V15.873C0 16.2026 0.268733 16.4707 0.599102 16.4707H5.28474C5.61507 16.4707 5.88384 16.2026 5.88384 15.873V14.7118C5.8838 14.3822 5.61503 14.1141 5.2847 14.1141Z" fill="#3267F6"/>
<path d="M5.2847 14.1141H0.599102C0.268733 14.1141 0 14.3822 0 14.7118V15.873C0 16.2026 0.268733 16.4707 0.599102 16.4707H5.28474C5.61507 16.4707 5.88384 16.2026 5.88384 15.873V14.7118C5.8838 14.3822 5.61503 14.1141 5.2847 14.1141Z" fill="#3267F6"/>
<path d="M5.2847 14.1141H0.599102C0.268733 14.1141 0 14.3822 0 14.7118V15.873C0 16.2026 0.268733 16.4707 0.599102 16.4707H5.28474C5.61507 16.4707 5.88384 16.2026 5.88384 15.873V14.7118C5.8838 14.3822 5.61503 14.1141 5.2847 14.1141Z" fill="#3267F6"/>
<path d="M5.2847 14.1141H0.599102C0.268733 14.1141 0 14.3822 0 14.7118V15.873C0 16.2026 0.268733 16.4707 0.599102 16.4707H5.28474C5.61507 16.4707 5.88384 16.2026 5.88384 15.873V14.7118C5.8838 14.3822 5.61503 14.1141 5.2847 14.1141Z" fill="#3267F6"/>
<path d="M5.2847 17.6424H0.599102C0.268733 17.6424 0 17.9105 0 18.2401V19.4013C0 19.7308 0.268733 19.9989 0.599102 19.9989H5.28474C5.61507 19.9989 5.88384 19.7308 5.88384 19.4013V18.2401C5.8838 17.9105 5.61503 17.6424 5.2847 17.6424Z" fill="#3267F6"/>
<path d="M5.2847 17.6424H0.599102C0.268733 17.6424 0 17.9105 0 18.2401V19.4013C0 19.7308 0.268733 19.9989 0.599102 19.9989H5.28474C5.61507 19.9989 5.88384 19.7308 5.88384 19.4013V18.2401C5.8838 17.9105 5.61503 17.6424 5.2847 17.6424Z" fill="#3267F6"/>
<path d="M5.2847 17.6424H0.599102C0.268733 17.6424 0 17.9105 0 18.2401V19.4013C0 19.7308 0.268733 19.9989 0.599102 19.9989H5.28474C5.61507 19.9989 5.88384 19.7308 5.88384 19.4013V18.2401C5.8838 17.9105 5.61503 17.6424 5.2847 17.6424Z" fill="#3267F6"/>
<path d="M5.2847 17.6424H0.599102C0.268733 17.6424 0 17.9105 0 18.2401V19.4013C0 19.7308 0.268733 19.9989 0.599102 19.9989H5.28474C5.61507 19.9989 5.88384 19.7308 5.88384 19.4013V18.2401C5.8838 17.9105 5.61503 17.6424 5.2847 17.6424Z" fill="#3267F6"/>
<path d="M5.2847 17.6424H0.599102C0.268733 17.6424 0 17.9105 0 18.2401V19.4013C0 19.7308 0.268733 19.9989 0.599102 19.9989H5.28474C5.61507 19.9989 5.88384 19.7308 5.88384 19.4013V18.2401C5.8838 17.9105 5.61503 17.6424 5.2847 17.6424Z" fill="#3267F6"/>
</g>
<defs>
<clipPath id="clip0_49_2787">
<rect width="20" height="20" fill="white"/>
</clipPath>
</defs>
</svg>