<svg xmlns="http://www.w3.org/2000/svg" width="20" height="20" viewBox="0 0 20 20" fill="none">
<path d="M9.22496 1.73512C9.06584 1.81468 8.97602 1.9288 8.93444 2.1052C8.88602 2.3266 9.04514 3.25 9.25268 3.9556L9.35636 4.29796L9.24566 4.59532C8.64752 6.22774 7.44386 8.35822 6.11222 10.1429L5.76644 10.6098L5.21654 10.634C4.56638 10.6617 4.0649 10.7308 3.65324 10.8483C2.66054 11.1354 2.03108 11.6092 1.65758 12.3494C1.18382 13.2936 1.23224 14.7083 1.78214 15.8669C2.2109 16.7662 3.00992 17.5755 3.86078 17.9697C4.46252 18.2463 5.18198 18.3709 5.77688 18.3052C7.53728 18.1047 8.9969 16.7351 9.42566 14.8742C9.52592 14.4453 9.55022 13.6083 9.4775 13.1864C9.3461 12.4255 8.969 11.8029 8.3984 11.3948C8.12516 11.2011 7.60982 10.9556 7.28132 10.8656C7.13948 10.8276 7.02194 10.7895 7.01852 10.7861C7.01168 10.7792 7.17764 10.5335 7.3886 10.2396C8.22218 9.06022 8.93462 7.86358 9.53978 6.6322L9.92714 5.84704L10.3802 6.75316C10.9958 7.98436 11.8017 9.31258 12.6282 10.4538C12.7492 10.6197 12.846 10.765 12.846 10.772C12.846 10.7789 12.7112 10.8275 12.5451 10.8793C11.3414 11.2528 10.6394 11.9723 10.4007 13.0755C10.3109 13.5008 10.3177 14.3171 10.4214 14.7945C10.6912 16.0707 11.466 17.1705 12.5346 17.7965C14.1013 18.7061 15.9517 18.4155 17.2591 17.0459C17.847 16.4337 18.2275 15.7109 18.435 14.822C18.4869 14.5972 18.5007 14.414 18.4973 13.8536C18.4973 13.1999 18.4905 13.1446 18.4005 12.8507C18.1479 12.0171 17.6707 11.4742 16.851 11.0868C16.27 10.8136 15.5955 10.6752 14.6376 10.6338L14.0877 10.6097L13.818 10.2432C11.7187 7.38982 10.3006 4.45348 10.0308 2.38528C9.97196 1.95292 9.90968 1.82854 9.68504 1.7281C9.50162 1.64512 9.40136 1.64512 9.22496 1.73512ZM3.89876 11.7996C3.96446 11.8826 3.9749 12.0106 3.92306 12.1074C3.90578 12.142 3.76052 12.232 3.60482 12.308C3.12746 12.5432 2.90966 12.7749 2.76782 13.2072C2.68142 13.4805 2.57072 13.5807 2.40458 13.5428C2.34572 13.5289 2.26976 13.4805 2.23862 13.4321C2.1902 13.3559 2.18678 13.3179 2.22134 13.1484C2.33204 12.6123 2.72984 12.135 3.30044 11.8515C3.66008 11.6717 3.78122 11.6612 3.89876 11.7996ZM12.8635 11.7789C12.9535 11.8653 12.9742 11.9967 12.9153 12.111C12.8946 12.1456 12.7735 12.2252 12.6491 12.2806C12.2029 12.4847 11.9228 12.7614 11.788 13.1417C11.7568 13.2281 11.7153 13.3424 11.698 13.3943C11.653 13.5188 11.4939 13.5811 11.3625 13.5257C11.1445 13.4357 11.1515 13.1833 11.3866 12.713C11.5596 12.3636 11.8812 12.0592 12.2927 11.8518C12.4657 11.7654 12.6489 11.6927 12.6939 11.6927C12.7423 11.6924 12.8185 11.7303 12.8635 11.7789Z" fill="#3267F6"/>
<path d="M9.22496 1.73512C9.06584 1.81468 8.97602 1.9288 8.93444 2.1052C8.88602 2.3266 9.04514 3.25 9.25268 3.9556L9.35636 4.29796L9.24566 4.59532C8.64752 6.22774 7.44386 8.35822 6.11222 10.1429L5.76644 10.6098L5.21654 10.634C4.56638 10.6617 4.0649 10.7308 3.65324 10.8483C2.66054 11.1354 2.03108 11.6092 1.65758 12.3494C1.18382 13.2936 1.23224 14.7083 1.78214 15.8669C2.2109 16.7662 3.00992 17.5755 3.86078 17.9697C4.46252 18.2463 5.18198 18.3709 5.77688 18.3052C7.53728 18.1047 8.9969 16.7351 9.42566 14.8742C9.52592 14.4453 9.55022 13.6083 9.4775 13.1864C9.3461 12.4255 8.969 11.8029 8.3984 11.3948C8.12516 11.2011 7.60982 10.9556 7.28132 10.8656C7.13948 10.8276 7.02194 10.7895 7.01852 10.7861C7.01168 10.7792 7.17764 10.5335 7.3886 10.2396C8.22218 9.06022 8.93462 7.86358 9.53978 6.6322L9.92714 5.84704L10.3802 6.75316C10.9958 7.98436 11.8017 9.31258 12.6282 10.4538C12.7492 10.6197 12.846 10.765 12.846 10.772C12.846 10.7789 12.7112 10.8275 12.5451 10.8793C11.3414 11.2528 10.6394 11.9723 10.4007 13.0755C10.3109 13.5008 10.3177 14.3171 10.4214 14.7945C10.6912 16.0707 11.466 17.1705 12.5346 17.7965C14.1013 18.7061 15.9517 18.4155 17.2591 17.0459C17.847 16.4337 18.2275 15.7109 18.435 14.822C18.4869 14.5972 18.5007 14.414 18.4973 13.8536C18.4973 13.1999 18.4905 13.1446 18.4005 12.8507C18.1479 12.0171 17.6707 11.4742 16.851 11.0868C16.27 10.8136 15.5955 10.6752 14.6376 10.6338L14.0877 10.6097L13.818 10.2432C11.7187 7.38982 10.3006 4.45348 10.0308 2.38528C9.97196 1.95292 9.90968 1.82854 9.68504 1.7281C9.50162 1.64512 9.40136 1.64512 9.22496 1.73512ZM3.89876 11.7996C3.96446 11.8826 3.9749 12.0106 3.92306 12.1074C3.90578 12.142 3.76052 12.232 3.60482 12.308C3.12746 12.5432 2.90966 12.7749 2.76782 13.2072C2.68142 13.4805 2.57072 13.5807 2.40458 13.5428C2.34572 13.5289 2.26976 13.4805 2.23862 13.4321C2.1902 13.3559 2.18678 13.3179 2.22134 13.1484C2.33204 12.6123 2.72984 12.135 3.30044 11.8515C3.66008 11.6717 3.78122 11.6612 3.89876 11.7996ZM12.8635 11.7789C12.9535 11.8653 12.9742 11.9967 12.9153 12.111C12.8946 12.1456 12.7735 12.2252 12.6491 12.2806C12.2029 12.4847 11.9228 12.7614 11.788 13.1417C11.7568 13.2281 11.7153 13.3424 11.698 13.3943C11.653 13.5188 11.4939 13.5811 11.3625 13.5257C11.1445 13.4357 11.1515 13.1833 11.3866 12.713C11.5596 12.3636 11.8812 12.0592 12.2927 11.8518C12.4657 11.7654 12.6489 11.6927 12.6939 11.6927C12.7423 11.6924 12.8185 11.7303 12.8635 11.7789Z" fill="#3267F6"/>
<path d="M9.22496 1.73512C9.06584 1.81468 8.97602 1.9288 8.93444 2.1052C8.88602 2.3266 9.04514 3.25 9.25268 3.9556L9.35636 4.29796L9.24566 4.59532C8.64752 6.22774 7.44386 8.35822 6.11222 10.1429L5.76644 10.6098L5.21654 10.634C4.56638 10.6617 4.0649 10.7308 3.65324 10.8483C2.66054 11.1354 2.03108 11.6092 1.65758 12.3494C1.18382 13.2936 1.23224 14.7083 1.78214 15.8669C2.2109 16.7662 3.00992 17.5755 3.86078 17.9697C4.46252 18.2463 5.18198 18.3709 5.77688 18.3052C7.53728 18.1047 8.9969 16.7351 9.42566 14.8742C9.52592 14.4453 9.55022 13.6083 9.4775 13.1864C9.3461 12.4255 8.969 11.8029 8.3984 11.3948C8.12516 11.2011 7.60982 10.9556 7.28132 10.8656C7.13948 10.8276 7.02194 10.7895 7.01852 10.7861C7.01168 10.7792 7.17764 10.5335 7.3886 10.2396C8.22218 9.06022 8.93462 7.86358 9.53978 6.6322L9.92714 5.84704L10.3802 6.75316C10.9958 7.98436 11.8017 9.31258 12.6282 10.4538C12.7492 10.6197 12.846 10.765 12.846 10.772C12.846 10.7789 12.7112 10.8275 12.5451 10.8793C11.3414 11.2528 10.6394 11.9723 10.4007 13.0755C10.3109 13.5008 10.3177 14.3171 10.4214 14.7945C10.6912 16.0707 11.466 17.1705 12.5346 17.7965C14.1013 18.7061 15.9517 18.4155 17.2591 17.0459C17.847 16.4337 18.2275 15.7109 18.435 14.822C18.4869 14.5972 18.5007 14.414 18.4973 13.8536C18.4973 13.1999 18.4905 13.1446 18.4005 12.8507C18.1479 12.0171 17.6707 11.4742 16.851 11.0868C16.27 10.8136 15.5955 10.6752 14.6376 10.6338L14.0877 10.6097L13.818 10.2432C11.7187 7.38982 10.3006 4.45348 10.0308 2.38528C9.97196 1.95292 9.90968 1.82854 9.68504 1.7281C9.50162 1.64512 9.40136 1.64512 9.22496 1.73512ZM3.89876 11.7996C3.96446 11.8826 3.9749 12.0106 3.92306 12.1074C3.90578 12.142 3.76052 12.232 3.60482 12.308C3.12746 12.5432 2.90966 12.7749 2.76782 13.2072C2.68142 13.4805 2.57072 13.5807 2.40458 13.5428C2.34572 13.5289 2.26976 13.4805 2.23862 13.4321C2.1902 13.3559 2.18678 13.3179 2.22134 13.1484C2.33204 12.6123 2.72984 12.135 3.30044 11.8515C3.66008 11.6717 3.78122 11.6612 3.89876 11.7996ZM12.8635 11.7789C12.9535 11.8653 12.9742 11.9967 12.9153 12.111C12.8946 12.1456 12.7735 12.2252 12.6491 12.2806C12.2029 12.4847 11.9228 12.7614 11.788 13.1417C11.7568 13.2281 11.7153 13.3424 11.698 13.3943C11.653 13.5188 11.4939 13.5811 11.3625 13.5257C11.1445 13.4357 11.1515 13.1833 11.3866 12.713C11.5596 12.3636 11.8812 12.0592 12.2927 11.8518C12.4657 11.7654 12.6489 11.6927 12.6939 11.6927C12.7423 11.6924 12.8185 11.7303 12.8635 11.7789Z" fill="#3267F6"/>
<path d="M9.22496 1.73512C9.06584 1.81468 8.97602 1.9288 8.93444 2.1052C8.88602 2.3266 9.04514 3.25 9.25268 3.9556L9.35636 4.29796L9.24566 4.59532C8.64752 6.22774 7.44386 8.35822 6.11222 10.1429L5.76644 10.6098L5.21654 10.634C4.56638 10.6617 4.0649 10.7308 3.65324 10.8483C2.66054 11.1354 2.03108 11.6092 1.65758 12.3494C1.18382 13.2936 1.23224 14.7083 1.78214 15.8669C2.2109 16.7662 3.00992 17.5755 3.86078 17.9697C4.46252 18.2463 5.18198 18.3709 5.77688 18.3052C7.53728 18.1047 8.9969 16.7351 9.42566 14.8742C9.52592 14.4453 9.55022 13.6083 9.4775 13.1864C9.3461 12.4255 8.969 11.8029 8.3984 11.3948C8.12516 11.2011 7.60982 10.9556 7.28132 10.8656C7.13948 10.8276 7.02194 10.7895 7.01852 10.7861C7.01168 10.7792 7.17764 10.5335 7.3886 10.2396C8.22218 9.06022 8.93462 7.86358 9.53978 6.6322L9.92714 5.84704L10.3802 6.75316C10.9958 7.98436 11.8017 9.31258 12.6282 10.4538C12.7492 10.6197 12.846 10.765 12.846 10.772C12.846 10.7789 12.7112 10.8275 12.5451 10.8793C11.3414 11.2528 10.6394 11.9723 10.4007 13.0755C10.3109 13.5008 10.3177 14.3171 10.4214 14.7945C10.6912 16.0707 11.466 17.1705 12.5346 17.7965C14.1013 18.7061 15.9517 18.4155 17.2591 17.0459C17.847 16.4337 18.2275 15.7109 18.435 14.822C18.4869 14.5972 18.5007 14.414 18.4973 13.8536C18.4973 13.1999 18.4905 13.1446 18.4005 12.8507C18.1479 12.0171 17.6707 11.4742 16.851 11.0868C16.27 10.8136 15.5955 10.6752 14.6376 10.6338L14.0877 10.6097L13.818 10.2432C11.7187 7.38982 10.3006 4.45348 10.0308 2.38528C9.97196 1.95292 9.90968 1.82854 9.68504 1.7281C9.50162 1.64512 9.40136 1.64512 9.22496 1.73512ZM3.89876 11.7996C3.96446 11.8826 3.9749 12.0106 3.92306 12.1074C3.90578 12.142 3.76052 12.232 3.60482 12.308C3.12746 12.5432 2.90966 12.7749 2.76782 13.2072C2.68142 13.4805 2.57072 13.5807 2.40458 13.5428C2.34572 13.5289 2.26976 13.4805 2.23862 13.4321C2.1902 13.3559 2.18678 13.3179 2.22134 13.1484C2.33204 12.6123 2.72984 12.135 3.30044 11.8515C3.66008 11.6717 3.78122 11.6612 3.89876 11.7996ZM12.8635 11.7789C12.9535 11.8653 12.9742 11.9967 12.9153 12.111C12.8946 12.1456 12.7735 12.2252 12.6491 12.2806C12.2029 12.4847 11.9228 12.7614 11.788 13.1417C11.7568 13.2281 11.7153 13.3424 11.698 13.3943C11.653 13.5188 11.4939 13.5811 11.3625 13.5257C11.1445 13.4357 11.1515 13.1833 11.3866 12.713C11.5596 12.3636 11.8812 12.0592 12.2927 11.8518C12.4657 11.7654 12.6489 11.6927 12.6939 11.6927C12.7423 11.6924 12.8185 11.7303 12.8635 11.7789Z" fill="#3267F6"/>
<path d="M9.22496 1.73512C9.06584 1.81468 8.97602 1.9288 8.93444 2.1052C8.88602 2.3266 9.04514 3.25 9.25268 3.9556L9.35636 4.29796L9.24566 4.59532C8.64752 6.22774 7.44386 8.35822 6.11222 10.1429L5.76644 10.6098L5.21654 10.634C4.56638 10.6617 4.0649 10.7308 3.65324 10.8483C2.66054 11.1354 2.03108 11.6092 1.65758 12.3494C1.18382 13.2936 1.23224 14.7083 1.78214 15.8669C2.2109 16.7662 3.00992 17.5755 3.86078 17.9697C4.46252 18.2463 5.18198 18.3709 5.77688 18.3052C7.53728 18.1047 8.9969 16.7351 9.42566 14.8742C9.52592 14.4453 9.55022 13.6083 9.4775 13.1864C9.3461 12.4255 8.969 11.8029 8.3984 11.3948C8.12516 11.2011 7.60982 10.9556 7.28132 10.8656C7.13948 10.8276 7.02194 10.7895 7.01852 10.7861C7.01168 10.7792 7.17764 10.5335 7.3886 10.2396C8.22218 9.06022 8.93462 7.86358 9.53978 6.6322L9.92714 5.84704L10.3802 6.75316C10.9958 7.98436 11.8017 9.31258 12.6282 10.4538C12.7492 10.6197 12.846 10.765 12.846 10.772C12.846 10.7789 12.7112 10.8275 12.5451 10.8793C11.3414 11.2528 10.6394 11.9723 10.4007 13.0755C10.3109 13.5008 10.3177 14.3171 10.4214 14.7945C10.6912 16.0707 11.466 17.1705 12.5346 17.7965C14.1013 18.7061 15.9517 18.4155 17.2591 17.0459C17.847 16.4337 18.2275 15.7109 18.435 14.822C18.4869 14.5972 18.5007 14.414 18.4973 13.8536C18.4973 13.1999 18.4905 13.1446 18.4005 12.8507C18.1479 12.0171 17.6707 11.4742 16.851 11.0868C16.27 10.8136 15.5955 10.6752 14.6376 10.6338L14.0877 10.6097L13.818 10.2432C11.7187 7.38982 10.3006 4.45348 10.0308 2.38528C9.97196 1.95292 9.90968 1.82854 9.68504 1.7281C9.50162 1.64512 9.40136 1.64512 9.22496 1.73512ZM3.89876 11.7996C3.96446 11.8826 3.9749 12.0106 3.92306 12.1074C3.90578 12.142 3.76052 12.232 3.60482 12.308C3.12746 12.5432 2.90966 12.7749 2.76782 13.2072C2.68142 13.4805 2.57072 13.5807 2.40458 13.5428C2.34572 13.5289 2.26976 13.4805 2.23862 13.4321C2.1902 13.3559 2.18678 13.3179 2.22134 13.1484C2.33204 12.6123 2.72984 12.135 3.30044 11.8515C3.66008 11.6717 3.78122 11.6612 3.89876 11.7996ZM12.8635 11.7789C12.9535 11.8653 12.9742 11.9967 12.9153 12.111C12.8946 12.1456 12.7735 12.2252 12.6491 12.2806C12.2029 12.4847 11.9228 12.7614 11.788 13.1417C11.7568 13.2281 11.7153 13.3424 11.698 13.3943C11.653 13.5188 11.4939 13.5811 11.3625 13.5257C11.1445 13.4357 11.1515 13.1833 11.3866 12.713C11.5596 12.3636 11.8812 12.0592 12.2927 11.8518C12.4657 11.7654 12.6489 11.6927 12.6939 11.6927C12.7423 11.6924 12.8185 11.7303 12.8635 11.7789Z" fill="#3267F6"/>
<path d="M12.5868 2.93167C12.0681 2.97667 11.0062 3.18763 10.9301 3.25675C10.8747 3.30859 11.1826 3.96919 11.4904 4.46383C11.9712 5.22469 12.7252 5.92687 13.4515 6.28993C14.2056 6.66343 15.3019 6.91939 16.1596 6.91939C17.1869 6.91939 18.1448 6.62185 18.8125 6.09967C19.0407 5.91985 19.0511 5.94397 18.6811 5.82985C18.3594 5.72617 18.0966 5.52547 17.3633 4.81645C16.9794 4.44637 16.5056 4.02103 16.3049 3.86875C15.4193 3.20491 14.4129 2.89711 13.1574 2.91439C12.9187 2.91781 12.6628 2.92483 12.5868 2.93167Z" fill="#3267F6"/>
<path d="M12.5868 2.93167C12.0681 2.97667 11.0062 3.18763 10.9301 3.25675C10.8747 3.30859 11.1826 3.96919 11.4904 4.46383C11.9712 5.22469 12.7252 5.92687 13.4515 6.28993C14.2056 6.66343 15.3019 6.91939 16.1596 6.91939C17.1869 6.91939 18.1448 6.62185 18.8125 6.09967C19.0407 5.91985 19.0511 5.94397 18.6811 5.82985C18.3594 5.72617 18.0966 5.52547 17.3633 4.81645C16.9794 4.44637 16.5056 4.02103 16.3049 3.86875C15.4193 3.20491 14.4129 2.89711 13.1574 2.91439C12.9187 2.91781 12.6628 2.92483 12.5868 2.93167Z" fill="#3267F6"/>
<path d="M12.5868 2.93167C12.0681 2.97667 11.0062 3.18763 10.9301 3.25675C10.8747 3.30859 11.1826 3.96919 11.4904 4.46383C11.9712 5.22469 12.7252 5.92687 13.4515 6.28993C14.2056 6.66343 15.3019 6.91939 16.1596 6.91939C17.1869 6.91939 18.1448 6.62185 18.8125 6.09967C19.0407 5.91985 19.0511 5.94397 18.6811 5.82985C18.3594 5.72617 18.0966 5.52547 17.3633 4.81645C16.9794 4.44637 16.5056 4.02103 16.3049 3.86875C15.4193 3.20491 14.4129 2.89711 13.1574 2.91439C12.9187 2.91781 12.6628 2.92483 12.5868 2.93167Z" fill="#3267F6"/>
<path d="M12.5868 2.93167C12.0681 2.97667 11.0062 3.18763 10.9301 3.25675C10.8747 3.30859 11.1826 3.96919 11.4904 4.46383C11.9712 5.22469 12.7252 5.92687 13.4515 6.28993C14.2056 6.66343 15.3019 6.91939 16.1596 6.91939C17.1869 6.91939 18.1448 6.62185 18.8125 6.09967C19.0407 5.91985 19.0511 5.94397 18.6811 5.82985C18.3594 5.72617 18.0966 5.52547 17.3633 4.81645C16.9794 4.44637 16.5056 4.02103 16.3049 3.86875C15.4193 3.20491 14.4129 2.89711 13.1574 2.91439C12.9187 2.91781 12.6628 2.92483 12.5868 2.93167Z" fill="#3267F6"/>
<path d="M12.5868 2.93167C12.0681 2.97667 11.0062 3.18763 10.9301 3.25675C10.8747 3.30859 11.1826 3.96919 11.4904 4.46383C11.9712 5.22469 12.7252 5.92687 13.4515 6.28993C14.2056 6.66343 15.3019 6.91939 16.1596 6.91939C17.1869 6.91939 18.1448 6.62185 18.8125 6.09967C19.0407 5.91985 19.0511 5.94397 18.6811 5.82985C18.3594 5.72617 18.0966 5.52547 17.3633 4.81645C16.9794 4.44637 16.5056 4.02103 16.3049 3.86875C15.4193 3.20491 14.4129 2.89711 13.1574 2.91439C12.9187 2.91781 12.6628 2.92483 12.5868 2.93167Z" fill="#3267F6"/>
</svg>