<svg xmlns="http://www.w3.org/2000/svg" width="48" height="48" viewBox="0 0 48 48" fill="none">
<path d="M30 25.14V12.5C30 12.1022 29.842 11.7206 29.5607 11.4393C29.2794 11.158 28.8978 11 28.5 11C28.1022 11 27.7206 11.158 27.4393 11.4393C27.158 11.7206 27 12.1022 27 12.5V23H25V9.5C25 9.30302 24.9612 9.10796 24.8858 8.92597C24.8104 8.74399 24.6999 8.57863 24.5607 8.43934C24.4214 8.30005 24.256 8.18956 24.074 8.11418C23.892 8.0388 23.697 8 23.5 8C23.303 8 23.108 8.0388 22.926 8.11418C22.744 8.18956 22.5786 8.30005 22.4393 8.43934C22.3001 8.57863 22.1896 8.74399 22.1142 8.92597C22.0388 9.10796 22 9.30302 22 9.5V23H20V12.5C20 12.1022 19.842 11.7206 19.5607 11.4393C19.2794 11.158 18.8978 11 18.5 11C18.1022 11 17.7206 11.158 17.4393 11.4393C17.158 11.7206 17 12.1022 17 12.5V25H15V16.5C15 16.1022 14.842 15.7206 14.5607 15.4393C14.2794 15.158 13.8978 15 13.5 15C13.1022 15 12.7206 15.158 12.4393 15.4393C12.158 15.7206 12 16.1022 12 16.5V29.738C12 35.405 16.595 40 22.263 40C26.057 40 29.542 37.906 31.323 34.556L37.23 23.449C37.3437 23.2399 37.415 23.0105 37.44 22.7739C37.465 22.5372 37.4432 22.298 37.3757 22.0698C37.3083 21.8416 37.1965 21.6289 37.0468 21.4439C36.8972 21.2589 36.7126 21.1052 36.5035 20.9915C36.2944 20.8778 36.065 20.8065 35.8284 20.7815C35.5917 20.7565 35.3525 20.7783 35.1243 20.8458C34.8961 20.9132 34.6834 21.025 34.4984 21.1747C34.3134 21.3243 34.1597 21.5089 34.046 21.718L31.874 25.627C31.374 26.529 30 26.173 30 25.141" fill="#C4C9DA"/>
<path fill-rule="evenodd" clip-rule="evenodd" d="M24 4C35.046 4 44 12.954 44 24C44 35.046 35.046 44 24 44C12.954 44 4 35.046 4 24C4 12.954 12.954 4 24 4ZM42.095 24C42.095 14.006 33.994 5.905 24 5.905C14.006 5.905 5.905 14.006 5.905 24C5.905 33.994 14.006 42.095 24 42.095C33.994 42.095 42.095 33.994 42.095 24Z" fill="#C4C9DA"/>
</svg>