<svg xmlns="http://www.w3.org/2000/svg" width="24" height="24" viewBox="0 0 24 24" fill="none">
<path d="M1.40625 7.07812H22.5938V5.9115L12 1.45312L1.40625 5.9115V7.07812ZM11.2969 4.26562H12.7031V5.67188H11.2969V4.26562Z" fill="#3267F6"/>
<path d="M1.40625 7.07812H22.5938V5.9115L12 1.45312L1.40625 5.9115V7.07812ZM11.2969 4.26562H12.7031V5.67188H11.2969V4.26562Z" fill="#3267F6"/>
<path d="M1.40625 7.07812H22.5938V5.9115L12 1.45312L1.40625 5.9115V7.07812ZM11.2969 4.26562H12.7031V5.67188H11.2969V4.26562Z" fill="#3267F6"/>
<path d="M1.40625 7.07812H22.5938V5.9115L12 1.45312L1.40625 5.9115V7.07812ZM11.2969 4.26562H12.7031V5.67188H11.2969V4.26562Z" fill="#3267F6"/>
<path d="M1.40625 7.07812H22.5938V5.9115L12 1.45312L1.40625 5.9115V7.07812ZM11.2969 4.26562H12.7031V5.67188H11.2969V4.26562Z" fill="#3267F6"/>
<path d="M0 9.89062C0.775219 9.89062 1.40625 10.5217 1.40625 11.2969H22.5938C22.5938 10.5217 23.2248 9.89062 24 9.89062V8.48438H0V9.89062Z" fill="#3267F6"/>
<path d="M0 9.89062C0.775219 9.89062 1.40625 10.5217 1.40625 11.2969H22.5938C22.5938 10.5217 23.2248 9.89062 24 9.89062V8.48438H0V9.89062Z" fill="#3267F6"/>
<path d="M0 9.89062C0.775219 9.89062 1.40625 10.5217 1.40625 11.2969H22.5938C22.5938 10.5217 23.2248 9.89062 24 9.89062V8.48438H0V9.89062Z" fill="#3267F6"/>
<path d="M0 9.89062C0.775219 9.89062 1.40625 10.5217 1.40625 11.2969H22.5938C22.5938 10.5217 23.2248 9.89062 24 9.89062V8.48438H0V9.89062Z" fill="#3267F6"/>
<path d="M0 9.89062C0.775219 9.89062 1.40625 10.5217 1.40625 11.2969H22.5938C22.5938 10.5217 23.2248 9.89062 24 9.89062V8.48438H0V9.89062Z" fill="#3267F6"/>
<path d="M22.5938 19.7344H1.40625V21.1406H0V22.5469H24V21.1406H22.5938V19.7344Z" fill="#3267F6"/>
<path d="M22.5938 19.7344H1.40625V21.1406H0V22.5469H24V21.1406H22.5938V19.7344Z" fill="#3267F6"/>
<path d="M22.5938 19.7344H1.40625V21.1406H0V22.5469H24V21.1406H22.5938V19.7344Z" fill="#3267F6"/>
<path d="M22.5938 19.7344H1.40625V21.1406H0V22.5469H24V21.1406H22.5938V19.7344Z" fill="#3267F6"/>
<path d="M22.5938 19.7344H1.40625V21.1406H0V22.5469H24V21.1406H22.5938V19.7344Z" fill="#3267F6"/>
<path d="M2.10938 12.7031H4.96875V18.3281H2.10938V12.7031Z" fill="#3267F6"/>
<path d="M2.10938 12.7031H4.96875V18.3281H2.10938V12.7031Z" fill="#3267F6"/>
<path d="M2.10938 12.7031H4.96875V18.3281H2.10938V12.7031Z" fill="#3267F6"/>
<path d="M2.10938 12.7031H4.96875V18.3281H2.10938V12.7031Z" fill="#3267F6"/>
<path d="M2.10938 12.7031H4.96875V18.3281H2.10938V12.7031Z" fill="#3267F6"/>
<path d="M7.78125 12.7031H10.5938V18.3281H7.78125V12.7031Z" fill="#3267F6"/>
<path d="M7.78125 12.7031H10.5938V18.3281H7.78125V12.7031Z" fill="#3267F6"/>
<path d="M7.78125 12.7031H10.5938V18.3281H7.78125V12.7031Z" fill="#3267F6"/>
<path d="M7.78125 12.7031H10.5938V18.3281H7.78125V12.7031Z" fill="#3267F6"/>
<path d="M7.78125 12.7031H10.5938V18.3281H7.78125V12.7031Z" fill="#3267F6"/>
<path d="M13.4062 12.7031H16.2188V18.3281H13.4062V12.7031Z" fill="#3267F6"/>
<path d="M13.4062 12.7031H16.2188V18.3281H13.4062V12.7031Z" fill="#3267F6"/>
<path d="M13.4062 12.7031H16.2188V18.3281H13.4062V12.7031Z" fill="#3267F6"/>
<path d="M13.4062 12.7031H16.2188V18.3281H13.4062V12.7031Z" fill="#3267F6"/>
<path d="M13.4062 12.7031H16.2188V18.3281H13.4062V12.7031Z" fill="#3267F6"/>
<path d="M19.0312 12.7031H21.8906V18.3281H19.0312V12.7031Z" fill="#3267F6"/>
<path d="M19.0312 12.7031H21.8906V18.3281H19.0312V12.7031Z" fill="#3267F6"/>
<path d="M19.0312 12.7031H21.8906V18.3281H19.0312V12.7031Z" fill="#3267F6"/>
<path d="M19.0312 12.7031H21.8906V18.3281H19.0312V12.7031Z" fill="#3267F6"/>
<path d="M19.0312 12.7031H21.8906V18.3281H19.0312V12.7031Z" fill="#3267F6"/>
</svg>