<svg xmlns="http://www.w3.org/2000/svg" width="24" height="24" viewBox="0 0 24 24" fill="none">
<path d="M6.34303 4.93801C6.43601 5.03089 6.50976 5.14118 6.56009 5.26257C6.61041 5.38397 6.63632 5.5141 6.63632 5.64551C6.63632 5.77693 6.61041 5.90706 6.56009 6.02846C6.50976 6.14985 6.43601 6.26014 6.34303 6.35301C4.84247 7.85383 3.99948 9.88922 3.99948 12.0115C3.99948 14.1338 4.84247 16.1692 6.34303 17.67C6.43854 17.7623 6.51472 17.8726 6.56713 17.9946C6.61954 18.1166 6.64713 18.2478 6.64828 18.3806C6.64943 18.5134 6.62413 18.6451 6.57385 18.768C6.52357 18.8909 6.44932 19.0025 6.35542 19.0964C6.26153 19.1903 6.14988 19.2646 6.02698 19.3148C5.90409 19.3651 5.77241 19.3904 5.63963 19.3893C5.50685 19.3881 5.37563 19.3605 5.25362 19.3081C5.13162 19.2557 5.02128 19.1795 4.92903 19.084C1.02203 15.178 1.02203 8.84402 4.92903 4.93801C5.11656 4.75054 5.37087 4.64523 5.63603 4.64523C5.90119 4.64523 6.1555 4.75054 6.34303 4.93801ZM19.075 4.93801C22.981 8.84502 22.981 15.178 19.075 19.084C18.8875 19.2717 18.6332 19.3771 18.3679 19.3772C18.1026 19.3773 17.8482 19.272 17.6605 19.0845C17.4729 18.897 17.3674 18.6426 17.3673 18.3774C17.3672 18.1121 17.4725 17.8577 17.66 17.67C19.1606 16.1692 20.0036 14.1338 20.0036 12.0115C20.0036 9.88922 19.1606 7.85383 17.66 6.35301C17.4724 6.16537 17.367 5.91088 17.367 5.64551C17.367 5.38015 17.4724 5.12566 17.66 4.93801C17.8477 4.75037 18.1022 4.64496 18.3675 4.64496C18.6329 4.64496 18.8874 4.75037 19.075 4.93801ZM9.31003 7.81201C9.4975 7.99954 9.60282 8.25385 9.60282 8.51901C9.60282 8.78418 9.4975 9.03849 9.31003 9.22601C8.94598 9.59003 8.6572 10.0222 8.46018 10.4978C8.26315 10.9734 8.16175 11.4832 8.16175 11.998C8.16175 12.5128 8.26315 13.0226 8.46018 13.4982C8.6572 13.9738 8.94598 14.406 9.31003 14.77C9.40287 14.8629 9.47651 14.9732 9.52673 15.0946C9.57695 15.2159 9.60278 15.346 9.60273 15.4774C9.60269 15.6087 9.57677 15.7388 9.52646 15.8601C9.47615 15.9814 9.40244 16.0917 9.30953 16.1845C9.21662 16.2774 9.10633 16.351 8.98496 16.4012C8.8636 16.4514 8.73352 16.4773 8.60218 16.4772C8.47083 16.4772 8.34077 16.4513 8.21944 16.4009C8.09811 16.3506 7.98787 16.2769 7.89503 16.184C6.78486 15.0738 6.16117 13.5681 6.16117 11.998C6.16117 10.428 6.78486 8.92222 7.89503 7.81201C7.9879 7.71904 8.09819 7.64528 8.21959 7.59495C8.34099 7.54463 8.47111 7.51873 8.60253 7.51873C8.73394 7.51873 8.86407 7.54463 8.98547 7.59495C9.10687 7.64528 9.21716 7.71904 9.31003 7.81201ZM16.268 7.81201C17.3782 8.92222 18.0019 10.428 18.0019 11.998C18.0019 13.5681 17.3782 15.0738 16.268 16.184C16.0794 16.3662 15.8268 16.467 15.5646 16.4647C15.3024 16.4624 15.0516 16.3572 14.8662 16.1718C14.6808 15.9864 14.5756 15.7356 14.5734 15.4734C14.5711 15.2112 14.6719 14.9586 14.854 14.77C15.2181 14.406 15.5069 13.9738 15.7039 13.4982C15.9009 13.0226 16.0023 12.5128 16.0023 11.998C16.0023 11.4832 15.9009 10.9734 15.7039 10.4978C15.5069 10.0222 15.2181 9.59003 14.854 9.22601C14.6719 9.03741 14.5711 8.78481 14.5734 8.52261C14.5756 8.26042 14.6808 8.0096 14.8662 7.8242C15.0516 7.63879 15.3024 7.53362 15.5646 7.53134C15.8268 7.52906 16.0794 7.62986 16.268 7.81201ZM12.082 10.582C12.4799 10.582 12.8614 10.74 13.1427 11.0214C13.424 11.3027 13.582 11.6842 13.582 12.082C13.582 12.4798 13.424 12.8614 13.1427 13.1427C12.8614 13.424 12.4799 13.582 12.082 13.582C11.6842 13.582 11.3027 13.424 11.0214 13.1427C10.7401 12.8614 10.582 12.4798 10.582 12.082C10.582 11.6842 10.7401 11.3027 11.0214 11.0214C11.3027 10.74 11.6842 10.582 12.082 10.582Z" fill="#3267F6"/>
</svg>