<?xml version="1.0" encoding="utf-8"?>
<!-- Generator: Adobe Illustrator 26.0.2, SVG Export Plug-In . SVG Version: 6.00 Build 0)  -->
<svg width="132" height="40" version="1.1" xmlns="http://www.w3.org/2000/svg" xmlns:xlink="http://www.w3.org/1999/xlink" x="0px" y="0px"
	 viewBox="0 0 132 40" style="enable-background:new 0 0 132 40;" xml:space="preserve">
<style type="text/css">
	.st0{display:none;}
	.st1{display:inline;}
	.st2{fill:#0038FF;}
	.st3{display:none;fill:none;}
	.st4{clip-path:url(#SVGID_00000078024595055668194430000002577231033806603925_);}
	.st5{opacity:0.41;fill:#93B7CD;}
	.st6{fill:url(#SVGID_00000092423322649903335880000000730866843469672632_);}
	.st7{opacity:0.77;fill:#E3F4FC;}
	.st8{opacity:0.21;fill:#FFFFFF;}
	.st9{opacity:0.28;fill:#83D4F6;}
	.st10{opacity:0.76;fill:url(#SVGID_00000083777886246634348450000018115443003955812505_);}
	.st11{opacity:0.55;fill:url(#SVGID_00000135651439853033453590000004083464985830142649_);}
	.st12{opacity:0.11;fill:#93B7CD;}
	.st13{opacity:0.45;fill:#FFFFFF;}
	.st14{fill:#FFFFFF;}
	.st15{opacity:0.38;fill:#93B7CD;}
	.st16{fill:#EC1C24;}
	.st17{opacity:0.22;fill:#DA1F26;}
	.st18{opacity:6.000000e-02;fill:#FFFFFF;}
	.st19{opacity:0.17;fill:#941C1E;}
	.st20{opacity:8.000000e-02;fill:#941C1E;}
	.st21{opacity:0.24;fill:#EC1C24;}
	.st22{opacity:0.4;fill:#EC1C24;}
	.st23{opacity:6.000000e-02;fill:#40101F;}
	.st24{opacity:0.24;fill:#941C1E;}
	.st25{opacity:0.49;fill:#711B17;}
	.st26{opacity:3.000000e-02;fill:#FFFFFF;}
	.st27{opacity:0.11;fill:#941C1E;}
	.st28{opacity:4.000000e-02;fill:#FFFFFF;}
	.st29{opacity:7.000000e-02;fill:#711B17;}
	.st30{fill:#DD1F26;}
	.st31{fill:#DBE7F5;}
	.st32{opacity:0.17;fill:#FFFFFF;}
	.st33{opacity:0.1;fill:#97BFE0;}
	.st34{opacity:7.000000e-02;fill:#97BFE0;}
	.st35{opacity:7.000000e-02;}
	.st36{fill:#97BFE0;}
	.st37{opacity:9.000000e-02;fill:#97BFE0;}
	.st38{opacity:0.11;}
	.st39{opacity:0.2;fill:#FFFFFF;}
	.st40{opacity:0.37;}
	.st41{fill:#99B4D9;}
	.st42{opacity:0.25;}
	.st43{opacity:9.000000e-02;fill:#FFFFFF;}
	.st44{opacity:0.27;fill:#FFFFFF;}
	.st45{opacity:0.44;fill:#0099D6;}
	.st46{opacity:0.29;fill:#A0D3F1;}
	.st47{opacity:0.25;fill:#A0D3F1;}
	.st48{fill:#C6DFF4;}
	.st49{opacity:0.11;fill:#0099D6;}
	.st50{opacity:0.17;fill:#93B7CD;}
	.st51{opacity:0.12;fill:#AECAE1;}
	.st52{opacity:0.12;fill:#0099D6;}
</style>
<g id="Layer_1">
	<g id="Layer_1_00000168118104644554160460000003772654085527303855_" class="st0">
		<g class="st1">
			<g>
				<path class="st2" d="M15.2,31.9C12.6,32,10,31.2,8,29.5l2.1-3.7c1.7,1.2,3.3,1.8,4.7,1.8c0.4,0,0.8-0.1,1.2-0.3
					c0.1-0.1,0.2-0.2,0.3-0.3c0.1-0.1,0.1-0.2,0.1-0.4c0-0.1,0-0.2-0.1-0.3c-0.1-0.1-0.2-0.2-0.3-0.3c-0.1-0.1-0.2-0.1-0.3-0.2
					c-0.2-0.1-0.3-0.1-0.5-0.2s-0.4-0.1-0.6-0.2c-0.2-0.1-0.4-0.2-0.6-0.2c-0.3-0.1-0.5-0.1-0.7-0.2c-1.2-0.4-2.4-1.1-3.4-1.9
					c-0.4-0.4-0.7-0.9-0.9-1.4s-0.3-1.1-0.3-1.6c0-0.8,0.1-1.6,0.5-2.3c0.3-0.7,0.8-1.3,1.5-1.8c1.5-1,3.3-1.5,5.1-1.5
					c2.4-0.1,4.8,0.6,6.7,2l-2,3.5c-1.3-0.8-2.8-1.3-4.3-1.4c-0.4,0-0.8,0.1-1.2,0.3c-0.1,0.1-0.2,0.1-0.3,0.2s-0.1,0.2-0.1,0.4
					c0,0.3,0.1,0.5,0.5,0.7c0.6,0.3,1.1,0.5,1.7,0.7c1.3,0.4,2.6,1,3.8,1.7c0.6,0.4,1.1,1,1.4,1.6s0.5,1.4,0.5,2.1
					c0,0.8-0.2,1.6-0.5,2.3c-0.4,0.7-0.9,1.3-1.6,1.7C18.9,31.5,17.1,32,15.2,31.9z"/>
				<path class="st2" d="M25.2,31.6V8h6v23.6H25.2z"/>
				<path class="st2" d="M42.3,32c-2.6,0-4.8-0.8-6.3-2.4s-2.3-3.7-2.3-6.3s0.8-4.8,2.4-6.3c1.5-1.6,3.6-2.4,6.3-2.4
					c2.8,0,4.9,0.8,6.4,2.3s2.3,3.7,2.3,6.4c0,2.6-0.8,4.7-2.3,6.3C47,31.2,44.7,32.1,42.3,32z M39.3,23.3c0,2.7,1,4,3,4s3-1.3,3-4
					s-1-4-3-4S39.3,20.6,39.3,23.3z"/>
				<path class="st2" d="M64.5,26l1.7,4.1c-1.7,1.3-3.7,1.9-5.8,1.9c-0.8,0-1.6-0.1-2.4-0.4c-0.8-0.3-1.5-0.7-2.1-1.3
					c-1.1-1.1-1.7-2.6-1.7-4.7v-6.7h-2.1V15h2.1V9.9h5.9V15H65v4h-4.9v5.9c0,1.3,0.7,2,2,2C63,26.8,63.8,26.5,64.5,26z"/>
				<path d="M79.6,26l1.7,4.1c-1.7,1.3-3.7,1.9-5.8,1.9c-0.8,0-1.6-0.1-2.4-0.4s-1.5-0.7-2.1-1.3c-1.1-1.1-1.7-2.6-1.7-4.7v-6.7
					h-2.1V15h2.1V9.9h5.9V15h4.9v4h-4.9v5.9c0,1.3,0.7,2,2,2C78.1,26.8,78.9,26.5,79.6,26z"/>
				<path d="M82.8,31.6V15.1h5.9v16.5H82.8z"/>
				<path d="M99.4,31.9c-2.2,0.1-4.2-0.7-5.8-2.2c-1.6-1.5-2.4-3.5-2.4-6.3c0-2.7,0.8-4.9,2.4-6.5c1.7-1.6,3.8-2.4,6.4-2.4
					c1.5,0,2.9,0.3,4.2,1c1.3,0.7,2.4,1.7,3,3.1l-4.4,2.3c-0.2-0.4-0.5-0.8-0.9-1.1c-0.4-0.3-0.9-0.5-1.3-0.6c-0.5-0.1-1,0-1.5,0.1
					c-0.5,0.2-0.9,0.4-1.2,0.8c-0.6,0.6-0.9,1.7-0.9,3.1c0,1.3,0.3,2.3,0.8,2.9c0.3,0.3,0.6,0.5,0.9,0.7c0.4,0.2,0.8,0.2,1.1,0.2
					c1.3,0,2.4-0.8,3.2-2.2l4.2,2.2C105.9,30.3,103.2,31.9,99.4,31.9z"/>
				<path d="M116.4,14.7c2-0.1,3.9,0.6,5.5,1.8c1.4,1.2,2.1,2.9,2.1,5.1v10.1h-5.1V30c-0.6,0.7-1.4,1.2-2.2,1.6
					c-0.9,0.4-1.8,0.5-2.7,0.5c-1.5,0.1-3-0.4-4.1-1.4c-0.5-0.5-0.9-1.1-1.2-1.7c-0.3-0.6-0.4-1.3-0.3-2c0-1.2,0.4-2.4,1.2-3.3
					c0.8-0.8,1.9-1.5,3-1.8c1.3-0.3,2.6-0.5,4-0.5c0.7,0,1.5,0.1,2.2,0.1c0-0.3,0-0.7-0.2-1c-0.1-0.3-0.4-0.6-0.6-0.8
					c-0.6-0.4-1.3-0.6-2-0.6c-1.8,0.1-3.5,0.7-4.9,1.7l-2.2-3.5c1-0.9,2.1-1.5,3.4-1.9C113.5,14.9,115,14.6,116.4,14.7z M115.7,27.6
					c0.4,0,0.7-0.1,1.1-0.2c0.3-0.1,0.7-0.4,0.9-0.6c0.6-0.6,0.9-1.4,1-2.2h-1.9c-1.8,0-2.7,0.6-2.7,1.6c0,0.2,0,0.4,0.1,0.6
					s0.2,0.3,0.3,0.5c0.2,0.2,0.3,0.3,0.5,0.3C115.2,27.6,115.4,27.7,115.7,27.6z"/>
			</g>
		</g>
	</g>
	<g id="Layer_2_00000042710231389053613670000013847651306811081647_">
		<rect y="7.5" class="st3" width="125.4" height="23.9"/>
		<g>
			<g>
				<g>
					<g>
						<defs>
							<rect id="SVGID_1_" x="9.4" y="7.5" width="116" height="24"/>
						</defs>
						<clipPath id="SVGID_00000133528749839677301210000008728341834262207392_">
							<use xlink:href="#SVGID_1_"  style="overflow:visible;"/>
						</clipPath>
						<g style="clip-path:url(#SVGID_00000133528749839677301210000008728341834262207392_);">
							<path class="st2" d="M16.6,31.4c-2.6,0.1-5.2-0.8-7.2-2.4l2.1-3.7c1.7,1.2,3.3,1.8,4.7,1.8c0.4,0,0.8-0.1,1.2-0.3
								c0.1-0.1,0.2-0.2,0.3-0.3c0.1-0.1,0.1-0.2,0.1-0.4c0-0.1,0-0.2-0.1-0.3c-0.1-0.1-0.2-0.2-0.3-0.3c-0.1-0.1-0.2-0.1-0.3-0.2
								c-0.2-0.1-0.3-0.1-0.5-0.2S16.2,25,16,24.9c-0.2-0.1-0.4-0.2-0.6-0.2c-0.3-0.1-0.5-0.1-0.7-0.2c-1.2-0.4-2.4-1.1-3.4-1.9
								c-0.4-0.4-0.7-0.9-0.9-1.4s-0.3-1.1-0.3-1.6c0-0.8,0.1-1.6,0.5-2.3c0.3-0.7,0.8-1.3,1.5-1.8c1.5-1,3.3-1.5,5.1-1.5
								c2.4-0.1,4.8,0.6,6.7,2l-2,3.5c-1.3-0.8-2.8-1.3-4.3-1.4c-0.4,0-0.8,0.1-1.2,0.3c-0.1,0.1-0.2,0.1-0.3,0.2
								C16,18.7,16,18.8,16,19c0,0.3,0.1,0.5,0.5,0.7c0.6,0.3,1.1,0.5,1.7,0.7c1.3,0.4,2.6,1,3.8,1.7c0.6,0.4,1.1,1,1.4,1.6
								s0.5,1.4,0.5,2.1c0,0.8-0.2,1.6-0.5,2.3c-0.4,0.7-0.9,1.3-1.6,1.7C20.3,31,18.5,31.5,16.6,31.4z"/>
							<path class="st2" d="M26.6,31.1V7.5h6v23.6H26.6z"/>
							<path class="st2" d="M43.7,31.5c-2.6,0-4.8-0.8-6.3-2.4s-2.3-3.7-2.3-6.3s0.8-4.8,2.4-6.3c1.5-1.6,3.6-2.4,6.3-2.4
								c2.8,0,4.9,0.8,6.4,2.3s2.3,3.7,2.3,6.4c0,2.6-0.8,4.7-2.3,6.3C48.4,30.8,46.1,31.6,43.7,31.5z M40.7,22.8c0,2.7,1,4,3,4
								s3-1.3,3-4s-1-4-3-4S40.7,20.1,40.7,22.8z"/>
							<path class="st2" d="M65.9,25.5l1.7,4.1c-1.7,1.3-3.7,1.9-5.8,1.9c-0.8,0-1.6-0.1-2.4-0.4c-0.8-0.3-1.5-0.7-2.1-1.3
								c-1.1-1.1-1.7-2.6-1.7-4.7v-6.7h-2.1v-3.9h2.1V9.4h5.9v5.1h4.9v3.9h-4.9v5.9c0,1.3,0.7,2,2,2C64.4,26.3,65.2,26,65.9,25.5z"
								/>
							<path d="M81,25.5l1.7,4.1c-1.7,1.3-3.7,1.9-5.8,1.9c-0.8,0-1.6-0.1-2.4-0.4c-0.8-0.3-1.5-0.7-2.1-1.3
								c-1.1-1.1-1.7-2.6-1.7-4.7v-6.7h-2.1v-3.9h2.1V9.4h5.9v5.1h4.9v3.9h-4.9v5.9c0,1.3,0.7,2,2,2C79.4,26.3,80.3,26,81,25.5z"/>
							<path d="M84.2,31.1V14.6h5.9v16.5H84.2z"/>
							<path d="M100.8,31.4c-2.2,0.1-4.2-0.7-5.8-2.2c-1.6-1.5-2.4-3.5-2.4-6.3c0-2.7,0.8-4.9,2.4-6.5c1.7-1.6,3.8-2.4,6.4-2.4
								c1.5,0,2.9,0.3,4.2,1c1.3,0.7,2.4,1.7,3,3.1l-4.4,2.3c-0.2-0.4-0.5-0.8-0.9-1.1c-0.4-0.3-0.9-0.5-1.3-0.6
								c-0.5-0.1-1,0-1.5,0.1c-0.5,0.2-0.9,0.4-1.2,0.8c-0.6,0.6-0.9,1.7-0.9,3.1c0,1.3,0.3,2.3,0.8,2.9c0.3,0.3,0.6,0.5,0.9,0.7
								c0.4,0.2,0.8,0.2,1.1,0.2c1.3,0,2.4-0.8,3.2-2.2l4.2,2.2C107.3,29.9,104.6,31.4,100.8,31.4z"/>
							<path d="M117.8,14.2c2-0.1,3.9,0.6,5.5,1.8c1.4,1.2,2.1,2.9,2.1,5.1v10.1h-5.1v-1.7c-0.6,0.7-1.4,1.2-2.2,1.6
								c-0.9,0.4-1.8,0.5-2.7,0.5c-1.5,0.1-3-0.4-4.1-1.4c-0.5-0.5-0.9-1.1-1.2-1.7c-0.3-0.6-0.4-1.3-0.3-2c0-1.2,0.4-2.4,1.2-3.3
								c0.8-0.8,1.9-1.5,3-1.8c1.3-0.3,2.6-0.5,4-0.5c0.7,0,1.5,0.1,2.2,0.1c0-0.3,0-0.7-0.2-1c-0.1-0.3-0.4-0.6-0.6-0.8
								c-0.6-0.4-1.3-0.6-2-0.6c-1.8,0.1-3.5,0.7-4.9,1.7l-2.2-3.5c1-0.9,2.1-1.5,3.4-1.9C114.9,14.4,116.4,14.2,117.8,14.2z
								 M117,27.1c0.4,0,0.7-0.1,1.1-0.2c0.3-0.1,0.7-0.4,0.9-0.6c0.6-0.6,0.9-1.4,1-2.2h-1.9c-1.8,0-2.7,0.6-2.7,1.6
								c0,0.2,0,0.4,0.1,0.6s0.2,0.3,0.3,0.5c0.2,0.2,0.3,0.3,0.5,0.3C116.6,27.2,116.8,27.2,117,27.1z"/>
						</g>
					</g>
				</g>
			</g>
		</g>
	</g>
</g>
<g id="Layer_3">
	<g>
		<path class="st5" d="M5.7,22c0.3,1.1,1.9,2,3,1.7c1.1-0.3,1.8-0.9,1.9-1.6c0.1-0.6-0.3-1.3-0.5-1.8c-0.3-1.1-1.7-1.2-2.9-0.9
			C6.1,19.7,5.4,20.8,5.7,22z"/>
		
			<radialGradient id="SVGID_00000165944899119148329600000013461292854392475536_" cx="256.3077" cy="32.1787" r="0.9832" gradientTransform="matrix(1.0346 -0.2238 0.2172 0.9763 -263.611 47.0841)" gradientUnits="userSpaceOnUse">
			<stop  offset="0" style="stop-color:#F1F9FD"/>
			<stop  offset="1" style="stop-color:#D3DDF0"/>
		</radialGradient>
		<path style="fill:url(#SVGID_00000165944899119148329600000013461292854392475536_);" d="M5.7,21.8c0.3,1.1,1.3,1.9,3,1.8
			c1.2-0.2,2.5-0.9,1.8-3.1c-0.5-1.5-1.9-1.6-3-1.3C6.5,19.6,5.4,20.5,5.7,21.8z"/>
		<path class="st7" d="M5.7,21.6c0.2,0.9,2,1.5,2.9,1.2c0.8-0.2,1.5-1.7,1.2-2.6c-0.2-0.9-1.4-0.9-2.3-0.7
			C6.7,19.8,5.5,20.8,5.7,21.6z"/>
		<path class="st5" d="M6.9,20c0,0.4,0.4,0.7,1.2,0.5c0.6-0.1,1.3-0.8,1.2-1.2c0-0.1-0.8,0-0.8,0.1c-0.1,0.2,0.3,0.7-0.3,0.8
			C7.6,19.5,6.8,18.8,6.9,20z"/>
		<path class="st8" d="M6.8,22.1c0.1,0.5,1.3,1.2,2,1c1.2-0.3,1.2-2.4,1-2.8c-0.1-0.5-1.4,0.4-2.1,0.6C7.1,21.1,6.7,21.6,6.8,22.1z"
			/>
		<path class="st9" d="M5.8,22.1c0.1,0.5,1,1.5,1.4,1.3c0.4-0.1,1-0.8,0.8-1.3c-0.1-0.2-0.9-0.6-1.1-1c-0.3-0.6,0-1.3-0.2-1.2
			C6.2,19.9,5.4,21.2,5.8,22.1z"/>
		
			<radialGradient id="SVGID_00000145745350878997813010000002110253449375587720_" cx="-674.0196" cy="-168.2083" r="1.9142" gradientTransform="matrix(1.1043 -0.2392 0.233 1.0489 791.5364 36.7903)" gradientUnits="userSpaceOnUse">
			<stop  offset="0" style="stop-color:#F1F9FD"/>
			<stop  offset="1" style="stop-color:#D3DDF0"/>
		</radialGradient>
		<path style="opacity:0.76;fill:url(#SVGID_00000145745350878997813010000002110253449375587720_);" d="M8.5,23.4
			c0.6-0.1,1.9-1.6,1.8-1.9c-0.1-0.2-2.1,0.4-2.9,0.2c-1.3-0.4-0.7-2.1-1.3-1.6C4.7,22.2,7.1,24.2,8.5,23.4z"/>
		
			<radialGradient id="SVGID_00000068670677885404768870000005054473244685794477_" cx="5.8075" cy="20.2714" r="1.6336" gradientTransform="matrix(0.9768 -0.2142 0.2142 0.9768 -2.7728 3.4214)" gradientUnits="userSpaceOnUse">
			<stop  offset="0" style="stop-color:#F1F9FD"/>
			<stop  offset="1" style="stop-color:#D3DDF0"/>
		</radialGradient>
		<path style="opacity:0.55;fill:url(#SVGID_00000068670677885404768870000005054473244685794477_);" d="M6.3,22.7
			c0.5,0.6,2.1,0.9,2.6,0.7c0.6-0.2-1.4-1.1-1.5-1.5c-0.1-0.4-0.3-1.8-0.9-1.7C5.2,20.5,5.7,22.3,6.3,22.7z"/>
		<path class="st12" d="M6.3,22.9c0.7,0.4,1.5,0.8,1.9,0.6c0.3-0.1-1.6-0.5-1.7-0.8c-0.2-0.4-0.4-1.9-0.7-1.7
			C5.5,21.2,5.7,22.4,6.3,22.9z"/>
		<path class="st12" d="M9.3,23.4c2-0.7,1.6-3.2-0.1-4.1C9,19.2,9.1,19.7,8.8,20c-0.2,0.2-0.6,0.4-0.5,0.7c0.4,0.4,2,0.7,0.8,1.7
			c-0.5,0.3-1.6,0.6-1.5,0.9C7.6,23.5,8.7,23.6,9.3,23.4z"/>
		<path class="st13" d="M6.1,20.8C6,21.1,6.2,23,8.7,22.1c1.2-0.6,1.3-1.9,0.9-2.1c-0.3-0.3-0.9,0.9-1.1,1
			C7.3,21.7,6.4,20.3,6.1,20.8z"/>
		<path class="st14" d="M7.1,21.6c0.1,0.3,0.6,0.5,1,0.4C8.5,21.8,9,21,8.9,20.8c-0.1-0.3-0.7,0.1-1.1,0.2C7.5,21.1,7,21.3,7.1,21.6
			z"/>
		<path class="st15" d="M10,19.8c-1-0.9-1.1-0.3-1.2-0.2c-0.3,0.6-1,0.8-1.5,0.6c0,0.3,0.6,0.7,1.6-0.3c1-0.3,1.5,1.5,1.5,1.7
			C10.6,22.3,10.7,20.7,10,19.8z"/>
	</g>
	<g>
		<g>
			<path class="st16" d="M21.7,12.7c0.4,1.8-3.2,3.5-6.9,4.3c-2.1,0.5-3.4,2.2-4.8,1.7c-1.1-0.3-0.7,0.1-1,1
				c-0.2,0.4-0.5,0.6-0.9,0.7c-0.5,0.1-1,0-1.2-0.1c-0.2-0.3-0.5-0.9-0.9-1.6c-0.8-1.4-1.8-3.3-1.7-4.4c0.2-1.1,1.9-2.2,2.4-2.8
				c1.3-1.8,1.4-1.8,4.6-3.4c3.7-1.5,7.6,1.1,9.3,3.2C21.3,11.7,21.6,12.3,21.7,12.7z"/>
			<path class="st17" d="M19.6,10.9c0.3,1.4-0.4,2.6-1.5,2.8C17,14,17.3,12.6,17,11.2c-0.3-1.4-4.8-3.5-3.6-3.7
				C14.5,7.2,19.3,9.5,19.6,10.9z"/>
			<path class="st18" d="M8.3,15.7c0.1,1.1-0.1,3.6-0.3,3.9c-0.5-0.1,0.2-3.9-0.2-5.6c-0.1-0.6,0-1.8,0.7-3.2
				c0.7-1.4,1.7-2.8,4.1-3.3C13.7,7.3,7.9,9.9,8.3,15.7z"/>
			<path class="st19" d="M14.5,9.7c0.2,0.8-0.9,1.9-1.9,2.1c-0.5,0.1-1.3,1-2,1.7c-0.4,0.7,1.9,1.4,1.2,2.1
				c-0.6,0.6-2.4-0.9-2.4-1.2c-0.2-0.8,2.2-5.5,3.2-5.8C13.5,8.4,14.3,8.9,14.5,9.7z"/>
			<path class="st18" d="M16.2,12c0.1,0.6,0.3,1.2-0.3,1.3c-0.7,0.1-3.8,1.4-4,0.8c-0.1-0.6,1.7-3.4,2.4-3.5
				C15,10.5,16.1,11.4,16.2,12z"/>
			<path class="st20" d="M6.8,13.6c0.1,0.6,0.6,1,0.1,1.1c-0.5,0.1-1.8,0-1.9-0.6c-0.1-0.6,2.7-4.3,3.2-4.4
				C8.7,9.6,6.7,13.1,6.8,13.6z"/>
			<path class="st21" d="M8.3,17.4c0.2,0.7-0.1,2.6-0.7,2.7c-0.5,0.1-2.3-3.2-2.5-3.9c-0.2-0.7,2.4-2.4,3-2.5
				C8.7,13.5,8.2,16.7,8.3,17.4z"/>
			<path class="st18" d="M18.6,12.4c0.2,1.1-0.5,3.7-2.1,4c-1.6,0.4-6.4,0.3-6.6-0.8c-0.2-1.1,3.3-5.4,4.9-5.7
				C16.4,9.6,18.3,11.3,18.6,12.4z"/>
			<path class="st21" d="M18.1,13c0.2,1-3.7,3.3-5,3.6c-1.3,0.3-3.4-0.4-3.7-1.4s1.1-1,2.4-1.3c0.6-0.1,1.6,0.3,2.7,0
				C16.2,13.4,18,12.4,18.1,13z"/>
			<path class="st22" d="M19.4,11.2c0.3,1.2-0.5,2.5-1.8,2.7c-1.2,0.3-2.5,1.9-2.7,0.6c-0.1-0.4,0.3-2.6,0.4-3.4
				c0-1.6-1.3-3.1-0.4-3.2C16.1,7.7,19.1,10,19.4,11.2z"/>
			<path class="st23" d="M20.5,11.2c0.1,0.5-0.1,0.8-0.7,0.9c-0.6,0.1-0.7,0-0.8-0.4c-0.2-1.3-2.4-2.9-2-2.9
				C17.5,8.6,20.4,10.7,20.5,11.2z"/>
			<path class="st19" d="M21.7,12.7c0-0.2-0.2-0.5-0.3-0.8c-0.6-0.4-1.1-0.9-1.7-1.2c-0.7-0.4-1.1-1.2-1.7-1.7
				c-0.7-0.5-1.7-0.6-2.5-1.1c-0.2-0.1-0.4-0.2-0.6-0.3c-0.6-0.1-1.1-0.1-1.7-0.1c0.2,0.6,1,0.7,1.8,1.1c0.6,0.3,1.8,0.9,2.2,1.6
				c0.3,0.5-0.1,0.6,0.7,1.1c0.5,0.3,0.4,0.8-0.1,1.1c-0.2,0.1-0.2,0.5-0.4,0.7c-0.2,0.2-0.6,0.4-0.9,0.6c-1.2,0.5-2.7,0.8-3.7,1.7
				c-1.8,1.4,1.3,1.7,2.5,1.6C18.7,16,22.1,14.4,21.7,12.7z"/>
			<path class="st19" d="M19.6,10.6c0.2,1.1-0.3,2.1-1.2,2.2c-0.9,0.2-0.8-1-1-2.1S14.1,8.1,15,7.9C15.8,7.7,19.4,9.6,19.6,10.6z"/>
			<path class="st18" d="M12.1,8.6C10,10,8.8,15,8.5,14.1c-0.1-0.4-0.1-4,1.4-5.3c0.2-0.2,1.2-0.8,1.5-0.9C13.2,7,13.9,7.8,12.1,8.6
				z"/>
			<path class="st24" d="M13.7,9c-1.1-0.5-1.7,1-2.1,1.6c-0.5,0.8-1.3,1.2-1.6,2c-0.3,0.8-0.6,1.9-0.7,2.8l-0.1-0.3
				c-0.1,0.3,0.1,0.7,0.2,1c0.7-0.3,1.6-0.2,2.3-0.6c1.2-0.7,1.1,0.6,0.9-0.1c-0.3,0.1-1.8,0.2-2.3-1.2c-0.3-1.1,1.8-3.1,2.7-3.6
				C13.5,10.3,14.8,9.4,13.7,9z"/>
			<path class="st24" d="M15.3,8.9c0.5,0.3-1.3,1.9-3.2,2.4c-0.5,0.2-2.3,3.8-2.6,3.1c-0.2-0.3,0.9-4.2,2.2-5.2
				C13.3,7.9,14.9,8.5,15.3,8.9z"/>
			<path class="st21" d="M17,9.5c0.1,0.6-2.1-1-3.1-0.8c-1,0.2-3,2.2-3.1,1.6c-0.1-0.6,1.4-2.3,2.9-2.6C15.4,7.3,16.9,8.9,17,9.5z"
				/>
			<path class="st25" d="M13.3,9.3c-0.5,0-0.8,0.7-1.2,0.8c0-0.2,0.4-0.6,0.2-0.5c-0.4,0.2-0.5,0.7-0.7,1.1C11,11.5,10.2,12,9.9,13
				c-0.3,0.7-0.3,1.5-0.4,2.1c-0.1,0.3-0.1,0.6,0.2-0.1c0.1-0.2,0-0.4,0.1-0.7c0.1-0.6,0.4-1,0.7-1.4c0.2-0.4,0.4-0.8,0.7-1.2
				c0.4-0.5,0.8-0.9,1.4-1.3c0.3-0.2,0.5-0.4,0.8-0.6C13.5,9.6,13.7,9.4,13.3,9.3z"/>
			<path class="st21" d="M8.4,14.5c0,1.2-0.3,3.3-0.9,3.4c-0.7,0.1-2.5-2.2-2.7-2.8c-0.1-0.6,3.8-4.2,4.5-4.4
				C9.9,10.6,8.2,13.9,8.4,14.5z"/>
			<path class="st18" d="M8.9,14c0,1-0.6,3.8-1.2,3.9C6.6,18,5.1,15.6,5,15.1c-0.2-0.8,1.3-1,2.4-2.1c1.1-1.2,1.7-2.9,2.2-3.1
				C10.6,9.4,8.9,13.5,8.9,14z"/>
			<path class="st26" d="M9,12.3c0.1,0.4-1.1,3.1-1.7,3.2c-0.6,0.1-1.1-0.1-1.2-0.4C6,14.7,6.4,14.3,7,14.2
				C7.6,14.1,8.9,11.9,9,12.3z"/>
			<path class="st24" d="M9.5,16.9c0.1,0.5-0.1,1.2-0.2,1.8C9.1,19.4,9,20,8.6,20.1c-0.2,0.1-0.5,0.3-0.5,0.2
				c-0.1-0.1,0.1-0.4,0.1-0.6c0-0.5,0-1.2-0.1-1.6c-0.2-0.9,1-5.4,1.6-5.6c0.2-0.1-0.1,0.6-0.3,1.2c-0.1,0.3,0,0.6-0.1,0.9
				C9.3,15.4,9.4,16.1,9.5,16.9z"/>
			<path class="st27" d="M7.3,18.8c0.1,0.3-0.1,1-0.3,1c-0.2,0-0.5-0.5-0.5-0.8c-0.1-0.3-1.5-2.6-1.3-2.7
				C5.4,16.3,7.2,18.5,7.3,18.8z"/>
			<path class="st27" d="M8.6,9.5c0.2,0.2-0.7,2.6-1.1,3.1c-0.4,0.5-1.7,1.2-2.2,0.9c-0.2-0.2,0.6-1.1,1.1-1.6
				C6.8,11.3,8.3,9.3,8.6,9.5z"/>
			<path class="st18" d="M13.2,7.5c0.1,0.3-1,1.2-1.7,1.4C10.7,9,8.9,13.3,8.8,13c-0.1-0.3,1.4-4.5,2.2-4.6
				C11.8,8.2,11.9,7.5,13.2,7.5z"/>
			<path class="st18" d="M12.5,7.9c0,0.2-0.7,0.9-1.3,1c-0.6,0.1-1.9,3.3-1.9,3.1c0-0.2,1-3.3,1.6-3.4C11.5,8.4,11.6,7.9,12.5,7.9z"
				/>
			<path class="st18" d="M11.8,8.3c0,0.1-0.4,0.5-0.7,0.6S10,10.7,10,10.6c0-0.1,0.6-1.8,0.9-1.9C11.2,8.6,11.2,8.3,11.8,8.3z"/>
			<path class="st28" d="M16.7,12.1c0.1,0.6-1,1.9-1.8,2.1c-0.8,0.2-2.1-0.4-2.2-1c-0.1-0.6,0.9-2.3,1.7-2.5
				C15.2,10.4,16.5,11.5,16.7,12.1z"/>
			<path class="st21" d="M19.1,12.5c0.1,0.7-1.2,0.6-2.1,0.8c-0.8,0.2-4.9,1.7-5.6,1c-1.5-0.9,1.2-4.2,4.5-4.4
				C16.9,9.8,19,11.8,19.1,12.5z"/>
			<path class="st18" d="M16.1,11.7c0.1,0.3-0.8,1.4-1.4,1.5c-0.5,0.1-1,0-1.1-0.3c-0.1-0.3,0.3-1.5,0.8-1.6
				C15,11.2,16,11.4,16.1,11.7z"/>
			<path class="st18" d="M15.3,11.9c0,0.1-0.4,0.6-0.6,0.6c-0.2,0.1-1.1,0.4-1.1,0.3c0-0.1,0.8-1,1-1.1S15.2,11.8,15.3,11.9z"/>
			<path class="st29" d="M9.1,18.6c0.1,0.2-0.5,0.8-0.6,0.9c-0.2,0-0.2-0.4-0.3-0.6C8.1,18.6,8.8,15.1,9,15
				C9.3,14.9,9.3,18.3,9.1,18.6z"/>
			<g>
				<path class="st30" d="M7,20.2L7,20.2L7,20.2L7,20.2c-0.2-0.3-0.5-0.9-0.9-1.6l0,0c-0.6-1.1-1.4-2.5-1.6-3.6l0,0
					c-0.1-0.3-0.1-0.6-0.1-0.9l0,0l0,0l0,0C4.5,13.6,5,13,5.5,12.5l0,0C6,12,6.5,11.6,6.8,11.3l0,0l0,0c0.6-0.9,1-1.3,1.6-1.8l0,0
					c0.6-0.4,1.4-0.9,3-1.7l0,0l0,0l0,0c0.3-0.1,0.7-0.2,1-0.3l0,0c1.7-0.4,3.4,0,4.9,0.7l0,0c1.5,0.7,2.7,1.8,3.5,2.7l0,0
					c0.5,0.6,0.9,1.2,1,1.6l0,0c0,0,0,0,0,0l0,0c0.1,0.4-0.1,0.9-0.4,1.3l0,0c-0.3,0.4-0.9,0.8-1.5,1.2l0,0c-1.3,0.7-3.1,1.4-5,1.8
					l0,0c-0.8,0.2-1.5,0.6-2.2,0.9l0,0c-0.6,0.4-1.2,0.7-1.8,0.8l0,0c-0.3,0.1-0.6,0.1-0.9,0l0,0c-0.3-0.1-0.5-0.1-0.6-0.1l0,0
					c-0.1,0-0.1,0.5-0.1,0.7c0,0.1-0.1,0.3-0.2,0.4l0,0c0,0.1-0.1,0.2-0.3,0.3c0,0-0.3,0.3-0.6,0.3C7.6,20.5,7,20.2,7,20.2z
					 M7.2,20.2c0.1,0,0.2,0,0.3,0l0,0c0.2,0,0.5,0.1,0.7,0.1c0.1-0.1,0.4-0.2,0.6-0.4l0,0c0.2-0.1,0.3-0.2,0.3-0.3l0,0
					c0.1-0.2,0.1-0.4,0.1-0.6l0,0c0-0.2,0-0.3,0.1-0.4l0,0c0-0.1,0.1-0.1,0.2-0.1l0,0c0.1,0,0.3,0,0.6,0.1l0,0
					c0.3,0.1,0.6,0.1,0.9,0l0,0c0.5-0.1,1.1-0.5,1.8-0.8l0,0c0.6-0.4,1.3-0.7,2.2-0.9l0,0c1.4-0.3,2.7-0.7,3.9-1.2l0,0
					c1.1-0.5,2.1-1.1,2.6-1.7l0,0c0.3-0.4,0.5-0.8,0.4-1.3l0,0c0,0,0,0,0,0l0,0c-0.1-0.4-0.4-1-1-1.6l0,0c-0.5-0.6-1.3-1.3-2.1-1.9
					l0,0c-1.7-1.2-3.9-2-6.2-1.5l0,0c-0.3,0.1-0.7,0.2-1,0.3l0,0C9.8,8.7,9,9.2,8.4,9.6l0,0c-0.6,0.4-0.9,0.9-1.6,1.8l0,0l0,0l0,0
					c-0.2,0.3-0.8,0.7-1.3,1.2l0,0c-0.5,0.5-1,1-1.1,1.6l0,0l0,0c0,0.2,0,0.5,0.1,0.8l0,0c0.2,1.1,1,2.5,1.6,3.6l0,0
					c0.4,0.7,0.7,1.3,0.9,1.6l0,0C7.1,20.2,7.1,20.2,7.2,20.2L7.2,20.2z"/>
			</g>
		</g>
		<path class="st18" d="M8,16.7C8.1,17,8.4,19,8,19.1S6.8,17.3,6.7,17c-0.1-0.4,1.8-4.2,2.2-4.3C9.3,12.6,7.9,16.3,8,16.7z"/>
	</g>
	<g>
		<path class="st31" d="M22.1,15.1c-0.7,0.4-1.5,0.4-3,1.2c-2.4,1.3-6.1,2.6-7.1,2.9c-1.1,0.3-2.1,0.3-2.6,0c-0.1-0.1,0.1-1,0.1-2
			c0-0.6-0.1-1.2-0.1-1.7c0.5-0.5,1.7-0.3,3.6-0.6c3.4-0.6,6.3-2.3,7.5-3.5c0.4-0.7-1.2-1.3-0.8-1.4c0.8-0.2,1.3,0,1.6,0.9
			c0.2,0.7,0.7,1.3,1.1,2.1C22.8,13.8,22.6,14.7,22.1,15.1z"/>
		<path class="st32" d="M20.8,10.4c-0.2-0.3-0.4-0.1-0.5,0.2c0.2,0.2,0.2,0.4,0.1,0.7c-1.1,1.2-4,2.9-7.5,3.5
			c-0.8,0.1-1.5,0.2-2.1,0.2c0.6,0.4,1.7,0.7,2,0.6c1.2,0.1,2.5-0.5,3.6-1C17.4,14.2,22.4,12.3,20.8,10.4z M9.4,15.6l0.3-0.3
			c-0.1,0-0.2,0.1-0.3,0.2C9.4,15.5,9.4,15.5,9.4,15.6z"/>
		<path class="st33" d="M11.7,17.5c0.1,0.5-0.5,1.1-1,1.2c-0.5,0.1-1-0.2-1.1-0.7c-0.1-0.5-0.3-2.4,0.2-2.5
			C10.3,15.4,11.6,17,11.7,17.5z"/>
		<path class="st34" d="M15.8,16.1c0.1,0.4-1,1.4-2.4,1.7c-1.3,0.3-3.3,0.6-3.4,0.2c-0.1-0.4-0.6-1.9,0.8-2.2S15.8,15.7,15.8,16.1z"
			/>
		<g class="st35">
			<path class="st36" d="M22.4,12.8c-0.4-0.8-0.9-1.3-1.1-2.1c-0.2-0.5-0.4-0.8-0.8-0.9c0,0.1,0,0.2,0.1,0.3
				c0.2,0.4,0.5,0.9,0.1,1.5c-0.9,1.2-1.8,2-3.3,2.4c-0.6,0.2-2.1,0.5-2.3,1.2c-0.3,0.8,1.4,0.1,1.8,0c0.7-0.4,1.5-0.8,2.2-1.2
				c0.5-0.3,1.5-1.4,2.1-0.9c0.8,0.7-0.4,1.8-1,2.1c-0.8,0.4-1.6,0.6-2.4,1c-1.7,1-3.2,1.8-5.1,2.2c-0.7,0.1-1.9,0.5-1.7-0.7
				c0.1-0.4,0.2-0.5,0.2-0.9c-0.1-0.5,0.1-0.6,0.3-1.1c0.2-0.5-0.1-0.7-0.6-0.7c-0.4,0-0.7,0.1-1,0.1c-0.2,0.1-0.4,0.2-0.5,0.4
				c0,0.5,0.1,1.1,0.1,1.6c0,1-0.2,1.9-0.1,2c0.5,0.3,1.5,0.3,2.6,0c1-0.2,4.7-1.5,7.1-2.9c1.5-0.7,2.3-0.8,3-1.2
				C22.6,14.7,22.8,13.8,22.4,12.8z"/>
		</g>
		<g class="st35">
			<path class="st36" d="M22.4,12.8c-0.4-0.8-0.9-1.3-1.1-2.1c-0.2-0.5-0.4-0.8-0.8-0.9c0,0.1,0,0.2,0.1,0.3
				c0.2,0.4,0.5,0.9,0.1,1.5c-0.9,1.2-1.8,2-3.3,2.4c-0.6,0.2-2.1,0.5-2.3,1.2c-0.3,0.8,1.4,0.1,1.8,0c0.7-0.4,1.5-0.8,2.2-1.2
				c0.5-0.3,1.5-1.4,2.1-0.9c0.8,0.7-0.4,1.8-1,2.1c-0.8,0.4-1.6,0.6-2.4,1c-1.7,1-3.2,1.8-5.1,2.2c-0.7,0.1-1.9,0.5-1.7-0.7
				c0.1-0.4,0.2-0.5,0.2-0.9c-0.1-0.5,0.1-0.6,0.3-1.1c0.2-0.5-0.1-0.7-0.6-0.7c-0.4,0-0.7,0.1-1,0.1c-0.2,0.1-0.4,0.2-0.5,0.4
				c0,0.5,0.1,1.1,0.1,1.6c0,1-0.2,1.9-0.1,2c0.5,0.3,1.5,0.3,2.6,0c1-0.2,4.7-1.5,7.1-2.9c1.5-0.7,2.3-0.8,3-1.2
				C22.6,14.7,22.8,13.8,22.4,12.8z"/>
		</g>
		<g class="st35">
			<g>
				<path class="st36" d="M22.3,12.6c-0.4-0.7-0.8-1.2-1-1.9c-0.1-0.3-0.2-0.5-0.4-0.7c0.1,0.6,0.1,1.3-0.3,1.8
					c-0.2,0.3-0.7,0.6-1,0.9c-0.2,0.2-0.4,0.6-0.1,0.5c0.3-0.1,1.2-0.9,1.7-0.6c0.5,0.3,0.2,1.3-0.1,1.7c-0.2,0.2-0.4,0.3-0.7,0.7
					c-0.4,0.5-1.2,0.8-1.8,1.2c-0.3,0.2-0.6,0.8-0.4,0.7c0.3-0.2,0.6-0.3,0.9-0.5c1.5-0.7,2.3-0.8,3-1.2c0.3-0.3,0.6-0.8,0.6-1.4
					C22.6,13.3,22.4,12.9,22.3,12.6z M14.4,17.7c-0.6,0.2-1.2,0.6-1.8,0.8c-0.5,0.2-1.4,0.3-1.6-0.4c-0.2-0.6,0.6-0.9,0.9-1.2
					c0.7-0.5-0.6-0.7-0.9-0.9c-0.5-0.4,0.4-0.6,0.6-0.8c0.1-0.1,0.1-0.2,0.1-0.2c-1.2,0.1-2,0.1-2.3,0.5c-0.1,0.5,0.1,1.1,0.1,1.7
					c0,1-0.2,1.9-0.1,2c0.5,0.3,1.5,0.3,2.6,0c0.5-0.1,1.9-0.6,3.4-1.2C16.1,17.4,14.9,17.4,14.4,17.7z"/>
			</g>
		</g>
		<path class="st37" d="M12.2,17.3c1.8-0.1-1.4,1.6-2.2,1.8c-0.6,0.1-0.2-1.6-0.3-2c-0.1-0.4-0.5-1.6,0.1-1.7
			c0.9-0.3,4.1-0.9,1.8,0.8C10.7,17.2,11.8,17.5,12.2,17.3z"/>
		<path class="st33" d="M10.9,16.2c0.2,1.3-0.8,2.9-1.1,2.8c-0.4,0.2,0-1.6-0.1-2.6c-0.1-0.3-0.2-1.1,0.2-1.2
			C10.1,15.1,10.8,15.9,10.9,16.2z"/>
		<path class="st33" d="M21.9,13c0.1,0.3,0.4,1.5,0,1.6c-0.5,0.2-1.5-1-1.5-1.3c-0.1-0.3,0.3-1.8,0.7-1.9
			C21.5,11.3,21.9,12.7,21.9,13z"/>
		<g class="st38">
			<path class="st36" d="M13.1,18.2c-0.4,0.1-2.3,0.8-2.1,0c0.1-0.6,1.2-1,1.7-1.3c0.4-0.2,0.8-0.3,1.2-0.4c0.4-0.1,0.9-0.2,1.2-0.4
				c0.4-0.3,0.1-0.6-0.3-0.6c-0.3,0-0.6,0.2-0.9,0.3c-0.6,0.2-1.2,0.2-1.9,0.2c-0.3,0-1.8-0.1-1.3-0.6c0.1-0.1,0.3-0.1,0.5-0.2
				c-0.8,0.1-1.4,0.1-1.7,0.4c-0.1,0.5,0.1,1.1,0.1,1.7c0,1-0.2,1.8-0.1,2c0.4,0.2,1,0.1,1.4,0.1c0.9-0.1,1.8-0.4,2.7-0.7
				c0.6-0.2,2.1-0.5,2.3-1.1C14.9,17.3,13.8,17.9,13.1,18.2z M22.2,13.8c0-0.3,0.2-0.6,0-1c-0.2-0.4-0.6-0.5-0.7-0.9
				c-0.1-0.5-0.2-1.1-0.4-1.5c-0.3-0.5-0.5-0.3-0.2,0.2c0.3,1,0,1.6-0.5,2c-0.4,0.3-1,0.6-1.5,0.8c-0.5,0.2-2,0.6-1.3,0.8
				c0.6,0.1,1.1-0.2,1.6-0.4c0.2-0.1,0.5-0.2,0.6-0.1c0.1,0.1,0.3,0.5,0.2,0.7c-0.1,0.4-1.2,1-1.5,1.2C18,16,17.3,16.4,17,16.9
				c-0.2,0.6,1.6-0.5,2.2-0.8c0.7-0.3,0.7-0.5,2-1c0.3-0.1,0.8-0.2,1-0.5C22.5,14.4,22.3,14.2,22.2,13.8z"/>
		</g>
		<path class="st39" d="M19.4,14.4c-0.7,0.2-1.3,0.5-1.9,0.9c-1.4,1.1-3.9,1.4-5.1,1.9c-0.2,0.2-1.1,0.7-0.2,0.9
			c0.6,0.1,1.5-0.3,2-0.5c1.5-0.6,3-1.2,4.4-1.9c0.4-0.2,0.8-0.5,1.1-0.8C20,14.5,19.8,14.3,19.4,14.4z M20.4,11.4
			c-0.3,0.4-0.6,0.8-1.1,1c-0.6,0.3-1.2,0.7-1.8,1.1c-0.4,0.3-0.7,0.5-1.1,0.6c-0.4,0.1-0.7,0.2-1,0.3c-0.7,0.2-1.4,0.5-2.2,0.6
			c-0.6,0.1-1.6-0.1-2,0.3c-0.4,0.3,0.8,0.4,1.3,0.3c0,0,1.1,0,1.7-0.1c1.4-0.2,2.9-0.7,4.1-1.6c0.4-0.3,2.4-1.6,2.6-2.4
			C20.8,11.4,20.9,10.8,20.4,11.4z"/>
		<g class="st40">
			<path class="st41" d="M10.3,15.3c0.1-0.1,0.2-0.2,0.2-0.3c-0.5,0.1-0.9,0.1-1.1,0.4c-0.1,0.5,0.1,1.1,0.1,1.7c0,1-0.2,1.9-0.1,2
				c0.1,0.1,0.3,0.1,0.4,0.2c0.2-0.3,0.4-0.6,0.4-1c0-0.2,0-0.3,0.1-0.5c0.1-0.2,0.2-0.3,0.2-0.5c0.1-0.2,0.2-0.6,0.2-0.8
				c0-0.4-0.5-0.3-0.5-0.7C10.1,15.6,10.2,15.5,10.3,15.3z"/>
		</g>
		<g class="st42">
			<path class="st41" d="M12.5,18.7c-0.5,0.1-2.4,0.3-2.5-0.2c-0.1-0.4,0.4-0.9,0.7-1.2c0.2-0.2,1-0.5,1-0.9
				c-0.1-0.3-0.9-0.2-1.2-0.2c-0.6-0.1-0.7-0.3-0.6-0.9c0-0.1,0-0.2,0-0.3c-0.2,0.1-0.4,0.1-0.5,0.3c-0.1,0.5,0.1,1.1,0.1,1.7
				c0,1-0.2,1.9-0.1,2c0.5,0.3,1.5,0.3,2.6,0c0.3-0.1,0.8-0.2,1.5-0.5C13.3,18.5,12.7,18.7,12.5,18.7z"/>
		</g>
		<path class="st43" d="M18.3,15.5c0.1,0.3-2.2,1.8-3.2,2c-0.9,0.2-2.6,0.6-2.7,0.3c-0.1-0.3,1.6-0.9,2.6-1.1
			C15.9,16.4,18.2,15.2,18.3,15.5z"/>
		<path class="st43" d="M17,16c0,0.1-1,0.8-1.4,0.9c-0.4,0.1-1.2,0.3-1.2,0.1c0-0.1,0.7-0.4,1.1-0.5C15.9,16.5,16.9,15.9,17,16z"/>
		<path class="st44" d="M17.4,15.9c0,0.1-1,0.6-1.4,0.7c-0.4,0.1-1.1,0.3-1.2,0.3c0-0.1,0.7-0.3,1.1-0.5
			C16.4,16.3,17.4,15.8,17.4,15.9z"/>
		<path class="st44" d="M20.2,12.1c0.2,0.1-2.5,2.2-4.2,2.8c-1.2,0.5-3.4,0.7-3.5,0.5c-0.1-0.2,2.4-0.8,3.4-1.1
			C17.4,13.6,20.2,11.9,20.2,12.1z"/>
		<path class="st28" d="M20.6,13.1c0-0.4,0.2-1.2-0.4-0.7c-1.2,0.7-2.3,1.5-3.7,2.1c-0.7,0.3-1.4,0.5-2.1,0.7c-0.8,0.2-1.4,0-2.1,0
			c-2.2,0.1,0.8,1.6,0.7,2c-0.1,0.4-1.5,0.9-0.6,1.1c0.2,0,0.5-0.1,0.7-0.2c0.5-0.2,0,0.2,0.5,0.3c2.1-0.4,3.5-2.2,5.5-2.8
			c0.8-0.3,1.9-0.5,1.8-1.4C20.8,13.8,20.6,13.6,20.6,13.1z"/>
		<path class="st45" d="M10.1,15.1c-0.3,0-0.7,0.2-0.7,0.3c-0.1,0.3,0,0.7-0.1,1.1c0,0.7-0.1,1.5-0.1,2.2c0,0.5,0.1,0.3,0.1,0.2
			c0.2-0.2,0.4-1,0.4-1.2c0-0.1,0-0.5,0-0.6c0-0.4,0.1-0.5,0-0.9c0-0.2-0.2-0.4-0.2-0.6C9.6,15.6,10.2,15.2,10.1,15.1z"/>
		<path class="st46" d="M20.9,10.4c0,0.2-0.2,0.6-0.4,0.6c-0.1,0,0-0.1-0.1-0.2c-0.1-0.1-0.1-0.1-0.1-0.2c-0.1-0.2-0.6-0.5-0.4-0.5
			C20.1,10.1,20.8,9.9,20.9,10.4z"/>
		<path class="st47" d="M20.9,10.4c0,0.1-0.2,0.4-0.4,0.4c-0.1,0-0.1-0.2-0.2-0.4c-0.2-0.2-0.5-0.4-0.5-0.4c0-0.1,0.4,0,0.6,0
			C20.8,10,20.9,10.3,20.9,10.4z"/>
		<path class="st48" d="M22.4,12.8L22.4,12.8L22.4,12.8c-0.4-0.8-0.9-1.3-1.1-2.1l0,0l0,0c-0.1-0.4-0.3-0.7-0.6-0.8
			c-0.2-0.2-0.5-0.2-0.9-0.1c-0.1,0-0.1,0-0.2,0c0,0,0,0-0.1,0c0,0,0,0,0,0.1c0,0,0,0.1,0,0.1c0.1,0.1,0.3,0.2,0.4,0.4
			c0.2,0.2,0.3,0.3,0.4,0.5c0,0.1,0,0.2,0,0.3c-1.1,1.1-3.7,2.7-6.9,3.4c-0.2,0-0.4,0.1-0.6,0.1c-1.3,0.2-2.3,0.2-3,0.3
			c-0.3,0.1-0.4,0.1-0.6,0.3c0,0,0,0,0,0c0.1-0.1,0.2-0.2,0.6-0.3c0.6-0.1,1.6-0.1,3-0.3c0.2,0,0.4-0.1,0.6-0.1
			c3.2-0.7,5.8-2.3,6.9-3.4l0,0l0,0c0.1-0.1,0.1-0.3,0.1-0.4c-0.1-0.2-0.3-0.5-0.5-0.6c-0.1-0.1-0.2-0.2-0.3-0.2
			c0,0-0.1-0.1-0.1-0.1c0,0,0,0,0-0.1c0,0,0,0,0,0c0,0,0,0,0,0c0.1,0,0.1,0,0.2,0c0.4-0.1,0.6,0,0.9,0.1c0.2,0.1,0.4,0.4,0.5,0.8
			C21.5,11.5,21.9,12,22.4,12.8c0.1,0.2,0.1,0.4,0.2,0.6c0.2,0.8-0.1,1.4-0.5,1.7c-0.7,0.4-1.5,0.4-3,1.2c-2.4,1.3-6.1,2.6-7.1,2.9
			c-0.1,0-0.1,0-0.2,0c-1,0.2-1.9,0.2-2.4-0.1c0,0,0,0,0,0c0,0,0,0,0,0c0,0,0,0,0,0l0,0l0,0c0.5,0.3,1.4,0.3,2.4,0.1
			c0.1,0,0.1,0,0.2,0c1-0.2,4.7-1.5,7.1-2.9c1.5-0.7,2.3-0.8,3-1.2l0,0l0,0c0.4-0.4,0.7-1,0.5-1.8C22.5,13.2,22.5,13,22.4,12.8z"/>
	</g>
	<path class="st49" d="M10,20c0,0.2-0.2,0.3-0.4,0.4c-0.2,0-1,0-1-0.1c0-0.1,0.2-0.2,0.4-0.4c0.2-0.2,0.2-0.6,0.3-0.6
		C9.5,19.3,10,19.9,10,20z"/>
	<path class="st50" d="M10.5,21.7c0,0.8-0.5,1.2-0.9,1.3c-0.4,0.1-0.9,0.1-0.8-0.3c0.1-0.3,0.5-0.8,0.6-1.2c0.2-0.7-0.1-1.3,0.2-1.3
		C10,20,10.5,21.4,10.5,21.7z"/>
	<path class="st12" d="M10.5,21.4c0,0.1-0.3,0.7-0.5,0.8c-0.2,0-0.2-0.5-0.3-0.6c0-0.1-0.2-1.3,0-1.4C10,20.2,10.5,21.3,10.5,21.4z"
		/>
	<path class="st12" d="M9.9,20.1c0.1,0.2-0.2,0.5-0.6,0.6c-0.1,0-1.1,0.1-1.1-0.1c0-0.1,0.4-0.3,0.8-0.6c0.2-0.3,0.1-0.5,0.3-0.6
		C9.4,19.3,9.9,19.7,9.9,20.1z"/>
	<path class="st51" d="M10.3,22c0.1,0.4-1.3,1.4-1.9,1.5c-0.4,0.1-2.4-0.4-1.7-1c0.4-0.3,1.8,0.6,2.5-0.9c0.2-0.4,0.1-1,0.3-1
		C9.9,20.5,10.2,21.6,10.3,22z"/>
	<path class="st51" d="M10.3,22c0.1,0.4-1.3,1.4-1.9,1.5c-0.4,0.1-2.4-0.4-1.7-1c0.4-0.3,1.8,0.6,2.5-0.9c0.2-0.4,0.1-1,0.3-1
		C10,20.5,10.3,21.7,10.3,22z"/>
	<path class="st52" d="M10,20.2c0,0.2-0.2,0.5-0.4,0.5c-0.2,0-1.1,0.1-1.1-0.1c0-0.1,0.5-0.3,0.7-0.5c0.2-0.2,0.1-0.4,0.2-0.4
		C9.6,19.5,9.9,20,10,20.2z"/>
</g>
</svg>
