<svg xmlns="http://www.w3.org/2000/svg" width="20" height="20" viewBox="0 0 20 20" fill="none">
<path d="M6.18182 1C4.97841 1 4 2.00898 4 3.25V16.75C4 17.991 4.97841 19 6.18182 19H13.8182C15.0216 19 16 17.991 16 16.75V3.25C16 2.00898 15.0216 1 13.8182 1H6.18182ZM8.90909 16.1875H11.0909C11.3909 16.1875 11.6364 16.4406 11.6364 16.75C11.6364 17.0594 11.3909 17.3125 11.0909 17.3125H8.90909C8.60909 17.3125 8.36364 17.0594 8.36364 16.75C8.36364 16.4406 8.60909 16.1875 8.90909 16.1875Z" fill="#3267F6"/>
</svg>