<svg xmlns="http://www.w3.org/2000/svg" width="132" height="34" viewBox="0 0 132 34" fill="none">
<path fill-rule="evenodd" clip-rule="evenodd" d="M115.598 15.3838C114.955 15.8245 114.023 16.0423 112.748 16.0423H112.195H111.483L112.453 10.8863H112.945H113.383C114.442 10.8863 115.215 11.054 115.748 11.3944C116.164 11.6613 116.658 12.1898 116.658 13.1926C116.658 14.4009 116.083 15.0509 115.598 15.3838ZM40.151 21.8548H30.3633L30.9959 18.4846H37.1351L37.8327 14.6887H31.7525L32.3403 11.3532H42.1109L40.151 21.8548ZM120.87 8.46032C119.431 7.48925 117.253 7 114.398 7H106.921L104.141 21.8553H94.3461L94.9742 18.4851H100.875L101.577 14.6996L95.6794 14.71L96.311 11.3542H102.388L103.197 7.00053H90.8518L88.2134 21.0932H83.6868L86.3443 7.00057H79.8906L77.2522 21.0932H72.8385L75.4986 7.00057H69.0514L66.2648 21.8559H56.4L57.0215 18.4857H62.9495L63.6476 14.722L57.7287 14.7166L58.3573 11.3543H64.5021L65.3066 7.00064H26.8468L24.6576 18.7731L20.2963 7.00014H13.6027L10 26.2116H16.3922L18.5724 14.1157L22.8051 26.2116H45.7165L48.5016 11.3538H52.0866L49.3 26.2116H109.587L111.333 16.8319L114.163 26.2116H120.559L117.629 18.5478L118.298 18.4054C119.772 18.0947 120.926 17.4254 121.726 16.4225C122.528 15.4103 122.935 14.1107 122.935 12.5497C122.936 10.7316 122.261 9.39467 120.87 8.46032Z" fill="#8DC640"/>
</svg>