<svg xmlns="http://www.w3.org/2000/svg" width="24" height="24" viewBox="0 0 24 24" fill="none">
<path d="M4.50666 9.1875H5.31005L8.20777 12.0853C9.03155 12.909 10.3671 12.909 11.1909 12.0853L11.6881 11.5881L9.28748 9.1875H16.9219L12.7031 4.96875L5.67188 3.80353L4.02459 2.15625L0 4.73531L0.0254062 5.14594C0.256125 8.89636 3.522 9.1875 4.50666 9.1875Z" fill="#3267F6"/>
<path d="M4.50666 9.1875H5.31005L8.20777 12.0853C9.03155 12.909 10.3671 12.909 11.1909 12.0853L11.6881 11.5881L9.28748 9.1875H16.9219L12.7031 4.96875L5.67188 3.80353L4.02459 2.15625L0 4.73531L0.0254062 5.14594C0.256125 8.89636 3.522 9.1875 4.50666 9.1875Z" fill="#3267F6"/>
<path d="M4.50666 9.1875H5.31005L8.20777 12.0853C9.03155 12.909 10.3671 12.909 11.1909 12.0853L11.6881 11.5881L9.28748 9.1875H16.9219L12.7031 4.96875L5.67188 3.80353L4.02459 2.15625L0 4.73531L0.0254062 5.14594C0.256125 8.89636 3.522 9.1875 4.50666 9.1875Z" fill="#3267F6"/>
<path d="M4.50666 9.1875H5.31005L8.20777 12.0853C9.03155 12.909 10.3671 12.909 11.1909 12.0853L11.6881 11.5881L9.28748 9.1875H16.9219L12.7031 4.96875L5.67188 3.80353L4.02459 2.15625L0 4.73531L0.0254062 5.14594C0.256125 8.89636 3.522 9.1875 4.50666 9.1875Z" fill="#3267F6"/>
<path d="M4.50666 9.1875H5.31005L8.20777 12.0853C9.03155 12.909 10.3671 12.909 11.1909 12.0853L11.6881 11.5881L9.28748 9.1875H16.9219L12.7031 4.96875L5.67188 3.80353L4.02459 2.15625L0 4.73531L0.0254062 5.14594C0.256125 8.89636 3.522 9.1875 4.50666 9.1875Z" fill="#3267F6"/>
<path d="M14.1094 18.3281C15.2725 18.3281 16.2188 17.3819 16.2188 16.2188C16.2188 15.0556 15.2725 14.1094 14.1094 14.1094C12.9462 14.1094 12 15.0556 12 16.2188C12 17.3819 12.9462 18.3281 14.1094 18.3281ZM13.4062 15.5156H14.8125V16.9219H13.4062V15.5156Z" fill="#3267F6"/>
<path d="M14.1094 18.3281C15.2725 18.3281 16.2188 17.3819 16.2188 16.2188C16.2188 15.0556 15.2725 14.1094 14.1094 14.1094C12.9462 14.1094 12 15.0556 12 16.2188C12 17.3819 12.9462 18.3281 14.1094 18.3281ZM13.4062 15.5156H14.8125V16.9219H13.4062V15.5156Z" fill="#3267F6"/>
<path d="M14.1094 18.3281C15.2725 18.3281 16.2188 17.3819 16.2188 16.2188C16.2188 15.0556 15.2725 14.1094 14.1094 14.1094C12.9462 14.1094 12 15.0556 12 16.2188C12 17.3819 12.9462 18.3281 14.1094 18.3281ZM13.4062 15.5156H14.8125V16.9219H13.4062V15.5156Z" fill="#3267F6"/>
<path d="M14.1094 18.3281C15.2725 18.3281 16.2188 17.3819 16.2188 16.2188C16.2188 15.0556 15.2725 14.1094 14.1094 14.1094C12.9462 14.1094 12 15.0556 12 16.2188C12 17.3819 12.9462 18.3281 14.1094 18.3281ZM13.4062 15.5156H14.8125V16.9219H13.4062V15.5156Z" fill="#3267F6"/>
<path d="M14.1094 18.3281C15.2725 18.3281 16.2188 17.3819 16.2188 16.2188C16.2188 15.0556 15.2725 14.1094 14.1094 14.1094C12.9462 14.1094 12 15.0556 12 16.2188C12 17.3819 12.9462 18.3281 14.1094 18.3281ZM13.4062 15.5156H14.8125V16.9219H13.4062V15.5156Z" fill="#3267F6"/>
<path d="M9.06736 18.3281H11.3148C10.8687 17.7387 10.5937 17.0132 10.5937 16.2188C10.5937 15.4243 10.8687 14.6988 11.3148 14.1094H9.06736C8.8552 14.7081 8.38003 15.1833 7.78125 15.3955V17.0421C8.37998 17.2542 8.85516 17.7294 9.06736 18.3281Z" fill="#3267F6"/>
<path d="M9.06736 18.3281H11.3148C10.8687 17.7387 10.5937 17.0132 10.5937 16.2188C10.5937 15.4243 10.8687 14.6988 11.3148 14.1094H9.06736C8.8552 14.7081 8.38003 15.1833 7.78125 15.3955V17.0421C8.37998 17.2542 8.85516 17.7294 9.06736 18.3281Z" fill="#3267F6"/>
<path d="M9.06736 18.3281H11.3148C10.8687 17.7387 10.5937 17.0132 10.5937 16.2188C10.5937 15.4243 10.8687 14.6988 11.3148 14.1094H9.06736C8.8552 14.7081 8.38003 15.1833 7.78125 15.3955V17.0421C8.37998 17.2542 8.85516 17.7294 9.06736 18.3281Z" fill="#3267F6"/>
<path d="M9.06736 18.3281H11.3148C10.8687 17.7387 10.5937 17.0132 10.5937 16.2188C10.5937 15.4243 10.8687 14.6988 11.3148 14.1094H9.06736C8.8552 14.7081 8.38003 15.1833 7.78125 15.3955V17.0421C8.37998 17.2542 8.85516 17.7294 9.06736 18.3281Z" fill="#3267F6"/>
<path d="M9.06736 18.3281H11.3148C10.8687 17.7387 10.5937 17.0132 10.5937 16.2188C10.5937 15.4243 10.8687 14.6988 11.3148 14.1094H9.06736C8.8552 14.7081 8.38003 15.1833 7.78125 15.3955V17.0421C8.37998 17.2542 8.85516 17.7294 9.06736 18.3281Z" fill="#3267F6"/>
<path d="M19.1514 18.3281C19.3636 17.7294 19.8387 17.2542 20.4375 17.042V15.3954C19.8388 15.1833 19.3636 14.7081 19.1514 14.1093H16.9039C17.3501 14.6988 17.625 15.4243 17.625 16.2188C17.625 17.0132 17.3501 17.7387 16.9039 18.3281H19.1514Z" fill="#3267F6"/>
<path d="M19.1514 18.3281C19.3636 17.7294 19.8387 17.2542 20.4375 17.042V15.3954C19.8388 15.1833 19.3636 14.7081 19.1514 14.1093H16.9039C17.3501 14.6988 17.625 15.4243 17.625 16.2188C17.625 17.0132 17.3501 17.7387 16.9039 18.3281H19.1514Z" fill="#3267F6"/>
<path d="M19.1514 18.3281C19.3636 17.7294 19.8387 17.2542 20.4375 17.042V15.3954C19.8388 15.1833 19.3636 14.7081 19.1514 14.1093H16.9039C17.3501 14.6988 17.625 15.4243 17.625 16.2188C17.625 17.0132 17.3501 17.7387 16.9039 18.3281H19.1514Z" fill="#3267F6"/>
<path d="M19.1514 18.3281C19.3636 17.7294 19.8387 17.2542 20.4375 17.042V15.3954C19.8388 15.1833 19.3636 14.7081 19.1514 14.1093H16.9039C17.3501 14.6988 17.625 15.4243 17.625 16.2188C17.625 17.0132 17.3501 17.7387 16.9039 18.3281H19.1514Z" fill="#3267F6"/>
<path d="M19.1514 18.3281C19.3636 17.7294 19.8387 17.2542 20.4375 17.042V15.3954C19.8388 15.1833 19.3636 14.7081 19.1514 14.1093H16.9039C17.3501 14.6988 17.625 15.4243 17.625 16.2188C17.625 17.0132 17.3501 17.7387 16.9039 18.3281H19.1514Z" fill="#3267F6"/>
<path d="M20.3169 10.5938H12.6825L13.6769 11.5881L12.5618 12.7031H20.4375V13.4062C20.4375 13.7942 20.7527 14.1094 21.1406 14.1094H21.8438V18.3281H21.1406C20.7527 18.3281 20.4375 18.6433 20.4375 19.0312V19.7344H7.78125V19.0312C7.78125 18.6433 7.46606 18.3281 7.07812 18.3281H6.375V14.1094H7.07812C7.42275 14.1094 7.70939 13.8605 7.76925 13.533C7.57134 13.4024 7.38497 13.2512 7.21345 13.0798L4.72753 10.5938H4.26562V21.8438H24V10.5938H20.3169Z" fill="#3267F6"/>
<path d="M20.3169 10.5938H12.6825L13.6769 11.5881L12.5618 12.7031H20.4375V13.4062C20.4375 13.7942 20.7527 14.1094 21.1406 14.1094H21.8438V18.3281H21.1406C20.7527 18.3281 20.4375 18.6433 20.4375 19.0312V19.7344H7.78125V19.0312C7.78125 18.6433 7.46606 18.3281 7.07812 18.3281H6.375V14.1094H7.07812C7.42275 14.1094 7.70939 13.8605 7.76925 13.533C7.57134 13.4024 7.38497 13.2512 7.21345 13.0798L4.72753 10.5938H4.26562V21.8438H24V10.5938H20.3169Z" fill="#3267F6"/>
<path d="M20.3169 10.5938H12.6825L13.6769 11.5881L12.5618 12.7031H20.4375V13.4062C20.4375 13.7942 20.7527 14.1094 21.1406 14.1094H21.8438V18.3281H21.1406C20.7527 18.3281 20.4375 18.6433 20.4375 19.0312V19.7344H7.78125V19.0312C7.78125 18.6433 7.46606 18.3281 7.07812 18.3281H6.375V14.1094H7.07812C7.42275 14.1094 7.70939 13.8605 7.76925 13.533C7.57134 13.4024 7.38497 13.2512 7.21345 13.0798L4.72753 10.5938H4.26562V21.8438H24V10.5938H20.3169Z" fill="#3267F6"/>
<path d="M20.3169 10.5938H12.6825L13.6769 11.5881L12.5618 12.7031H20.4375V13.4062C20.4375 13.7942 20.7527 14.1094 21.1406 14.1094H21.8438V18.3281H21.1406C20.7527 18.3281 20.4375 18.6433 20.4375 19.0312V19.7344H7.78125V19.0312C7.78125 18.6433 7.46606 18.3281 7.07812 18.3281H6.375V14.1094H7.07812C7.42275 14.1094 7.70939 13.8605 7.76925 13.533C7.57134 13.4024 7.38497 13.2512 7.21345 13.0798L4.72753 10.5938H4.26562V21.8438H24V10.5938H20.3169Z" fill="#3267F6"/>
<path d="M20.3169 10.5938H12.6825L13.6769 11.5881L12.5618 12.7031H20.4375V13.4062C20.4375 13.7942 20.7527 14.1094 21.1406 14.1094H21.8438V18.3281H21.1406C20.7527 18.3281 20.4375 18.6433 20.4375 19.0312V19.7344H7.78125V19.0312C7.78125 18.6433 7.46606 18.3281 7.07812 18.3281H6.375V14.1094H7.07812C7.42275 14.1094 7.70939 13.8605 7.76925 13.533C7.57134 13.4024 7.38497 13.2512 7.21345 13.0798L4.72753 10.5938H4.26562V21.8438H24V10.5938H20.3169Z" fill="#3267F6"/>
</svg>