<svg xmlns="http://www.w3.org/2000/svg" width="24" height="24" viewBox="0 0 24 24" fill="none">
<path d="M21.1406 16.2188C21.1406 14.8111 20.6902 13.433 19.8388 12.2341L16.1748 7.07812H17.625V5.67188H6.375V7.07812H7.82522L4.16123 12.2341C3.3098 13.433 2.85938 14.8111 2.85938 16.2188C2.85938 20.4835 6.96 24 12 24C17.04 24 21.1406 20.4835 21.1406 16.2188ZM11.2969 14.1094H12.7031C13.8663 14.1094 14.8125 15.0556 14.8125 16.2188C14.8125 17.3819 13.8663 18.3281 12.7031 18.3281V19.7344H11.2969V18.3281C10.1337 18.3281 9.1875 17.3819 9.1875 16.2188H10.5938C10.5938 16.6067 10.9089 16.9219 11.2969 16.9219H12.7031C13.0911 16.9219 13.4062 16.6067 13.4062 16.2188C13.4062 15.8308 13.0911 15.5156 12.7031 15.5156H11.2969C10.1337 15.5156 9.1875 14.5694 9.1875 13.4062C9.1875 12.2431 10.1337 11.2969 11.2969 11.2969V9.89062H12.7031V11.2969C13.8663 11.2969 14.8125 12.2431 14.8125 13.4062H13.4062C13.4062 13.0183 13.0911 12.7031 12.7031 12.7031H11.2969C10.9089 12.7031 10.5938 13.0183 10.5938 13.4062C10.5938 13.7942 10.9089 14.1094 11.2969 14.1094Z" fill="#3267F6"/>
<path d="M21.1406 16.2188C21.1406 14.8111 20.6902 13.433 19.8388 12.2341L16.1748 7.07812H17.625V5.67188H6.375V7.07812H7.82522L4.16123 12.2341C3.3098 13.433 2.85938 14.8111 2.85938 16.2188C2.85938 20.4835 6.96 24 12 24C17.04 24 21.1406 20.4835 21.1406 16.2188ZM11.2969 14.1094H12.7031C13.8663 14.1094 14.8125 15.0556 14.8125 16.2188C14.8125 17.3819 13.8663 18.3281 12.7031 18.3281V19.7344H11.2969V18.3281C10.1337 18.3281 9.1875 17.3819 9.1875 16.2188H10.5938C10.5938 16.6067 10.9089 16.9219 11.2969 16.9219H12.7031C13.0911 16.9219 13.4062 16.6067 13.4062 16.2188C13.4062 15.8308 13.0911 15.5156 12.7031 15.5156H11.2969C10.1337 15.5156 9.1875 14.5694 9.1875 13.4062C9.1875 12.2431 10.1337 11.2969 11.2969 11.2969V9.89062H12.7031V11.2969C13.8663 11.2969 14.8125 12.2431 14.8125 13.4062H13.4062C13.4062 13.0183 13.0911 12.7031 12.7031 12.7031H11.2969C10.9089 12.7031 10.5938 13.0183 10.5938 13.4062C10.5938 13.7942 10.9089 14.1094 11.2969 14.1094Z" fill="#3267F6"/>
<path d="M21.1406 16.2188C21.1406 14.8111 20.6902 13.433 19.8388 12.2341L16.1748 7.07812H17.625V5.67188H6.375V7.07812H7.82522L4.16123 12.2341C3.3098 13.433 2.85938 14.8111 2.85938 16.2188C2.85938 20.4835 6.96 24 12 24C17.04 24 21.1406 20.4835 21.1406 16.2188ZM11.2969 14.1094H12.7031C13.8663 14.1094 14.8125 15.0556 14.8125 16.2188C14.8125 17.3819 13.8663 18.3281 12.7031 18.3281V19.7344H11.2969V18.3281C10.1337 18.3281 9.1875 17.3819 9.1875 16.2188H10.5938C10.5938 16.6067 10.9089 16.9219 11.2969 16.9219H12.7031C13.0911 16.9219 13.4062 16.6067 13.4062 16.2188C13.4062 15.8308 13.0911 15.5156 12.7031 15.5156H11.2969C10.1337 15.5156 9.1875 14.5694 9.1875 13.4062C9.1875 12.2431 10.1337 11.2969 11.2969 11.2969V9.89062H12.7031V11.2969C13.8663 11.2969 14.8125 12.2431 14.8125 13.4062H13.4062C13.4062 13.0183 13.0911 12.7031 12.7031 12.7031H11.2969C10.9089 12.7031 10.5938 13.0183 10.5938 13.4062C10.5938 13.7942 10.9089 14.1094 11.2969 14.1094Z" fill="#3267F6"/>
<path d="M21.1406 16.2188C21.1406 14.8111 20.6902 13.433 19.8388 12.2341L16.1748 7.07812H17.625V5.67188H6.375V7.07812H7.82522L4.16123 12.2341C3.3098 13.433 2.85938 14.8111 2.85938 16.2188C2.85938 20.4835 6.96 24 12 24C17.04 24 21.1406 20.4835 21.1406 16.2188ZM11.2969 14.1094H12.7031C13.8663 14.1094 14.8125 15.0556 14.8125 16.2188C14.8125 17.3819 13.8663 18.3281 12.7031 18.3281V19.7344H11.2969V18.3281C10.1337 18.3281 9.1875 17.3819 9.1875 16.2188H10.5938C10.5938 16.6067 10.9089 16.9219 11.2969 16.9219H12.7031C13.0911 16.9219 13.4062 16.6067 13.4062 16.2188C13.4062 15.8308 13.0911 15.5156 12.7031 15.5156H11.2969C10.1337 15.5156 9.1875 14.5694 9.1875 13.4062C9.1875 12.2431 10.1337 11.2969 11.2969 11.2969V9.89062H12.7031V11.2969C13.8663 11.2969 14.8125 12.2431 14.8125 13.4062H13.4062C13.4062 13.0183 13.0911 12.7031 12.7031 12.7031H11.2969C10.9089 12.7031 10.5938 13.0183 10.5938 13.4062C10.5938 13.7942 10.9089 14.1094 11.2969 14.1094Z" fill="#3267F6"/>
<path d="M21.1406 16.2188C21.1406 14.8111 20.6902 13.433 19.8388 12.2341L16.1748 7.07812H17.625V5.67188H6.375V7.07812H7.82522L4.16123 12.2341C3.3098 13.433 2.85938 14.8111 2.85938 16.2188C2.85938 20.4835 6.96 24 12 24C17.04 24 21.1406 20.4835 21.1406 16.2188ZM11.2969 14.1094H12.7031C13.8663 14.1094 14.8125 15.0556 14.8125 16.2188C14.8125 17.3819 13.8663 18.3281 12.7031 18.3281V19.7344H11.2969V18.3281C10.1337 18.3281 9.1875 17.3819 9.1875 16.2188H10.5938C10.5938 16.6067 10.9089 16.9219 11.2969 16.9219H12.7031C13.0911 16.9219 13.4062 16.6067 13.4062 16.2188C13.4062 15.8308 13.0911 15.5156 12.7031 15.5156H11.2969C10.1337 15.5156 9.1875 14.5694 9.1875 13.4062C9.1875 12.2431 10.1337 11.2969 11.2969 11.2969V9.89062H12.7031V11.2969C13.8663 11.2969 14.8125 12.2431 14.8125 13.4062H13.4062C13.4062 13.0183 13.0911 12.7031 12.7031 12.7031H11.2969C10.9089 12.7031 10.5938 13.0183 10.5938 13.4062C10.5938 13.7942 10.9089 14.1094 11.2969 14.1094Z" fill="#3267F6"/>
<path d="M12.0001 0C11.8557 0.0774375 10.4055 0.713156 9.24592 1.69397C8.32103 1.48936 7.3494 1.36917 6.35237 1.33622L5.02234 1.29159L6.95467 4.26562H17.0455L18.9778 1.29159L17.6477 1.33622C16.6507 1.36917 15.6791 1.48936 14.7542 1.69397C13.5376 0.664922 12.1497 0.08025 12.0001 0Z" fill="#3267F6"/>
<path d="M12.0001 0C11.8557 0.0774375 10.4055 0.713156 9.24592 1.69397C8.32103 1.48936 7.3494 1.36917 6.35237 1.33622L5.02234 1.29159L6.95467 4.26562H17.0455L18.9778 1.29159L17.6477 1.33622C16.6507 1.36917 15.6791 1.48936 14.7542 1.69397C13.5376 0.664922 12.1497 0.08025 12.0001 0Z" fill="#3267F6"/>
<path d="M12.0001 0C11.8557 0.0774375 10.4055 0.713156 9.24592 1.69397C8.32103 1.48936 7.3494 1.36917 6.35237 1.33622L5.02234 1.29159L6.95467 4.26562H17.0455L18.9778 1.29159L17.6477 1.33622C16.6507 1.36917 15.6791 1.48936 14.7542 1.69397C13.5376 0.664922 12.1497 0.08025 12.0001 0Z" fill="#3267F6"/>
<path d="M12.0001 0C11.8557 0.0774375 10.4055 0.713156 9.24592 1.69397C8.32103 1.48936 7.3494 1.36917 6.35237 1.33622L5.02234 1.29159L6.95467 4.26562H17.0455L18.9778 1.29159L17.6477 1.33622C16.6507 1.36917 15.6791 1.48936 14.7542 1.69397C13.5376 0.664922 12.1497 0.08025 12.0001 0Z" fill="#3267F6"/>
<path d="M12.0001 0C11.8557 0.0774375 10.4055 0.713156 9.24592 1.69397C8.32103 1.48936 7.3494 1.36917 6.35237 1.33622L5.02234 1.29159L6.95467 4.26562H17.0455L18.9778 1.29159L17.6477 1.33622C16.6507 1.36917 15.6791 1.48936 14.7542 1.69397C13.5376 0.664922 12.1497 0.08025 12.0001 0Z" fill="#3267F6"/>
</svg>