<svg xmlns="http://www.w3.org/2000/svg" width="30" height="30" viewBox="0 0 30 30" fill="none">
  <path d="M14.6272 3.71702C14.7595 3.37702 15.2405 3.37702 15.3728 3.71702L17.5417 9.29308C17.8825 10.1693 18.7035 10.7658 19.6422 10.8192L25.6156 11.1588C25.9798 11.1795 26.1284 11.6371 25.846 11.8679L21.213 15.6537C20.485 16.2486 20.1714 17.2138 20.4107 18.123L21.9336 23.909C22.0264 24.2618 21.6372 24.5446 21.3304 24.3472L16.2982 21.1109C15.5074 20.6024 14.4926 20.6024 13.7018 21.1109L8.66962 24.3472C8.36279 24.5446 7.97358 24.2618 8.06643 23.909L9.58931 18.123C9.82861 17.2138 9.515 16.2486 8.78698 15.6537L4.15405 11.8679C3.87156 11.6371 4.02022 11.1795 4.38445 11.1588L10.3578 10.8192C11.2965 10.7658 12.1175 10.1693 12.4583 9.29308L14.6272 3.71702Z" stroke="#C4C9DA" stroke-width="2"/>
</svg>