<svg xmlns="http://www.w3.org/2000/svg" width="132" height="34" viewBox="0 0 132 34" fill="none">
<path fill-rule="evenodd" clip-rule="evenodd" d="M83.0276 4C81.262 4 79.8281 5.42647 79.8281 7.18499C79.8281 8.94455 81.262 10.3679 83.0276 10.3679C84.7964 10.3679 86.2293 8.94455 86.2293 7.18499C86.2293 5.42647 84.7964 4 83.0276 4ZM36.8721 14.6711C36.0517 14.6184 34.1509 14.4953 34.1509 12.7936C34.1509 10.7403 36.8856 10.7403 37.9119 10.7403C39.717 10.7403 42.0525 11.2699 43.7225 11.7675C43.7225 11.7675 44.6521 12.0944 45.4434 12.4274L45.5172 12.4481V6.82397L45.4184 6.79397C43.4469 6.10815 41.1582 5.44922 36.9126 5.44922C29.5933 5.44922 27 9.68933 27 13.3253C27 15.419 27.9026 20.3511 36.2825 20.919L36.2903 20.9195C37.0084 20.9633 38.881 21.0775 38.881 22.8296C38.881 24.282 37.3369 25.1364 34.7405 25.1364C31.8955 25.1364 29.1337 24.4164 27.4575 23.7306V29.5213C29.9677 30.1782 32.7981 30.503 36.1151 30.503C43.2691 30.503 46.4759 26.4905 46.4759 22.5121C46.4759 18.003 42.8896 15.0725 36.8721 14.6711ZM58.4735 12.1712C58.4874 12.135 58.4983 12.1065 58.5064 12.0861H66.1699C65.9515 12.7802 64.5842 16.9686 61.4668 20.9015C61.4668 20.9015 64.9388 26.9539 65.7321 30.2371H57.7078C57.7078 30.2371 56.7491 25.8781 54.8088 22.9817V30.2371H48.1082V6.76811L54.8088 5.44922V18.3982C57.183 15.5414 58.241 12.7786 58.4734 12.1715L58.4735 12.1712ZM98.5062 30.2371V6.60467L105 5.44922V30.2371H98.5062ZM76.1209 11.8409C70.1222 12.0333 67.0745 14.7125 67.0745 20.0377V30.2371H73.6212V21.9183C73.6212 18.7312 74.0413 17.3647 77.8439 17.2344V11.935C77.2044 11.7995 76.1209 11.8409 76.1209 11.8409ZM79.7834 30.2377V12.1073H86.2761V30.2377H79.7834ZM89.0275 6.60467L95.517 5.44922V30.2371H89.0275V6.60467Z" fill="white"/>
</svg>