<svg xmlns="http://www.w3.org/2000/svg" width="24" height="24" viewBox="0 0 24 24" fill="none">
<g clip-path="url(#clip0_23_735)">
<path d="M10.5222 6.75765H12.9218L11.1997 5.06839C10.857 5.56392 10.6201 6.13793 10.5222 6.75765Z" fill="#3267F6"/>
<path d="M10.5222 6.75765H12.9218L11.1997 5.06839C10.857 5.56392 10.6201 6.13793 10.5222 6.75765Z" fill="#3267F6"/>
<path d="M10.5222 6.75765H12.9218L11.1997 5.06839C10.857 5.56392 10.6201 6.13793 10.5222 6.75765Z" fill="#3267F6"/>
<path d="M10.5222 6.75765H12.9218L11.1997 5.06839C10.857 5.56392 10.6201 6.13793 10.5222 6.75765Z" fill="#3267F6"/>
<path d="M10.5222 6.75765H12.9218L11.1997 5.06839C10.857 5.56392 10.6201 6.13793 10.5222 6.75765Z" fill="#3267F6"/>
<path d="M16.7208 11.2576H18.1788V14.4165H16.7208V11.2576Z" fill="#3267F6"/>
<path d="M16.7208 11.2576H18.1788V14.4165H16.7208V11.2576Z" fill="#3267F6"/>
<path d="M16.7208 11.2576H18.1788V14.4165H16.7208V11.2576Z" fill="#3267F6"/>
<path d="M16.7208 11.2576H18.1788V14.4165H16.7208V11.2576Z" fill="#3267F6"/>
<path d="M16.7208 11.2576H18.1788V14.4165H16.7208V11.2576Z" fill="#3267F6"/>
<path d="M3.48128 9.97507C4.32451 9.97507 5.00809 9.29149 5.00809 8.44826C5.00809 7.60502 4.32451 6.92145 3.48128 6.92145C2.63804 6.92145 1.95447 7.60502 1.95447 8.44826C1.95447 9.29149 2.63804 9.97507 3.48128 9.97507Z" fill="#3267F6"/>
<path d="M3.48128 9.97507C4.32451 9.97507 5.00809 9.29149 5.00809 8.44826C5.00809 7.60502 4.32451 6.92145 3.48128 6.92145C2.63804 6.92145 1.95447 7.60502 1.95447 8.44826C1.95447 9.29149 2.63804 9.97507 3.48128 9.97507Z" fill="#3267F6"/>
<path d="M3.48128 9.97507C4.32451 9.97507 5.00809 9.29149 5.00809 8.44826C5.00809 7.60502 4.32451 6.92145 3.48128 6.92145C2.63804 6.92145 1.95447 7.60502 1.95447 8.44826C1.95447 9.29149 2.63804 9.97507 3.48128 9.97507Z" fill="#3267F6"/>
<path d="M3.48128 9.97507C4.32451 9.97507 5.00809 9.29149 5.00809 8.44826C5.00809 7.60502 4.32451 6.92145 3.48128 6.92145C2.63804 6.92145 1.95447 7.60502 1.95447 8.44826C1.95447 9.29149 2.63804 9.97507 3.48128 9.97507Z" fill="#3267F6"/>
<path d="M3.48128 9.97507C4.32451 9.97507 5.00809 9.29149 5.00809 8.44826C5.00809 7.60502 4.32451 6.92145 3.48128 6.92145C2.63804 6.92145 1.95447 7.60502 1.95447 8.44826C1.95447 9.29149 2.63804 9.97507 3.48128 9.97507Z" fill="#3267F6"/>
<path d="M13.8797 3.35019C13.256 3.45824 12.68 3.7073 12.1859 4.06318L13.8797 5.72466V3.35019Z" fill="#3267F6"/>
<path d="M13.8797 3.35019C13.256 3.45824 12.68 3.7073 12.1859 4.06318L13.8797 5.72466V3.35019Z" fill="#3267F6"/>
<path d="M13.8797 3.35019C13.256 3.45824 12.68 3.7073 12.1859 4.06318L13.8797 5.72466V3.35019Z" fill="#3267F6"/>
<path d="M13.8797 3.35019C13.256 3.45824 12.68 3.7073 12.1859 4.06318L13.8797 5.72466V3.35019Z" fill="#3267F6"/>
<path d="M13.8797 3.35019C13.256 3.45824 12.68 3.7073 12.1859 4.06318L13.8797 5.72466V3.35019Z" fill="#3267F6"/>
<path d="M9.10139 6.75767C9.24441 5.5322 9.79016 4.42802 10.6028 3.58154C10.6156 3.566 10.6287 3.5507 10.6431 3.53605C10.6566 3.52221 10.671 3.50958 10.6854 3.49709C11.6847 2.49937 13.0634 1.88152 14.5837 1.88152C16.1736 1.88152 17.6084 2.55744 18.6167 3.63669C18.6325 3.6511 18.6479 3.66607 18.6626 3.68217C18.6769 3.69785 18.69 3.71418 18.7026 3.73075C19.4389 4.55598 19.9313 5.60294 20.0661 6.75767H22.0395C21.8928 3.00082 18.8014 0 15.0086 0H14.1589C10.3661 0 7.27469 3.00082 7.12805 6.75767H9.10139Z" fill="#3267F6"/>
<path d="M9.10139 6.75767C9.24441 5.5322 9.79016 4.42802 10.6028 3.58154C10.6156 3.566 10.6287 3.5507 10.6431 3.53605C10.6566 3.52221 10.671 3.50958 10.6854 3.49709C11.6847 2.49937 13.0634 1.88152 14.5837 1.88152C16.1736 1.88152 17.6084 2.55744 18.6167 3.63669C18.6325 3.6511 18.6479 3.66607 18.6626 3.68217C18.6769 3.69785 18.69 3.71418 18.7026 3.73075C19.4389 4.55598 19.9313 5.60294 20.0661 6.75767H22.0395C21.8928 3.00082 18.8014 0 15.0086 0H14.1589C10.3661 0 7.27469 3.00082 7.12805 6.75767H9.10139Z" fill="#3267F6"/>
<path d="M9.10139 6.75767C9.24441 5.5322 9.79016 4.42802 10.6028 3.58154C10.6156 3.566 10.6287 3.5507 10.6431 3.53605C10.6566 3.52221 10.671 3.50958 10.6854 3.49709C11.6847 2.49937 13.0634 1.88152 14.5837 1.88152C16.1736 1.88152 17.6084 2.55744 18.6167 3.63669C18.6325 3.6511 18.6479 3.66607 18.6626 3.68217C18.6769 3.69785 18.69 3.71418 18.7026 3.73075C19.4389 4.55598 19.9313 5.60294 20.0661 6.75767H22.0395C21.8928 3.00082 18.8014 0 15.0086 0H14.1589C10.3661 0 7.27469 3.00082 7.12805 6.75767H9.10139Z" fill="#3267F6"/>
<path d="M9.10139 6.75767C9.24441 5.5322 9.79016 4.42802 10.6028 3.58154C10.6156 3.566 10.6287 3.5507 10.6431 3.53605C10.6566 3.52221 10.671 3.50958 10.6854 3.49709C11.6847 2.49937 13.0634 1.88152 14.5837 1.88152C16.1736 1.88152 17.6084 2.55744 18.6167 3.63669C18.6325 3.6511 18.6479 3.66607 18.6626 3.68217C18.6769 3.69785 18.69 3.71418 18.7026 3.73075C19.4389 4.55598 19.9313 5.60294 20.0661 6.75767H22.0395C21.8928 3.00082 18.8014 0 15.0086 0H14.1589C10.3661 0 7.27469 3.00082 7.12805 6.75767H9.10139Z" fill="#3267F6"/>
<path d="M9.10139 6.75767C9.24441 5.5322 9.79016 4.42802 10.6028 3.58154C10.6156 3.566 10.6287 3.5507 10.6431 3.53605C10.6566 3.52221 10.671 3.50958 10.6854 3.49709C11.6847 2.49937 13.0634 1.88152 14.5837 1.88152C16.1736 1.88152 17.6084 2.55744 18.6167 3.63669C18.6325 3.6511 18.6479 3.66607 18.6626 3.68217C18.6769 3.69785 18.69 3.71418 18.7026 3.73075C19.4389 4.55598 19.9313 5.60294 20.0661 6.75767H22.0395C21.8928 3.00082 18.8014 0 15.0086 0H14.1589C10.3661 0 7.27469 3.00082 7.12805 6.75767H9.10139Z" fill="#3267F6"/>
<path d="M18.0508 5.19287L16.3348 6.75761H18.6452C18.5554 6.18923 18.3488 5.65916 18.0508 5.19287Z" fill="#3267F6"/>
<path d="M18.0508 5.19287L16.3348 6.75761H18.6452C18.5554 6.18923 18.3488 5.65916 18.0508 5.19287Z" fill="#3267F6"/>
<path d="M18.0508 5.19287L16.3348 6.75761H18.6452C18.5554 6.18923 18.3488 5.65916 18.0508 5.19287Z" fill="#3267F6"/>
<path d="M18.0508 5.19287L16.3348 6.75761H18.6452C18.5554 6.18923 18.3488 5.65916 18.0508 5.19287Z" fill="#3267F6"/>
<path d="M18.0508 5.19287L16.3348 6.75761H18.6452C18.5554 6.18923 18.3488 5.65916 18.0508 5.19287Z" fill="#3267F6"/>
<path d="M15.2877 5.80671L17.1014 4.15288C16.5815 3.74907 15.9626 3.46711 15.2877 3.35019V5.80671Z" fill="#3267F6"/>
<path d="M15.2877 5.80671L17.1014 4.15288C16.5815 3.74907 15.9626 3.46711 15.2877 3.35019V5.80671Z" fill="#3267F6"/>
<path d="M15.2877 5.80671L17.1014 4.15288C16.5815 3.74907 15.9626 3.46711 15.2877 3.35019V5.80671Z" fill="#3267F6"/>
<path d="M15.2877 5.80671L17.1014 4.15288C16.5815 3.74907 15.9626 3.46711 15.2877 3.35019V5.80671Z" fill="#3267F6"/>
<path d="M15.2877 5.80671L17.1014 4.15288C16.5815 3.74907 15.9626 3.46711 15.2877 3.35019V5.80671Z" fill="#3267F6"/>
<path d="M17.7018 21.8607H11.4656C11.2026 21.8607 10.9886 22.0747 10.9886 22.3377V24H18.1788V22.3377C18.1788 22.0747 17.9648 21.8607 17.7018 21.8607Z" fill="#3267F6"/>
<path d="M17.7018 21.8607H11.4656C11.2026 21.8607 10.9886 22.0747 10.9886 22.3377V24H18.1788V22.3377C18.1788 22.0747 17.9648 21.8607 17.7018 21.8607Z" fill="#3267F6"/>
<path d="M17.7018 21.8607H11.4656C11.2026 21.8607 10.9886 22.0747 10.9886 22.3377V24H18.1788V22.3377C18.1788 22.0747 17.9648 21.8607 17.7018 21.8607Z" fill="#3267F6"/>
<path d="M17.7018 21.8607H11.4656C11.2026 21.8607 10.9886 22.0747 10.9886 22.3377V24H18.1788V22.3377C18.1788 22.0747 17.9648 21.8607 17.7018 21.8607Z" fill="#3267F6"/>
<path d="M17.7018 21.8607H11.4656C11.2026 21.8607 10.9886 22.0747 10.9886 22.3377V24H18.1788V22.3377C18.1788 22.0747 17.9648 21.8607 17.7018 21.8607Z" fill="#3267F6"/>
<path d="M7.12195 18.8533V22.9876C7.12195 23.5468 7.57523 24 8.13441 24H9.58049V22.3378C9.58049 21.2966 10.4245 20.4526 11.4656 20.4526H17.7018C18.7429 20.4526 19.5869 21.2966 19.5869 22.3378V24.0001H21.033C21.5921 24.0001 22.0454 23.5468 22.0454 22.9876V18.8533H7.12195V18.8533Z" fill="#3267F6"/>
<path d="M7.12195 18.8533V22.9876C7.12195 23.5468 7.57523 24 8.13441 24H9.58049V22.3378C9.58049 21.2966 10.4245 20.4526 11.4656 20.4526H17.7018C18.7429 20.4526 19.5869 21.2966 19.5869 22.3378V24.0001H21.033C21.5921 24.0001 22.0454 23.5468 22.0454 22.9876V18.8533H7.12195V18.8533Z" fill="#3267F6"/>
<path d="M7.12195 18.8533V22.9876C7.12195 23.5468 7.57523 24 8.13441 24H9.58049V22.3378C9.58049 21.2966 10.4245 20.4526 11.4656 20.4526H17.7018C18.7429 20.4526 19.5869 21.2966 19.5869 22.3378V24.0001H21.033C21.5921 24.0001 22.0454 23.5468 22.0454 22.9876V18.8533H7.12195V18.8533Z" fill="#3267F6"/>
<path d="M7.12195 18.8533V22.9876C7.12195 23.5468 7.57523 24 8.13441 24H9.58049V22.3378C9.58049 21.2966 10.4245 20.4526 11.4656 20.4526H17.7018C18.7429 20.4526 19.5869 21.2966 19.5869 22.3378V24.0001H21.033C21.5921 24.0001 22.0454 23.5468 22.0454 22.9876V18.8533H7.12195V18.8533Z" fill="#3267F6"/>
<path d="M7.12195 18.8533V22.9876C7.12195 23.5468 7.57523 24 8.13441 24H9.58049V22.3378C9.58049 21.2966 10.4245 20.4526 11.4656 20.4526H17.7018C18.7429 20.4526 19.5869 21.2966 19.5869 22.3378V24.0001H21.033C21.5921 24.0001 22.0454 23.5468 22.0454 22.9876V18.8533H7.12195V18.8533Z" fill="#3267F6"/>
<path d="M7.12201 17.4452H22.0455V8.16583H7.12201V13.0148H5.09958C4.59772 13.0148 4.1894 12.6065 4.1894 12.1046V11.2964C3.9625 11.3528 3.72541 11.3833 3.48129 11.3833C3.24003 11.3833 3.00571 11.3534 2.78125 11.2983V12.1047C2.78125 13.383 3.82126 14.423 5.09958 14.423H7.12201V17.4452ZM9.5805 10.5535C9.5805 10.1647 9.89574 9.84946 10.2846 9.84946H18.8829C19.2717 9.84946 19.587 10.1647 19.587 10.5535V15.1205C19.587 15.5094 19.2717 15.8246 18.8829 15.8246H10.2846C9.89574 15.8246 9.5805 15.5094 9.5805 15.1205V10.5535Z" fill="#3267F6"/>
<path d="M7.12201 17.4452H22.0455V8.16583H7.12201V13.0148H5.09958C4.59772 13.0148 4.1894 12.6065 4.1894 12.1046V11.2964C3.9625 11.3528 3.72541 11.3833 3.48129 11.3833C3.24003 11.3833 3.00571 11.3534 2.78125 11.2983V12.1047C2.78125 13.383 3.82126 14.423 5.09958 14.423H7.12201V17.4452ZM9.5805 10.5535C9.5805 10.1647 9.89574 9.84946 10.2846 9.84946H18.8829C19.2717 9.84946 19.587 10.1647 19.587 10.5535V15.1205C19.587 15.5094 19.2717 15.8246 18.8829 15.8246H10.2846C9.89574 15.8246 9.5805 15.5094 9.5805 15.1205V10.5535Z" fill="#3267F6"/>
<path d="M7.12201 17.4452H22.0455V8.16583H7.12201V13.0148H5.09958C4.59772 13.0148 4.1894 12.6065 4.1894 12.1046V11.2964C3.9625 11.3528 3.72541 11.3833 3.48129 11.3833C3.24003 11.3833 3.00571 11.3534 2.78125 11.2983V12.1047C2.78125 13.383 3.82126 14.423 5.09958 14.423H7.12201V17.4452ZM9.5805 10.5535C9.5805 10.1647 9.89574 9.84946 10.2846 9.84946H18.8829C19.2717 9.84946 19.587 10.1647 19.587 10.5535V15.1205C19.587 15.5094 19.2717 15.8246 18.8829 15.8246H10.2846C9.89574 15.8246 9.5805 15.5094 9.5805 15.1205V10.5535Z" fill="#3267F6"/>
<path d="M7.12201 17.4452H22.0455V8.16583H7.12201V13.0148H5.09958C4.59772 13.0148 4.1894 12.6065 4.1894 12.1046V11.2964C3.9625 11.3528 3.72541 11.3833 3.48129 11.3833C3.24003 11.3833 3.00571 11.3534 2.78125 11.2983V12.1047C2.78125 13.383 3.82126 14.423 5.09958 14.423H7.12201V17.4452ZM9.5805 10.5535C9.5805 10.1647 9.89574 9.84946 10.2846 9.84946H18.8829C19.2717 9.84946 19.587 10.1647 19.587 10.5535V15.1205C19.587 15.5094 19.2717 15.8246 18.8829 15.8246H10.2846C9.89574 15.8246 9.5805 15.5094 9.5805 15.1205V10.5535Z" fill="#3267F6"/>
<path d="M7.12201 17.4452H22.0455V8.16583H7.12201V13.0148H5.09958C4.59772 13.0148 4.1894 12.6065 4.1894 12.1046V11.2964C3.9625 11.3528 3.72541 11.3833 3.48129 11.3833C3.24003 11.3833 3.00571 11.3534 2.78125 11.2983V12.1047C2.78125 13.383 3.82126 14.423 5.09958 14.423H7.12201V17.4452ZM9.5805 10.5535C9.5805 10.1647 9.89574 9.84946 10.2846 9.84946H18.8829C19.2717 9.84946 19.587 10.1647 19.587 10.5535V15.1205C19.587 15.5094 19.2717 15.8246 18.8829 15.8246H10.2846C9.89574 15.8246 9.5805 15.5094 9.5805 15.1205V10.5535Z" fill="#3267F6"/>
<path d="M13.8547 11.2576H15.3127V14.4165H13.8547V11.2576Z" fill="#3267F6"/>
<path d="M13.8547 11.2576H15.3127V14.4165H13.8547V11.2576Z" fill="#3267F6"/>
<path d="M13.8547 11.2576H15.3127V14.4165H13.8547V11.2576Z" fill="#3267F6"/>
<path d="M13.8547 11.2576H15.3127V14.4165H13.8547V11.2576Z" fill="#3267F6"/>
<path d="M13.8547 11.2576H15.3127V14.4165H13.8547V11.2576Z" fill="#3267F6"/>
<path d="M10.9886 11.2576H12.4466V14.4165H10.9886V11.2576Z" fill="#3267F6"/>
<path d="M10.9886 11.2576H12.4466V14.4165H10.9886V11.2576Z" fill="#3267F6"/>
<path d="M10.9886 11.2576H12.4466V14.4165H10.9886V11.2576Z" fill="#3267F6"/>
<path d="M10.9886 11.2576H12.4466V14.4165H10.9886V11.2576Z" fill="#3267F6"/>
<path d="M10.9886 11.2576H12.4466V14.4165H10.9886V11.2576Z" fill="#3267F6"/>
</g>
<defs>
<clipPath id="clip0_23_735">
<rect width="24" height="24" fill="white"/>
</clipPath>
</defs>
</svg>