<svg xmlns="http://www.w3.org/2000/svg" width="151" height="30" viewBox="0 0 151 30" fill="none">
<path d="M14.6272 3.71702C14.7595 3.37702 15.2405 3.37702 15.3728 3.71702L17.5417 9.29308C17.8825 10.1693 18.7035 10.7658 19.6422 10.8192L25.6156 11.1588C25.9798 11.1795 26.1284 11.6371 25.846 11.8679L21.213 15.6537C20.485 16.2486 20.1714 17.2138 20.4107 18.123L21.9336 23.909C22.0264 24.2618 21.6372 24.5446 21.3304 24.3472L16.2982 21.1109C15.5074 20.6024 14.4926 20.6024 13.7018 21.1109L8.66962 24.3472C8.36279 24.5446 7.97358 24.2618 8.06643 23.909L9.58931 18.123C9.82861 17.2138 9.515 16.2486 8.78698 15.6537L4.15405 11.8679C3.87156 11.6371 4.02022 11.1795 4.38445 11.1588L10.3578 10.8192C11.2965 10.7658 12.1175 10.1693 12.4583 9.29308L14.6272 3.71702Z" stroke="#C4C9DA" stroke-width="2"/>
<path d="M44.6272 3.71702C44.7595 3.37702 45.2405 3.37702 45.3728 3.71702L47.5417 9.29308C47.8825 10.1693 48.7035 10.7658 49.6422 10.8192L55.6156 11.1588C55.9798 11.1795 56.1284 11.6371 55.846 11.8679L51.213 15.6537C50.485 16.2486 50.1714 17.2138 50.4107 18.123L51.9336 23.909C52.0264 24.2618 51.6372 24.5446 51.3304 24.3472L46.2982 21.1109C45.5074 20.6024 44.4926 20.6024 43.7018 21.1109L38.6696 24.3472C38.3628 24.5446 37.9736 24.2618 38.0664 23.909L39.5893 18.123C39.8286 17.2138 39.515 16.2486 38.787 15.6537L34.154 11.8679C33.8716 11.6371 34.0202 11.1795 34.3844 11.1588L40.3578 10.8192C41.2965 10.7658 42.1175 10.1693 42.4583 9.29308L44.6272 3.71702Z" stroke="#C4C9DA" stroke-width="2"/>
<path d="M75.6272 3.71702C75.7595 3.37702 76.2405 3.37702 76.3728 3.71702L78.5417 9.29308C78.8825 10.1693 79.7035 10.7658 80.6422 10.8192L86.6156 11.1588C86.9798 11.1795 87.1284 11.6371 86.846 11.8679L82.213 15.6537C81.485 16.2486 81.1714 17.2138 81.4107 18.123L82.9336 23.909C83.0264 24.2618 82.6372 24.5446 82.3304 24.3472L77.2982 21.1109C76.5074 20.6024 75.4926 20.6024 74.7018 21.1109L69.6696 24.3472C69.3628 24.5446 68.9736 24.2618 69.0664 23.909L70.5893 18.123C70.8286 17.2138 70.515 16.2486 69.787 15.6537L65.154 11.8679C64.8716 11.6371 65.0202 11.1795 65.3844 11.1588L71.3578 10.8192C72.2965 10.7658 73.1175 10.1693 73.4583 9.29308L75.6272 3.71702Z" stroke="#C4C9DA" stroke-width="2"/>
<path d="M105.627 3.71702C105.759 3.37702 106.241 3.37702 106.373 3.71702L108.542 9.29308C108.882 10.1693 109.704 10.7658 110.642 10.8192L116.616 11.1588C116.98 11.1795 117.128 11.6371 116.846 11.8679L112.213 15.6537C111.485 16.2486 111.171 17.2138 111.411 18.123L112.934 23.909C113.026 24.2618 112.637 24.5446 112.33 24.3472L107.298 21.1109C106.507 20.6024 105.493 20.6024 104.702 21.1109L99.6696 24.3472C99.3628 24.5446 98.9736 24.2618 99.0664 23.909L100.589 18.123C100.829 17.2138 100.515 16.2486 99.787 15.6537L95.154 11.8679C94.8716 11.6371 95.0202 11.1795 95.3844 11.1588L101.358 10.8192C102.296 10.7658 103.118 10.1693 103.458 9.29308L105.627 3.71702Z" stroke="#C4C9DA" stroke-width="2"/>
<path d="M135.627 3.71702C135.759 3.37702 136.241 3.37702 136.373 3.71702L138.542 9.29308C138.882 10.1693 139.704 10.7658 140.642 10.8192L146.616 11.1588C146.98 11.1795 147.128 11.6371 146.846 11.8679L142.213 15.6537C141.485 16.2486 141.171 17.2138 141.411 18.123L142.934 23.909C143.026 24.2618 142.637 24.5446 142.33 24.3472L137.298 21.1109C136.507 20.6024 135.493 20.6024 134.702 21.1109L129.67 24.3472C129.363 24.5446 128.974 24.2618 129.066 23.909L130.589 18.123C130.829 17.2138 130.515 16.2486 129.787 15.6537L125.154 11.8679C124.872 11.6371 125.02 11.1795 125.384 11.1588L131.358 10.8192C132.296 10.7658 133.118 10.1693 133.458 9.29308L135.627 3.71702Z" stroke="#C4C9DA" stroke-width="2"/>
</svg>